<?xml version="1.0" encoding="UTF-8"?>
<svg height="16px" viewBox="0 0 16 16" width="16px" xmlns="http://www.w3.org/2000/svg">
    <g fill="#222222">
        <path d="m 3 3 c -0.554688 0 -1 0.445312 -1 1 s 0.445312 1 1 1 h 1 c 0.554688 0 1 -0.445312 1 -1 s -0.445312 -1 -1 -1 z m 3 0 v 2 h 8 v -2 z m 0 0"/>
        <path d="m 3 7 c -0.554688 0 -1 0.445312 -1 1 s 0.445312 1 1 1 h 1 c 0.554688 0 1 -0.445312 1 -1 s -0.445312 -1 -1 -1 z m 3 0 v 2 h 5 v -2 z m 0 0"/>
        <path d="m 3 11 c -0.554688 0 -1 0.445312 -1 1 s 0.445312 1 1 1 h 1 c 0.554688 0 1 -0.445312 1 -1 s -0.445312 -1 -1 -1 z m 3 0 v 2 h 8 v -2 z m 0 0"/>
    </g>
</svg>
