<?xml version="1.0" encoding="UTF-8"?>
<svg height="16px" viewBox="0 0 16 16" width="16px" xmlns="http://www.w3.org/2000/svg">
    <path d="m 8.011719 0.0117188 c -0.253907 0 -0.511719 0.0976562 -0.707031 0.2929692 l -2 2 c -0.183594 0.1875 -0.289063 0.441406 -0.285157 0.707031 h -0.007812 v 1 l 1.988281 0.011719 v 0.992187 h -2.976562 c -1.660157 0 -3.027344 1.371094 -3.027344 3.03125 l 0.003906 1.988281 v 2.976563 c 0 1.660156 1.367188 3.03125 3.027344 3.03125 h 7.949218 c 1.660157 0 3.027344 -1.371094 3.027344 -3.03125 v -2.976563 l -0.003906 -1.988281 c 0 -1.660156 -1.367188 -3.03125 -3.027344 -3.03125 h -2.972656 v -0.992187 l 2.011719 -0.011719 v -1 h -0.003907 c 0.003907 -0.265625 -0.101562 -0.519531 -0.285156 -0.707031 l -2 -2 c -0.195312 -0.195313 -0.453125 -0.2929692 -0.710937 -0.2929692 z m -4.011719 7.0117192 h 3 v 2 h -3 c -0.554688 0 -1 -0.445313 -1 -1 c 0 -0.554688 0.445312 -1 1 -1 z m 5 0 h 3 c 0.554688 0 1 0.445312 1 1 c 0 0.554687 -0.445312 1 -1 1 h -3 z m -6 2.730468 c 0.292969 0.171875 0.636719 0.269532 1 0.269532 h 3 v 2 l 2 0.988281 v -2.988281 h 3 c 0.367188 0 0.707031 -0.097657 1.003906 -0.269532 v 3.257813 c 0 0.585937 -0.441406 1.03125 -1.027344 1.03125 h -7.949218 c -0.585938 0 -1.027344 -0.445313 -1.027344 -1.03125 z m 0 0" fill="#222222"/>
</svg>
