<?xml version="1.0" encoding="UTF-8"?>
<svg height="16px" viewBox="0 0 16 16" width="16px" xmlns="http://www.w3.org/2000/svg">
    <path d="m -0.046875 8.050781 c 0 0.199219 0.0703125 0.386719 0.207031 0.527344 l 0.261719 0.261719 c 0.320313 0.320312 0.890625 0.257812 1.28125 -0.132813 l 5.292969 -5.289062 v 11.582031 c 0 0.554688 0.445312 1 1 1 c 0.554687 0 1 -0.445312 1 -1 v -11.582031 l 5.292968 5.289062 c 0.390626 0.390625 0.964844 0.453125 1.285157 0.132813 l 0.257812 -0.261719 c 0.320313 -0.320313 0.261719 -0.894531 -0.128906 -1.285156 l -6.972656 -6.96875 c 0 -0.003907 0 -0.003907 -0.003907 -0.007813 c -0.003906 -0.003906 -0.011718 -0.003906 -0.011718 -0.007812 c -0.066406 -0.070313 -0.140625 -0.132813 -0.226563 -0.179688 c -0.136719 -0.1054685 -0.308593 -0.1562498 -0.492187 -0.1484372 c -0.175782 -0.0039063 -0.347656 0.0429687 -0.484375 0.1445312 c -0.09375 0.050781 -0.171875 0.117188 -0.242188 0.191406 l -0.03125 0.03125 l -6.949219 6.945313 c -0.2187495 0.21875 -0.3320308 0.5 -0.335937 0.757812 z m 0 0" fill="#222222"/>
</svg>
