<?xml version="1.0" encoding="UTF-8"?>
<svg height="16px" viewBox="0 0 16 16" width="16px" xmlns="http://www.w3.org/2000/svg">
    <path d="m 7.949219 -0.0429688 c -0.199219 0 -0.386719 0.0703126 -0.527344 0.2109378 l -0.261719 0.257812 c -0.316406 0.320313 -0.257812 0.890625 0.132813 1.28125 l 5.289062 5.292969 h -11.582031 c -0.554688 0 -1 0.445312 -1 1 s 0.445312 1 1 1 h 11.582031 l -5.289062 5.292969 c -0.390625 0.390625 -0.449219 0.964843 -0.132813 1.285156 l 0.261719 0.257813 c 0.320313 0.320312 0.894531 0.261718 1.285156 -0.128907 l 6.96875 -6.96875 c 0.003907 -0.003906 0.007813 -0.007812 0.007813 -0.007812 c 0.003906 -0.003907 0.007812 -0.007813 0.011718 -0.011719 c 0.066407 -0.066406 0.128907 -0.140625 0.175782 -0.226562 c 0.109375 -0.136719 0.15625 -0.308594 0.148437 -0.492188 c 0.007813 -0.175781 -0.039062 -0.347656 -0.144531 -0.484375 c -0.050781 -0.089844 -0.117188 -0.171875 -0.191406 -0.242187 l -0.03125 -0.03125 l -6.945313 -6.949219 c -0.21875 -0.2187502 -0.496093 -0.3320315 -0.753906 -0.3359378 z m 0 0" fill="#222222"/>
</svg>
