<?xml version="1.0" encoding="UTF-8"?>
<svg height="16px" viewBox="0 0 16 16" width="16px" xmlns="http://www.w3.org/2000/svg">
    <path d="m 7.929688 4.085938 c -0.234376 0.015624 -0.457032 0.113281 -0.628907 0.28125 l -3 2.917968 c -0.394531 0.382813 -0.402343 1.015625 -0.019531 1.414063 c 0.386719 0.394531 1.019531 0.402343 1.414062 0.019531 l 1.304688 -1.269531 v 7.550781 c 0 0.550781 0.449219 1 1 1 s 1 -0.449219 1 -1 v -7.550781 l 1.300781 1.269531 c 0.398438 0.382812 1.03125 0.375 1.414063 -0.019531 c 0.386718 -0.398438 0.378906 -1.03125 -0.019532 -1.414063 l -3 -2.917968 c -0.203124 -0.199219 -0.480468 -0.304688 -0.765624 -0.28125 z m 0 0" fill="#222222" fill-rule="evenodd"/>
</svg>
