<?xml version="1.0" encoding="UTF-8"?>
<svg height="16px" viewBox="0 0 16 16" width="16px" xmlns="http://www.w3.org/2000/svg">
    <path d="m 7.929688 0 c -0.523438 0.0351562 -0.933594 0.472656 -0.933594 1 v 7.550781 l -1.300782 -1.269531 c -0.394531 -0.382812 -1.027343 -0.375 -1.414062 0.019531 c -0.386719 0.398438 -0.375 1.03125 0.019531 1.414063 l 3 2.917968 c 0.386719 0.378907 1.007813 0.378907 1.394531 0 l 3 -2.917968 c 0.394532 -0.382813 0.40625 -1.015625 0.019532 -1.414063 c -0.386719 -0.394531 -1.019532 -0.402343 -1.414063 -0.019531 l -1.304687 1.269531 v -7.550781 c 0.003906 -0.277344 -0.113282 -0.542969 -0.316406 -0.730469 c -0.199219 -0.1874998 -0.472657 -0.285156 -0.75 -0.269531 z m 0 0" fill="#222222" fill-rule="evenodd"/>
</svg>
