<?xml version="1.0" encoding="UTF-8"?>
<svg height="16px" viewBox="0 0 16 16" width="16px" xmlns="http://www.w3.org/2000/svg">
    <g fill="#241f31">
        <path d="m 16 13 c 0 -0.550781 -0.449219 -1 -1 -1 h -14 c -0.550781 0 -1 0.449219 -1 1 s 0.449219 1 1 1 h 14 c 0.550781 0 1 -0.449219 1 -1 z m 0 0"/>
        <path d="m 10 3.835938 v 0.023437 c 0.007812 0.035156 0.027344 0.074219 0.054688 0.097656 c 0.003906 0.003907 0.003906 0.003907 0.007812 0.007813 s 0.007812 0.003906 0.011719 0.007812 c 0.003906 0.003906 0.007812 0.003906 0.011719 0.007813 c 0.007812 0.003906 0.011718 0.003906 0.019531 0.007812 c 0.007812 0.003907 0.007812 0.003907 0.015625 0.003907 c 0.007812 0.003906 0.015625 0.003906 0.023437 0.007812 h 0.019531 h -4.328124 h 0.019531 c 0.007812 -0.003906 0.015625 -0.003906 0.019531 -0.007812 c 0.011719 0 0.011719 0 0.019531 -0.003907 c 0.007813 -0.003906 0.011719 -0.003906 0.015625 -0.007812 c 0.007813 -0.003907 0.011719 -0.003907 0.015625 -0.007813 c 0.003907 -0.003906 0.007813 -0.003906 0.011719 -0.007812 c 0 -0.003906 0.003906 -0.003906 0.007812 -0.007813 c 0.027344 -0.023437 0.046876 -0.0625 0.050782 -0.097656 c 0.003906 -0.007813 0.003906 -0.015625 0.003906 -0.023437 v 5.328124 c 0 -0.003906 0 -0.011718 -0.003906 -0.019531 c 0 -0.007812 0 -0.015625 -0.003906 -0.023437 c -0.003907 -0.007813 -0.003907 -0.007813 -0.003907 -0.015625 c -0.003906 -0.007813 -0.007812 -0.011719 -0.007812 -0.015625 c -0.003907 -0.007813 -0.003907 -0.011719 -0.007813 -0.015625 c -0.003906 -0.003907 -0.003906 -0.007813 -0.007812 -0.011719 c -0.003906 0 -0.003906 -0.003906 -0.007813 -0.007812 c -0.023437 -0.027344 -0.0625 -0.046876 -0.097656 -0.050782 c -0.007813 -0.003906 -0.015625 -0.003906 -0.023437 -0.003906 h 4.328124 c -0.003906 0 -0.015624 0 -0.023437 0.003906 c -0.035156 0.003906 -0.074219 0.023438 -0.097656 0.050782 c -0.003907 0.003906 -0.003907 0.007812 -0.007813 0.007812 c -0.003906 0.003906 -0.003906 0.007812 -0.007812 0.011719 c -0.003906 0.003906 -0.003906 0.007812 -0.007813 0.015625 c -0.003906 0.003906 -0.003906 0.007812 -0.007812 0.015625 c -0.003907 0.007812 -0.003907 0.007812 -0.003907 0.015625 c -0.003906 0.007812 -0.003906 0.015625 -0.003906 0.023437 c -0.003906 0.007813 -0.003906 0.015625 -0.003906 0.019531 z m 0.164062 7.164062 h -4.328124 c -1.015626 0 -1.835938 -0.820312 -1.835938 -1.835938 v -5.328124 c 0 -1.015626 0.820312 -1.835938 1.835938 -1.835938 h 4.328124 c 1.015626 0 1.835938 0.820312 1.835938 1.835938 v 5.328124 c 0 1.015626 -0.820312 1.835938 -1.835938 1.835938 z m 0 0"/>
    </g>
</svg>
