<?xml version="1.0" encoding="UTF-8"?>
<svg height="16px" viewBox="0 0 16 16" width="16px" xmlns="http://www.w3.org/2000/svg">
    <g fill="#241f31">
        <path d="m 16 8 c 0 -0.550781 -0.449219 -1 -1 -1 h -14 c -0.550781 0 -1 0.449219 -1 1 s 0.449219 1 1 1 h 14 c 0.550781 0 1 -0.449219 1 -1 z m 0 0"/>
        <path d="m 12 3.835938 c 0 -1.015626 -0.820312 -1.835938 -1.835938 -1.835938 h -4.328124 c -1.015626 0 -1.835938 0.820312 -1.835938 1.835938 v 2.164062 h 2 v -2 h 4 v 2 h 2 z m 0 6.164062 h -2 v 2 h -4 v -2 h -2 v 2.167969 c 0 1.011719 0.820312 1.832031 1.835938 1.832031 h 4.328124 c 1.015626 0 1.835938 -0.820312 1.835938 -1.832031 z m 0 0"/>
    </g>
</svg>
