<?xml version="1.0" encoding="UTF-8"?>
<svg height="16px" viewBox="0 0 16 16" width="16px" xmlns="http://www.w3.org/2000/svg">
    <path d="m 7.3125 0.0273438 c -0.996094 0 -1.8125 0.8164062 -1.8125 1.8085942 v 0.03125 c 0.054688 0.949218 0.886719 1.6875 1.839844 1.632812 h 0.660156 v -1 h -0.71875 c -0.40625 0.023438 -0.730469 -0.277344 -0.765625 -0.679688 c 0.011719 -0.441406 0.351563 -0.792968 0.796875 -0.792968 h 2.960938 l -1.738282 4.558594 c -0.570312 -0.421876 -1.261718 -0.65625 -1.988281 -0.617188 h -4.546875 v -0.96875 c 0 -0.550781 -0.449219 -1 -1 -1 s -1 0.449219 -1 1 v 11 c 0 0.550781 0.449219 1 1 1 s 1 -0.449219 1 -1 v -2.957031 h 0.109375 c 0.480469 2.257812 2.492187 3.957031 4.890625 3.957031 c 2.753906 0 5 -2.246094 5 -5 c 0 -1.851562 -1.015625 -3.472656 -2.515625 -4.335938 c -0.058594 -0.101562 -0.121094 -0.199218 -0.183594 -0.289062 l 0.496094 -1.289062 l 4.789063 7.191406 l 0.414062 0.222656 h 1 v -1 h -0.730469 l -4.335937 -6.507812 h 5.066406 v -1 h -5.789062 l 1.515624 -3.9648442 z m -5.3125 7.0195312 h 1.941406 c -0.917968 0.714844 -1.582031 1.738281 -1.832031 2.910156 h -0.109375 z m 4.367188 0 h 0.179687 c 0.019531 0.003906 0.039063 0.003906 0.0625 0 c 0.472656 -0.03125 0.886719 0.203125 1.140625 0.585937 l -0.871094 2.28125 c -0.105468 0.027344 -0.21875 0.042969 -0.332031 0.042969 h -3.410156 c 0.402343 -1.507812 1.664062 -2.660156 3.230469 -2.910156 z m 3.59375 1.257813 c 0.644531 0.710937 1.039062 1.65625 1.039062 2.695312 c 0 2.214844 -1.785156 4 -4 4 c -1.855469 0 -3.40625 -1.25 -3.863281 -2.957031 h 3.410156 c 1.875 0 3.414063 -1.671875 3.414063 -3.707031 c 0 -0.007813 0 -0.019532 0 -0.03125 z m 0 0" fill="#222222"/>
</svg>
