<?xml version="1.0" encoding="UTF-8"?>
<svg height="16px" viewBox="0 0 16 16" width="16px" xmlns="http://www.w3.org/2000/svg">
    <g fill="#222222">
        <path d="m 5 0 c -2.761719 0 -5 2.238281 -5 5 v 6 c 0 2.761719 2.238281 5 5 5 h 0.976562 c 0.769532 0 1.46875 -0.289062 2 -0.765625 c 0.53125 0.476563 1.230469 0.765625 2.003907 0.765625 h 1.035156 v -2 h -1.035156 c -0.566407 0 -1 -0.4375 -1 -1 v -10 c 0 -0.5625 0.433593 -1 1 -1 h 1.035156 v -2 h -1.035156 c -0.773438 0 -1.472657 0.289062 -2.003907 0.765625 c -0.53125 -0.476563 -1.230468 -0.765625 -2 -0.765625 z m 0 2 h 0.976562 c 0.5625 0 1 0.4375 1 1 v 1 h -2.476562 c -0.277344 0 -0.5 0.222656 -0.5 0.5 s 0.222656 0.5 0.5 0.5 h 2.476562 v 4.988281 h -0.988281 c -1.097656 0 -1.988281 0.894531 -1.988281 1.992188 v 0.507812 c 0 0.277344 0.222656 0.5 0.5 0.5 s 0.5 -0.222656 0.5 -0.5 v -0.507812 c 0 -0.554688 0.4375 -0.992188 0.988281 -0.992188 h 0.988281 v 2.011719 c 0 0.5625 -0.4375 1 -1 1 h -0.976562 c -1.667969 0 -3 -1.332031 -3 -3 v -2 h 1.003906 c 1.09375 0 1.984375 -0.894531 1.984375 -1.988281 v -0.511719 c 0 -0.277344 -0.222656 -0.5 -0.5 -0.5 c -0.277343 0 -0.5 0.222656 -0.5 0.5 v 0.511719 c 0 0.550781 -0.433593 0.988281 -0.984375 0.988281 h -1.003906 v -3 c 0 -1.667969 1.332031 -3 3 -3 z m 0 0"/>
        <path d="m 14.488281 0 c -0.824219 0 -1.488281 0.664062 -1.488281 1.488281 c 0 0.261719 0.066406 0.511719 0.1875 0.726563 l -1.425781 1.785156 h -1.761719 v 1 h 2.242188 l 1.699218 -2.125 c 0.167969 0.066406 0.351563 0.105469 0.546875 0.105469 c 0.824219 0 1.492188 -0.667969 1.492188 -1.492188 s -0.667969 -1.488281 -1.492188 -1.488281 z m 0 1 c 0.277344 0 0.492188 0.210938 0.492188 0.488281 c 0 0.277344 -0.214844 0.492188 -0.492188 0.492188 c -0.277343 0 -0.488281 -0.214844 -0.488281 -0.492188 c 0 -0.277343 0.210938 -0.488281 0.488281 -0.488281 z m 0 0"/>
        <path d="m 10 10 v 1 h 1.761719 l 1.421875 1.777344 c -0.117188 0.210937 -0.183594 0.453125 -0.183594 0.710937 c 0 0.824219 0.664062 1.492188 1.488281 1.492188 s 1.492188 -0.667969 1.492188 -1.492188 s -0.667969 -1.488281 -1.492188 -1.488281 c -0.199219 0 -0.386719 0.039062 -0.558593 0.109375 l -1.6875 -2.109375 z m 4.488281 3 c 0.277344 0 0.492188 0.210938 0.492188 0.488281 c 0 0.277344 -0.214844 0.492188 -0.492188 0.492188 c -0.277343 0 -0.488281 -0.214844 -0.488281 -0.492188 c 0 -0.277343 0.210938 -0.488281 0.488281 -0.488281 z m 0 0"/>
        <path d="m 14.488281 6 c -0.652343 0 -1.203125 0.417969 -1.40625 1 h -3.082031 v 1 h 3.089844 c 0.207031 0.570312 0.753906 0.980469 1.398437 0.980469 c 0.824219 0 1.492188 -0.667969 1.492188 -1.492188 s -0.667969 -1.488281 -1.492188 -1.488281 z m 0 1 c 0.277344 0 0.492188 0.210938 0.492188 0.488281 c 0 0.277344 -0.214844 0.492188 -0.492188 0.492188 c -0.277343 0 -0.488281 -0.214844 -0.488281 -0.492188 c 0 -0.277343 0.210938 -0.488281 0.488281 -0.488281 z m 0 0"/>
    </g>
</svg>
