<?xml version="1.0" encoding="UTF-8"?>
<svg height="16px" viewBox="0 0 16 16" width="16px" xmlns="http://www.w3.org/2000/svg">
    <g fill="#222222">
        <path d="m 11.070312 0.0625 c -0.355468 -0.0039062 -0.6875 0.183594 -0.867187 0.492188 l -3.289063 5.582031 l -1.695312 -1.042969 c -0.757812 -0.378906 -1.222656 -0.144531 -1.511719 0.4375 l -0.019531 0.90625 l 6.019531 3.523438 l 0.625 -0.21875 c 0.652344 -0.480469 0.4375 -1.277344 -0.167969 -1.59375 l -1.550781 -0.960938 l 3.3125 -5.617188 c 0.277344 -0.476562 0.121094 -1.089843 -0.355469 -1.371093 c -0.152343 -0.085938 -0.324218 -0.136719 -0.5 -0.136719 z m 0 0"/>
        <path d="m 3.054688 7.488281 l 5.988281 3.476563 l -1.042969 1.539062 c -0.222656 0.246094 -0.132812 0.574219 0.085938 0.707032 l 0.953124 0.820312 h -5.371093 c -2.191407 0 -3.195313 -2.066406 -2.144531 -3.890625 z m 0 0"/>
    </g>
</svg>
