<?xml version="1.0" encoding="UTF-8"?>
<svg height="16px" viewBox="0 0 16 16" width="16px" xmlns="http://www.w3.org/2000/svg">
    <path d="m 2.859375 0 c -1.582031 0 -2.859375 1.28125 -2.859375 2.859375 v 4.3125 c -0.0078125 0.070313 -0.0117188 0.144531 -0.0117188 0.21875 v 4.363281 c 0 1.3125 0.9140628 2.40625 2.1445308 2.679688 c 0.367188 0.910156 1.265626 1.554687 2.3125 1.554687 c 1.199219 0 2.207032 -0.855469 2.441407 -1.988281 h 2.183593 c 0.234376 1.132812 1.242188 1.988281 2.445313 1.988281 c 1.0625 0 1.972656 -0.667969 2.328125 -1.601562 c 1.246094 -0.351563 2.15625 -1.496094 2.15625 -2.851563 v -2.414062 c 0.011719 -0.066406 0.019531 -0.132813 0.019531 -0.199219 v -1.058594 c 0 -1.339843 -0.21875 -2.667969 -0.652343 -3.9375 l -0.507813 -1.488281 c -0.5 -1.460938 -1.863281 -2.4375 -3.40625 -2.4375 z m 0 2 h 1.140625 v 3.007812 h -1.628906 c -0.125 0 -0.25 0.007813 -0.371094 0.027344 v -2.175781 c 0 -0.484375 0.371094 -0.859375 0.859375 -0.859375 z m 2.15625 0 h 1.984375 v 3.007812 h -1.984375 z m 2.984375 0 h 2 v 3.007812 h -2 z m 3 0 h 0.453125 c 0.6875 0 1.289063 0.429688 1.511719 1.082031 l 0.507812 1.488281 c 0.050782 0.144532 0.097656 0.292969 0.140625 0.4375 h -2.613281 z m -8.628906 5.007812 h 11.25 c 0.167968 0 0.300781 0.09375 0.355468 0.238282 c 0.007813 0.113281 0.019532 0.226562 0.023438 0.34375 v 3.945312 c 0 0.292969 -0.121094 0.546875 -0.316406 0.722656 c -0.433594 -0.75 -1.242188 -1.257812 -2.167969 -1.257812 c -1.207031 0 -2.214844 0.859375 -2.445313 2 h -2.179687 c -0.230469 -1.140625 -1.238281 -2 -2.445313 -2 c -0.953124 0 -1.785156 0.535156 -2.203124 1.324219 c -0.15625 -0.136719 -0.253907 -0.335938 -0.253907 -0.566407 v -1.648437 c 0.007813 -0.046875 0.011719 -0.09375 0.011719 -0.140625 v -2.671875 c 0.039062 -0.175781 0.179688 -0.289063 0.371094 -0.289063 z m 2.074218 5.992188 c 0.28125 0 0.492188 0.210938 0.492188 0.496094 c 0 0.28125 -0.210938 0.492187 -0.492188 0.492187 c -0.285156 0 -0.496093 -0.210937 -0.496093 -0.492187 c 0 -0.285156 0.210937 -0.496094 0.496093 -0.496094 z m 7.070313 0 c 0.285156 0 0.492187 0.210938 0.492187 0.496094 c 0 0.28125 -0.207031 0.492187 -0.492187 0.492187 s -0.496094 -0.210937 -0.496094 -0.492187 c 0 -0.285156 0.210938 -0.496094 0.496094 -0.496094 z m 0 0" fill="#222222"/>
</svg>
