<?xml version="1.0" encoding="UTF-8"?>
<svg height="16px" viewBox="0 0 16 16" width="16px" xmlns="http://www.w3.org/2000/svg">
    <g fill="#222222">
        <path d="m 10.632812 2.238281 c -0.257812 -0.007812 -0.519531 0.015625 -0.785156 0.074219 l -4.082031 0.925781 c -2.15625 0.488281 -3.792969 2.265625 -3.792969 4.480469 v 3.484375 c 0 1.125 1.042969 2.007813 2.148438 1.824219 l 8.027344 -1.582032 c 1.046874 -0.175781 1.824218 -1.09375 1.824218 -2.152343 v -3.484375 c 0 -1.898438 -1.539062 -3.519532 -3.339844 -3.570313 z m -0.105468 2.011719 c 0.796875 0.015625 1.445312 0.707031 1.445312 1.558594 v 1.109375 l -8 1.667969 v -0.867188 c 0 -1.25 0.902344 -2.230469 2.121094 -2.507812 l 4.082031 -0.921876 c 0.117188 -0.027343 0.234375 -0.039062 0.351563 -0.039062 z m 1.445312 3.292969 v 1.75 c 0 0.09375 -0.058594 0.164062 -0.152344 0.179687 l -7.847656 1.550782 v -1.804688 z m 0 0"/>
        <path d="m 0 14.957031 v 1.042969 h 16 v -4 z m 0 0"/>
    </g>
</svg>
