<?xml version="1.0" encoding="UTF-8"?>
<svg height="16px" viewBox="0 0 16 16" width="16px" xmlns="http://www.w3.org/2000/svg">
    <path d="m 8.925781 1 c -0.183593 0.015625 -0.359375 0.078125 -0.507812 0.1875 l -1.636719 1.167969 c -0.375 -0.226563 -0.8125 -0.355469 -1.28125 -0.355469 c -1.375 0 -2.5 1.125 -2.5 2.5 c 0 0.175781 0.019531 0.351562 0.054688 0.515625 l -1.636719 1.171875 c -0.261719 0.1875 -0.417969 0.488281 -0.417969 0.8125 v 7 c 0 0.550781 0.449219 1 1 1 h 12 c 0.550781 0 1 -0.449219 1 -1 v -7 c 0 -0.066406 -0.007812 -0.132812 -0.019531 -0.195312 c -0.582031 -2.902344 -2.882813 -5.203126 -5.785157 -5.785157 c -0.089843 -0.019531 -0.179687 -0.023437 -0.269531 -0.019531 z m -3.425781 2 c 0.835938 0 1.5 0.664062 1.5 1.5 s -0.664062 1.5 -1.5 1.5 s -1.5 -0.664062 -1.5 -1.5 s 0.664062 -1.5 1.5 -1.5 z m 3.613281 0.148438 c 1.921875 0.527343 3.476563 2.050781 3.886719 4.007812 v 5.84375 h -10 v -1 h 7.5 c 0.277344 0 0.5 -0.222656 0.5 -0.5 s -0.222656 -0.5 -0.5 -0.5 h -7.5 v -1 h 7.5 c 0.277344 0 0.5 -0.222656 0.5 -0.5 s -0.222656 -0.5 -0.5 -0.5 h -7.5 v -1.484375 l 1.21875 -0.871094 c 0.375 0.226563 0.8125 0.355469 1.28125 0.355469 c 1.375 0 2.5 -1.125 2.5 -2.5 c 0 -0.175781 -0.019531 -0.351562 -0.054688 -0.515625 z m 0 0" fill="#222222"/>
</svg>
