<?xml version="1.0" encoding="UTF-8"?>
<svg height="16px" viewBox="0 0 16 16" width="16px" xmlns="http://www.w3.org/2000/svg">
    <path d="m 8.003906 1 c -1.640625 0 -2.996094 1.355469 -2.996094 2.996094 v 0.019531 c 0 0.550781 0.449219 1 1 1 c 0.554688 0 1 -0.449219 1 -1 v -0.019531 c 0 -0.5625 0.433594 -0.996094 0.996094 -0.996094 s 0.996094 0.433594 0.996094 0.996094 v 0.007812 c 0 0.5625 -0.433594 0.996094 -0.996094 0.996094 h -0.003906 c -0.550781 0 -1 0.449219 -1 1 v 0.484375 l -6.582031 4.703125 c -0.355469 0.25 -0.5039065 0.703125 -0.371094 1.117188 c 0.132813 0.414062 0.519531 0.695312 0.953125 0.695312 h 14 c 0.433594 0 0.820312 -0.28125 0.953125 -0.695312 c 0.132813 -0.414063 -0.015625 -0.867188 -0.371094 -1.117188 l -6.492187 -4.636719 c 1.0625 -0.457031 1.910156 -1.324219 1.910156 -2.546875 v -0.007812 c 0 -1.640625 -1.355469 -2.996094 -2.996094 -2.996094 z m -0.003906 7.230469 l 3.878906 2.769531 h -7.757812 z m 0 0" fill="#222222"/>
</svg>
