<?xml version="1.0" encoding="UTF-8"?>
<svg height="16px" viewBox="0 0 16 16" width="16px" xmlns="http://www.w3.org/2000/svg">
    <path d="m 8.035156 0.996094 c -0.035156 0 -0.070312 0 -0.105468 0.003906 c -0.515626 0.042969 -0.914063 0.472656 -0.914063 0.992188 l -0.007813 1.007812 h -1.988281 l 0.015625 -0.980469 c 0.003906 -0.285156 -0.109375 -0.554687 -0.3125 -0.746093 c -0.203125 -0.195313 -0.480468 -0.292969 -0.761718 -0.273438 c -0.515626 0.039062 -0.917969 0.464844 -0.925782 0.980469 l -0.023437 1.28125 c -1.183594 0.503906 -2.011719 1.671875 -2.011719 3.046875 v 4.386718 c 0 1.375 0.832031 2.546876 2.019531 3.046876 v 1.257812 c 0 0.550781 0.449219 1 1 1 c 0.554688 0 1 -0.449219 1 -1 v -1 h 1.980469 v 1 c 0 0.550781 0.449219 1 1 1 s 1 -0.449219 1 -1 v -1 h 2 v 1 c 0 0.550781 0.449219 1 1 1 s 1 -0.449219 1 -1 v -1.269531 c 1.179688 -0.503907 2 -1.671875 2 -3.035157 v -4.386718 c 0 -1.367188 -0.820312 -2.53125 -1.992188 -3.039063 l 0.007813 -1.261719 c 0 -0.28125 -0.113281 -0.550781 -0.320313 -0.742187 c -0.207031 -0.195313 -0.484374 -0.289063 -0.765624 -0.265625 c -0.515626 0.042969 -0.914063 0.472656 -0.914063 0.992188 l -0.007813 1.007812 h -2 l 0.007813 -0.992188 c 0.003906 -0.550781 -0.433594 -1 -0.980469 -1.011718 z m -3.726562 4.003906 h 7.386718 c 0.722657 0 1.304688 0.582031 1.304688 1.308594 v 3.691406 c 0 0.484375 -0.40625 1 -1 1 h -7.980469 c -0.550781 0 -1.019531 -0.453125 -1.019531 -1 v -3.691406 c 0 -0.726563 0.582031 -1.308594 1.308594 -1.308594 z m 0 0" fill="#222222"/>
</svg>
