<?xml version="1.0" encoding="UTF-8"?>
<svg height="16px" viewBox="0 0 16 16" width="16px" xmlns="http://www.w3.org/2000/svg">
    <g fill="#222222">
        <path d="m 3.5 0.0117188 c -1.921875 0 -3.5 1.5781252 -3.5 3.4960932 v 9.003907 c 0 1.921875 1.578125 3.5 3.5 3.5 h 9.003906 c 1.917969 0 3.496094 -1.578125 3.496094 -3.5 v -9.003907 c 0 -1.917968 -1.578125 -3.4960932 -3.496094 -3.4960932 z m 0 2.0000002 h 7.871094 c -0.238282 0.359375 -0.375 0.785156 -0.375 1.246093 v 9.507813 c 0 0.460937 0.136718 0.886719 0.375 1.246094 h -7.871094 c -0.847656 0 -1.5 -0.652344 -1.5 -1.5 v -9.003907 c 0 -0.84375 0.652344 -1.496093 1.5 -1.496093 z m 9.371094 0.042969 c 0.660156 0.15625 1.128906 0.734374 1.128906 1.453124 v 9.003907 c 0 0.71875 -0.46875 1.300781 -1.128906 1.457031 c -0.515625 -0.160156 -0.875 -0.632812 -0.875 -1.203125 v -9.507813 c 0 -0.570312 0.359375 -1.042968 0.875 -1.203124 z m 0 0"/>
        <path d="m 3.5 3.011719 c 0.277344 0 0.5 0.222656 0.5 0.5 v 9 c 0 0.277343 -0.222656 0.5 -0.5 0.5 s -0.5 -0.222657 -0.5 -0.5 v -9 c 0 -0.277344 0.222656 -0.5 0.5 -0.5 z m 0 0"/>
        <path d="m 5.5 3.011719 c 0.277344 0 0.5 0.222656 0.5 0.5 v 9 c 0 0.277343 -0.222656 0.5 -0.5 0.5 s -0.5 -0.222657 -0.5 -0.5 v -9 c 0 -0.277344 0.222656 -0.5 0.5 -0.5 z m 0 0"/>
        <path d="m 7.5 3.011719 c 0.277344 0 0.5 0.222656 0.5 0.5 v 9 c 0 0.277343 -0.222656 0.5 -0.5 0.5 s -0.5 -0.222657 -0.5 -0.5 v -9 c 0 -0.277344 0.222656 -0.5 0.5 -0.5 z m 0 0"/>
        <path d="m 9.5 3.011719 c 0.277344 0 0.5 0.222656 0.5 0.5 v 9 c 0 0.277343 -0.222656 0.5 -0.5 0.5 s -0.5 -0.222657 -0.5 -0.5 v -9 c 0 -0.277344 0.222656 -0.5 0.5 -0.5 z m 0 0"/>
    </g>
</svg>
