<?xml version="1.0" encoding="UTF-8"?>
<svg height="16px" viewBox="0 0 16 16" width="16px" xmlns="http://www.w3.org/2000/svg">
    <g fill="#222222">
        <path d="m 3.488281 0 c -1.917969 0 -3.4999998 1.578125 -3.4999998 3.5 v 9 c 0 1.921875 1.5820308 3.5 3.4999998 3.5 h 9.003907 c 1.921874 0 3.496093 -1.578125 3.496093 -3.5 v -9 c 0 -1.921875 -1.574219 -3.5 -3.496093 -3.5 z m 0 2 h 9.003907 c 0.847656 0 1.496093 0.652344 1.496093 1.5 v 3.847656 c -0.355469 -0.234375 -0.785156 -0.375 -1.242187 -0.375 h -9.507813 c -0.460937 0 -0.890625 0.140625 -1.25 0.375 v -3.847656 c 0 -0.847656 0.65625 -1.5 1.5 -1.5 z m -0.25 5.972656 h 9.507813 c 0.636718 0 1.148437 0.449219 1.242187 1.058594 v 3.46875 c 0 0.847656 -0.648437 1.5 -1.496093 1.5 h -9.003907 c -0.84375 0 -1.5 -0.652344 -1.5 -1.5 v -3.46875 c 0.097657 -0.609375 0.609375 -1.058594 1.25 -1.058594 z m 0 0"/>
        <path d="m 12.988281 3.5 c 0 0.277344 -0.222656 0.5 -0.5 0.5 h -9 c -0.273437 0 -0.5 -0.222656 -0.5 -0.5 s 0.226563 -0.5 0.5 -0.5 h 9 c 0.277344 0 0.5 0.222656 0.5 0.5 z m 0 0"/>
        <path d="m 12.988281 5.5 c 0 0.277344 -0.222656 0.5 -0.5 0.5 h -9 c -0.273437 0 -0.5 -0.222656 -0.5 -0.5 s 0.226563 -0.5 0.5 -0.5 h 9 c 0.277344 0 0.5 0.222656 0.5 0.5 z m 0 0"/>
        <path d="m 12 10.011719 h 1 v 1 h -1 z m -2 0 h 1 v 1 h -1 z m -2 0 h 1 v 1 h -1 z m -4 0 h 1 v 1 h -1 z m 2 0 h 1 v 1 h -1 z m 0 0" fill-opacity="0.501961"/>
        <path d="m 11.042969 10.992188 h 1 v 1 h -1 z m -2 0 h 1 v 1 h -1 z m -2 0 h 1 v 1 h -1 z m -2 0 h 1 v 1 h -1 z m -2 0 h 1 v 1 h -1 z m 0 0" fill-opacity="0.298039"/>
        <path d="m 11 9.011719 h 1 v 1 h -1 z m -2 0 h 1 v 1 h -1 z m -2 0 h 1 v 1 h -1 z m -2 0 h 1 v 1 h -1 z m -2 0 h 1 v 1 h -1 z m 0 0"/>
    </g>
</svg>
