<?xml version="1.0" encoding="UTF-8"?>
<svg height="16px" viewBox="0 0 16 16" width="16px" xmlns="http://www.w3.org/2000/svg">
    <g fill="#222222">
        <path d="m 3.5 0.0117188 c -1.921875 0 -3.5 1.5781252 -3.5 3.4960932 v 9.003907 c 0 1.921875 1.578125 3.5 3.5 3.5 h 9.003906 c 1.917969 0 3.496094 -1.578125 3.496094 -3.5 v -9.003907 c 0 -1.917968 -1.578125 -3.4960932 -3.496094 -3.4960932 z m 0 2.0000002 h 3.847656 c -0.238281 0.359375 -0.375 0.785156 -0.375 1.246093 v 9.507813 c 0 0.460937 0.136719 0.886719 0.375 1.246094 h -3.847656 c -0.847656 0 -1.5 -0.652344 -1.5 -1.5 v -9.003907 c 0 -0.84375 0.652344 -1.496093 1.5 -1.496093 z m 5.53125 0 h 3.472656 c 0.84375 0 1.496094 0.652343 1.496094 1.496093 v 9.003907 c 0 0.847656 -0.652344 1.5 -1.496094 1.5 h -3.472656 c -0.609375 -0.09375 -1.058594 -0.609375 -1.058594 -1.246094 v -9.507813 c 0 -0.636718 0.449219 -1.152343 1.058594 -1.246093 z m 0 0"/>
        <path d="m 3.5 3.011719 c 0.277344 0 0.5 0.222656 0.5 0.5 v 9 c 0 0.277343 -0.222656 0.5 -0.5 0.5 s -0.5 -0.222657 -0.5 -0.5 v -9 c 0 -0.277344 0.222656 -0.5 0.5 -0.5 z m 0 0"/>
        <path d="m 5.5 3.011719 c 0.277344 0 0.5 0.222656 0.5 0.5 v 9 c 0 0.277343 -0.222656 0.5 -0.5 0.5 s -0.5 -0.222657 -0.5 -0.5 v -9 c 0 -0.277344 0.222656 -0.5 0.5 -0.5 z m 0 0"/>
        <path d="m 9 8.011719 h 1 c 1.105469 0 2 0.894531 2 2 v 3 h -3 z m 0 0"/>
    </g>
</svg>
