<?xml version="1.0" encoding="UTF-8"?>
<svg height="16px" viewBox="0 0 16 16" width="16px" xmlns="http://www.w3.org/2000/svg">
    <g fill="#222222">
        <path d="m 15.015625 0.996094 v 1 h -1 v -1 z m 0 1 h 1 v 1 h -1 z m -2 -1 v 1 h -1 v -1 z m -2 0 v 1 h -1 v -1 z m -2 0 v 1 h -1 v -1 z m -2 0 v 1 h -1 v -1 z m -2 0 v 1 h -1 v -1 z m -2 0 v 1 h -1 v -1 z m -2 0 v 1 h -1 v -0.5 c 0 -0.277344 0.222656 -0.5 0.5 -0.5 z m 0 2 v 1 h -1 v -1 z m 15 1 v 1 h -1 v -1 z m -15 1 v 1 h -1 v -1 z m 15 1 v 1 h -1 v -1 z m -15 1 v 1 h -1 v -1 z m 15 1 v 1 h -1 v -1 z m -15 1 v 1 h -1 v -1 z m 15 1 v 1 h -1 v -1 z m -15 1 v 1 h -1 v -1 z m 15 1 v 1 h -1 v -1 z m -15 1 v 1 h -1 v -1 z m 0 1 h 1 v 1 h -1 z m 15 0 v 0.5 c 0 0.277344 -0.222656 0.5 -0.5 0.5 h -0.5 v -1 z m -2 0 v 1 h -1 v -1 z m -2 0 v 1 h -1 v -1 z m -2 0 v 1 h -1 v -1 z m -2 0 v 1 h -1 v -1 z m -2 0 v 1 h -1 v -1 z m -2 0 v 1 h -1 v -1 z m 0 0"/>
        <path d="m 3.015625 2.996094 c -0.554687 0 -1 0.445312 -1 1 v 8 c 0 0.554687 0.445313 1 1 1 h 10 c 0.554687 0 1 -0.445313 1 -1 v -8 c 0 -0.554688 -0.445313 -1 -1 -1 z m 0 2 h 10 v 7 h -10 z m 0 0"/>
        <path d="m 4.507812 5.988281 c -0.203124 0.003907 -0.386718 0.125 -0.460937 0.316407 c -0.078125 0.1875 -0.03125 0.402343 0.113281 0.546874 l 1.648438 1.644532 l -1.648438 1.644531 c -0.128906 0.128906 -0.179687 0.3125 -0.136718 0.488281 c 0.046874 0.175782 0.183593 0.3125 0.359374 0.359375 c 0.175782 0.042969 0.359376 -0.007812 0.488282 -0.136719 l 2 -2 c 0.191406 -0.195312 0.191406 -0.515624 0 -0.710937 l -2 -2 c -0.097656 -0.09375 -0.226563 -0.152344 -0.363282 -0.152344 z m 0 0"/>
    </g>
</svg>
