<?xml version="1.0" encoding="UTF-8"?>
<svg height="16px" viewBox="0 0 16 16" width="16px" xmlns="http://www.w3.org/2000/svg">
    <g fill="#222222">
        <path d="m 8.019531 4.996094 c -0.554687 0 -1 0.449218 -1 1 v 3 c 0 0.554687 0.445313 1 1 1 h 2 c 0.550781 0 1 -0.445313 1 -1 c 0 -0.550782 -0.449219 -1 -1 -1 h -1 v -2 c 0 -0.550782 -0.449219 -1 -1 -1 z m 0 0"/>
        <path d="m 8.015625 -0.00390625 c -4.140625 0 -7.609375 3.17968725 -7.96875 7.30078125 c -0.359375 4.125 2.503906 7.859375 6.578125 8.578125 c 4.078125 0.71875 8.046875 -1.808594 9.117188 -5.808594 l -1.933594 -0.519531 c -0.804688 3.015625 -3.761719 4.898437 -6.835938 4.355469 c -3.070312 -0.539063 -5.207031 -3.320313 -4.933594 -6.429688 c 0.273438 -3.109375 2.855469 -5.476562 5.976563 -5.476562 z m 0 0"/>
        <path d="m 10.085938 0.269531 l -0.519532 1.933594 c 1.019532 0.269531 1.945313 0.804687 2.691406 1.550781 l 1.414063 -1.414062 c -0.992187 -0.992188 -2.230469 -1.707032 -3.585937 -2.070313 z m 0 0"/>
        <path d="m 14.941406 3.996094 l -1.730468 1 c 0.527343 0.914062 0.804687 1.945312 0.804687 3 h 2 c 0 -1.402344 -0.371094 -2.785156 -1.074219 -4 z m 0 0"/>
    </g>
</svg>
