<?xml version="1.0" encoding="UTF-8"?>
<svg height="16px" viewBox="0 0 16 16" width="16px" xmlns="http://www.w3.org/2000/svg">
    <path d="m 2 0 c -1.109375 0 -2 0.890625 -2 2 v 2 c 0 1.109375 0.890625 2 2 2 h 5 v 2.019531 l -3.238281 0.003907 c -0.972657 0.003906 -1.753907 0.789062 -1.753907 1.757812 l -0.003906 1.269531 c -1.144531 0.230469 -2.003906 1.238281 -2.003906 2.449219 c 0 1.378906 1.121094 2.5 2.5 2.5 s 2.5 -1.121094 2.5 -2.5 c 0 -1.207031 -0.859375 -2.214844 -1.996094 -2.449219 l 0.003906 -1.269531 c 0 -0.421875 0.332032 -0.753906 0.753907 -0.757812 l 3.238281 -0.003907 v 2.03125 c -1.140625 0.230469 -2 1.242188 -2 2.449219 c 0 1.378906 1.121094 2.5 2.5 2.5 s 2.5 -1.121094 2.5 -2.5 c 0 -1.207031 -0.859375 -2.21875 -2 -2.449219 v -2.039062 l 3.25 -0.003907 c 0.417969 -0.003906 0.75 0.328126 0.75 0.75 v 1.292969 c -1.140625 0.230469 -2 1.242188 -2 2.449219 c 0 1.378906 1.121094 2.5 2.5 2.5 s 2.5 -1.121094 2.5 -2.5 c 0 -1.207031 -0.859375 -2.21875 -2 -2.449219 v -1.292969 c 0 -0.972656 -0.785156 -1.753906 -1.753906 -1.75 l -3.246094 0.003907 v -2.011719 h 5 c 1.109375 0 2 -0.890625 2 -2 v -2 c 0 -1.109375 -0.890625 -2 -2 -2 z m 0 2 h 11 v 2 h -11 z m 0.5 11 c 0.289062 0 0.5 0.210938 0.5 0.5 s -0.210938 0.5 -0.5 0.5 s -0.5 -0.210938 -0.5 -0.5 s 0.210938 -0.5 0.5 -0.5 z m 5 0 c 0.289062 0 0.5 0.210938 0.5 0.5 s -0.210938 0.5 -0.5 0.5 s -0.5 -0.210938 -0.5 -0.5 s 0.210938 -0.5 0.5 -0.5 z m 5 0 c 0.289062 0 0.5 0.210938 0.5 0.5 s -0.210938 0.5 -0.5 0.5 s -0.5 -0.210938 -0.5 -0.5 s 0.210938 -0.5 0.5 -0.5 z m 0 0" fill="#222222"/>
</svg>
