<?xml version="1.0" encoding="UTF-8"?>
<svg height="16px" viewBox="0 0 16 16" width="16px" xmlns="http://www.w3.org/2000/svg">
    <path d="m 5 0 c -1.65625 0 -3 1.34375 -3 3 v 3 h -0.941406 v 1 c 0 0.71875 0.378906 1.351562 0.949218 1.703125 c 0.101563 1.285156 1.179688 2.296875 2.492188 2.296875 h 7.976562 c 0.570313 0 1.023438 0.453125 1.023438 1.015625 c -0.007812 0.558594 -0.457031 0.992187 -1.023438 0.984375 h -9.976562 c -0.832031 0 -1.5 0.667969 -1.5 1.5 s 0.667969 1.5 1.5 1.5 h 4 c 0.832031 0 1.5 -0.667969 1.5 -1.5 c 0 -0.175781 -0.027344 -0.34375 -0.085938 -0.5 h 4.554688 c 1.101562 0.015625 2.015625 -0.867188 2.03125 -1.976562 c 0 -1.117188 -0.90625 -2.023438 -2.023438 -2.023438 h -7.976562 c -0.660156 0 -1.210938 -0.414062 -1.414062 -1 h 9.933593 c 1.105469 0 2 -0.894531 2 -2 v -1 h -1.019531 v -3 c 0 -1.65625 -1.34375 -3 -3 -3 z m 0 2 h 6 c 0.5625 0 1 0.4375 1 1 v 3 h -8 v -3 c 0 -0.5625 0.4375 -1 1 -1 z m 0 0" fill="#222222"/>
</svg>
