<?xml version="1.0" encoding="UTF-8"?>
<svg height="16px" viewBox="0 0 16 16" width="16px" xmlns="http://www.w3.org/2000/svg">
    <path d="m 2.003906 -0.0078125 v 1.9218745 c 0.003906 3.5625 2.617188 6.523438 5.996094 7.019532 v 3.066406 c 0 1.117188 -0.882812 2 -2 2 c -0.519531 0 -0.988281 -0.191406 -1.339844 -0.507812 c 0.804688 -0.539063 1.339844 -1.457032 1.339844 -2.492188 c 0 -1.644531 -1.355469 -3 -3 -3 s -3 1.355469 -3 3 c 0 1.480469 1.097656 2.726562 2.515625 2.960938 c 0.691406 1.214843 1.996094 2.039062 3.484375 2.039062 c 2.199219 0 4 -1.800781 4 -4 v -3.0625 c 3.378906 -0.496094 5.992188 -3.460938 5.992188 -7.023438 v -1.9218745 h -3.292969 c -0.546875 0 -0.992188 0.4531245 -0.992188 1.0078125 s 0.445313 1.007812 0.992188 1.007812 h 1.289062 c -0.050781 2.769532 -2.242187 4.984376 -4.988281 4.984376 s -4.9375 -2.214844 -4.992188 -4.984376 h 1.289063 c 0.550781 0 0.996094 -0.453124 0.992187 -1.007812 c 0.003907 -0.554688 -0.441406 -1.0078125 -0.992187 -1.0078125 z m 0.996094 10.0078125 c 0.5625 0 1 0.4375 1 1 s -0.4375 1 -1 1 s -1 -0.4375 -1 -1 s 0.4375 -1 1 -1 z m 0 0" fill="#222222"/>
</svg>
