<?xml version="1.0" encoding="UTF-8"?>
<svg height="16px" viewBox="0 0 16 16" width="16px" xmlns="http://www.w3.org/2000/svg">
    <g fill="#222222">
        <path d="m 1 3 c -0.085938 0 -0.175781 0.011719 -0.257812 0.03125 c -0.257813 0.070312 -0.476563 0.238281 -0.609376 0.46875 c -0.132812 0.230469 -0.1679682 0.503906 -0.0976558 0.757812 l 2.9453128 11.003907 c 0.121093 0.433593 0.515625 0.738281 0.964843 0.738281 h 8.054688 c 0.453125 0 0.847656 -0.304688 0.96875 -0.738281 l 2.945312 -11.003907 c 0.070313 -0.253906 0.035157 -0.527343 -0.097656 -0.757812 c -0.132812 -0.230469 -0.351562 -0.398438 -0.609375 -0.46875 c -0.535156 -0.140625 -1.082031 0.175781 -1.222656 0.710938 l -1.144531 4.257812 h -9.734375 l -1.140625 -4.257812 c -0.113282 -0.441407 -0.511719 -0.746094 -0.964844 -0.742188 z m 2.375 6 h 9.199219 l -1.339844 5 h -6.519531 z m 0 0"/>
        <path d="m 7.546875 0.203125 c -1.3125 1.355469 -2.265625 2.949219 -2.265625 3.964844 c 0 1.78125 1.117188 2.832031 2.71875 2.832031 s 2.71875 -1.046875 2.71875 -2.832031 c 0 -1.050781 -0.886719 -2.585938 -2.265625 -3.964844 c -0.453125 -0.453125 -0.90625 0 -0.90625 0 z m 0 0"/>
    </g>
</svg>
