<?xml version="1.0" encoding="UTF-8"?>
<svg height="16px" viewBox="0 0 16 16" width="16px" xmlns="http://www.w3.org/2000/svg">
    <path d="m 7.5 0.00390625 c -0.546875 0 -0.894531 0.09374995 -1.507812 0.40624975 c -2.03125 1.03125 -4.023438 3.871094 -4.722657 6.71875 c -0.402343 1.644532 -0.351562 3.382813 0.136719 4.804688 c 0.789062 2.304687 2.53125 3.796875 4.800781 4.039062 c 0.675781 0.050782 2.085938 0.039063 2.554688 -0.042968 c 0.910156 -0.152344 1.808593 -0.496094 2.539062 -0.972657 c 0.476563 -0.304687 1.203125 -1.015625 1.515625 -1.476562 c 0.480469 -0.707031 0.84375 -1.582031 1.011719 -2.4375 c 0.234375 -1.179688 0.226563 -2.308594 -0.019531 -3.523438 c -0.605469 -2.972656 -2.671875 -6.023437 -4.804688 -7.113281 c -0.613281 -0.3085938 -0.960937 -0.40234375 -1.503906 -0.40234375 z m -0.203125 1.99218775 c 0.035156 0 0.082031 0.007812 0.203125 0.007812 c 0.316406 0 0.113281 -0.058594 0.59375 0.1875 c 1.253906 0.636719 3.273438 3.363282 3.753906 5.730469 c 0.203125 0.980469 0.203125 1.796875 0.019532 2.738281 c -0.925782 2.347656 -1.949219 3.691406 -5.457032 3.320313 c -1.511718 -0.167969 -2.53125 -1 -3.113281 -2.695313 c -0.339844 -0.988281 -0.398437 -2.386718 -0.082031 -3.679687 c 0.558594 -2.292969 2.503906 -4.8125 3.6875 -5.414063 c 0.300781 -0.152344 0.332031 -0.1875 0.394531 -0.191406 z m 0 0" fill="#222222"/>
</svg>
