<?xml version="1.0" encoding="UTF-8"?>
<svg height="16px" viewBox="0 0 16 16" width="16px" xmlns="http://www.w3.org/2000/svg">
    <g fill="#222222">
        <path d="m 9 1 c -1.734375 0 -3.296875 0.734375 -4.390625 1.910156 l -3.945313 3.695313 c -1.097656 1.027343 -0.84375 2.824219 0.492188 3.507812 l 1.84375 0.945313 v 0.941406 h -2 c -0.550781 0 -1 0.449219 -1 1 s 0.449219 1 1 1 h 5.167969 c 0.414062 1.164062 1.523437 2 2.832031 2 s 2.417969 -0.835938 2.828125 -2 h 3.171875 v -2 h -3.171875 c -0.410156 -1.164062 -1.519531 -2 -2.828125 -2 s -2.417969 0.835938 -2.832031 2 h -1.167969 v -5 c 0 -2.222656 1.777344 -4 4 -4 h 6 v -2 z m -5.847656 4.644531 c -0.097656 0.4375 -0.152344 0.890625 -0.152344 1.355469 v 2.933594 l -1.386719 -0.707032 c -0.367187 -0.1875 -0.574219 -0.515624 -0.625 -0.878906 c -0.046875 -0.359375 0.058594 -0.730468 0.359375 -1.011718 z m 5.847656 6.355469 c 0.5625 0 1 0.4375 1 1 s -0.4375 1 -1 1 s -1 -0.4375 -1 -1 s 0.4375 -1 1 -1 z m 0 0"/>
        <path d="m 9.4375 9 h -1.355469 c -0.179687 0 -0.347656 -0.097656 -0.433593 -0.253906 c -0.089844 -0.160156 -0.085938 -0.351563 0.007812 -0.507813 l 1.195312 -1.957031 l 0.855469 0.523438 l -1.195312 1.957031 l -0.429688 -0.761719 h 1.355469 z m 3.304688 -1.996094 l 0.765624 1.230469 c 0.097657 0.15625 0.101563 0.351563 0.011719 0.507813 c -0.085937 0.160156 -0.253906 0.257812 -0.4375 0.257812 h -2.632812 v -1 h 2.632812 l -0.421875 0.765625 l -0.769531 -1.234375 z m -3.304688 -1.6875 l 0.644531 -1.074218 c 0.085938 -0.144532 0.246094 -0.238282 0.414063 -0.242188 c 0.171875 -0.003906 0.332031 0.078125 0.429687 0.222656 l 1.273438 1.886719 l -0.828125 0.558594 l -1.273438 -1.886719 l 0.84375 -0.023438 l -0.644531 1.074219 z m 0 0"/>
    </g>
</svg>
