<?xml version="1.0" encoding="UTF-8"?>
<svg height="16px" viewBox="0 0 16 16" width="16px" xmlns="http://www.w3.org/2000/svg">
    <g fill="#222222">
        <path d="m 10.421875 0.015625 c -1.0625 -0.0273438 -2.105469 0.511719 -2.675781 1.5 l -3.96875 6.875 l 0.007812 0.003906 l -0.019531 0.03125 l 7.796875 4.5 l 0.015625 -0.03125 l 0.046875 0.027344 l 3.96875 -6.875 c 0.828125 -1.4375 0.339844 -3.269531 -1.097656 -4.097656 l -2.652344 -1.53125 c -0.449219 -0.257813 -0.9375 -0.3906252 -1.421875 -0.402344 z m -0.152344 1.996094 c 0.191407 -0.011719 0.390625 0.03125 0.574219 0.140625 l 2.652344 1.527344 c 0.488281 0.285156 0.648437 0.878906 0.363281 1.367187 l -3.484375 6.042969 l -4.386719 -2.535156 l 3.488281 -6.039063 c 0.175782 -0.304687 0.476563 -0.484375 0.792969 -0.503906 z m 0 0"/>
        <path d="m 8.679688 7.796875 l 2 -3.460937 c 0.089843 -0.15625 0.089843 -0.347657 0 -0.503907 c -0.089844 -0.152343 -0.253907 -0.25 -0.433594 -0.25 c -0.179688 0 -0.34375 0.097657 -0.433594 0.253907 l -2 3.460937 c -0.089844 0.15625 -0.089844 0.347656 0 0.503906 c 0.085938 0.152344 0.253906 0.25 0.433594 0.25 c 0.175781 0 0.34375 -0.097656 0.433594 -0.253906 z m 0 0"/>
        <path d="m 10.464844 8.832031 l 2 -3.464843 c 0.089844 -0.15625 0.089844 -0.347657 0 -0.503907 c -0.089844 -0.152343 -0.253906 -0.25 -0.433594 -0.25 s -0.34375 0.097657 -0.433594 0.253907 l -2 3.464843 c -0.089844 0.152344 -0.089844 0.34375 0 0.5 c 0.089844 0.152344 0.253906 0.25 0.433594 0.25 s 0.34375 -0.097656 0.433594 -0.25 z m 0 0"/>
        <path d="m 4 11 c 0.550781 0 1 0.449219 1 1 s -0.449219 1 -1 1 s -1 -0.449219 -1 -1 s 0.449219 -1 1 -1 z m 0 0"/>
        <path d="m 5.5 13 c 0.828125 0 1.5 0.671875 1.5 1.5 s -0.671875 1.5 -1.5 1.5 s -1.5 -0.671875 -1.5 -1.5 s 0.671875 -1.5 1.5 -1.5 z m 0 0"/>
        <path d="m 8 12 c 0.550781 0 1 0.449219 1 1 s -0.449219 1 -1 1 s -1 -0.449219 -1 -1 s 0.449219 -1 1 -1 z m 0 0"/>
        <path d="m 2.5 0 c -0.277344 0 -0.5 0.222656 -0.5 0.5 v 2.5 h -1 c -0.550781 0 -1 0.449219 -1 1 v 2 c 0 0.550781 0.449219 1 1 1 h 1 v 2.5 c 0 0.277344 0.222656 0.5 0.5 0.5 s 0.5 -0.222656 0.5 -0.5 v -9 c 0 -0.277344 -0.222656 -0.5 -0.5 -0.5 z m -1.128906 4 h 0.628906 v 2 h -0.582031 c -0.230469 0 -0.417969 -0.1875 -0.417969 -0.417969 v -1.210937 c 0 -0.097656 0.039062 -0.191406 0.109375 -0.261719 s 0.164063 -0.109375 0.261719 -0.109375 z m 0 0"/>
    </g>
</svg>
