<?xml version="1.0" encoding="UTF-8"?>
<svg height="16px" viewBox="0 0 16 16" width="16px" xmlns="http://www.w3.org/2000/svg">
    <g fill="#222222">
        <path d="m 7.996094 4 c -3.3125 0 -6 2.683594 -6 6 s 2.6875 6 6 6 c 3.316406 0 6 -2.683594 6 -6 s -2.683594 -6 -6 -6 z m 0 2 c 2.222656 0 4 1.777344 4 4 s -1.777344 4 -4 4 c -2.21875 0 -4 -1.777344 -4 -4 c 0 -1.164062 0.492187 -2.207031 1.277344 -2.9375 l 2.207031 3.269531 c 0.15625 0.230469 0.464843 0.289063 0.695312 0.132813 c 0.226563 -0.152344 0.289063 -0.464844 0.132813 -0.695313 l -2.222656 -3.289062 c 0.566406 -0.308594 1.21875 -0.480469 1.910156 -0.480469 z m 0 0"/>
        <path d="m 2 4.984375 c 0 0.542969 -0.441406 0.984375 -0.984375 0.984375 c -0.546875 0 -0.984375 -0.441406 -0.984375 -0.984375 s 0.4375 -0.984375 0.984375 -0.984375 c 0.542969 0 0.984375 0.441406 0.984375 0.984375 z m 0 0"/>
        <path d="m 6 1.015625 c 0 0.542969 -0.441406 0.984375 -0.984375 0.984375 c -0.546875 0 -0.984375 -0.441406 -0.984375 -0.984375 s 0.4375 -0.984375 0.984375 -0.984375 c 0.542969 0 0.984375 0.441406 0.984375 0.984375 z m 0 0"/>
        <path d="m 12 1.015625 c 0 0.542969 -0.441406 0.984375 -0.984375 0.984375 c -0.546875 0 -0.984375 -0.441406 -0.984375 -0.984375 s 0.4375 -0.984375 0.984375 -0.984375 c 0.542969 0 0.984375 0.441406 0.984375 0.984375 z m 0 0"/>
        <path d="m 16 4.984375 c 0 0.542969 -0.441406 0.984375 -0.984375 0.984375 c -0.546875 0 -0.984375 -0.441406 -0.984375 -0.984375 s 0.4375 -0.984375 0.984375 -0.984375 c 0.542969 0 0.984375 0.441406 0.984375 0.984375 z m 0 0"/>
    </g>
</svg>
