<?xml version="1.0" encoding="UTF-8"?>
<svg height="16px" viewBox="0 0 16 16" width="16px" xmlns="http://www.w3.org/2000/svg">
    <g fill="#222222">
        <path d="m 8.613281 1.03125 c -0.511719 0 -1.027343 0.195312 -1.421875 0.589844 l -6.554687 6.554687 c -0.789063 0.789063 -0.789063 2.058594 0 2.847657 l 3.683593 3.683593 c 0.1875 0.1875 0.441407 0.292969 0.707032 0.292969 h 10.4375 c 0.277344 0 0.5 -0.222656 0.5 -0.5 s -0.222656 -0.5 -0.5 -0.5 h -4.390625 l 4.289062 -4.207031 c 0.789063 -0.789063 0.789063 -2.058594 0 -2.847657 l -5.320312 -5.320312 s 0 -0.003906 -0.003907 -0.003906 c -0.394531 -0.394532 -0.910156 -0.589844 -1.425781 -0.589844 z m 0 1.992188 c 0.003907 0.003906 0.003907 0.003906 0.003907 0 v 0.007812 h 0.003906 c 0.003906 0.003906 0.003906 0.003906 0.007812 0.007812 l 5.316406 5.316407 c 0.003907 0.003906 0.011719 0.007812 0.011719 0.007812 v 0.007813 l -3.472656 3.40625 l -5.320313 -5.300782 l 3.441407 -3.4375 c 0.003906 -0.003906 0.007812 -0.011718 0.007812 -0.011718 z m -4.15625 4.164062 l 5.3125 5.292969 l -0.53125 0.519531 h -3.796875 l -3.390625 -3.386719 c -0.003906 -0.007812 -0.007812 -0.011719 -0.011719 -0.011719 v -0.003906 c 0.003907 0 0.007813 -0.003906 0.011719 -0.007812 z m 0 0"/>
        <path d="m 4.457031 7.1875 l 5.3125 5.292969 l -0.53125 0.519531 h -3.796875 l -3.390625 -3.386719 c -0.003906 -0.007812 -0.007812 -0.011719 -0.011719 -0.011719 v -0.003906 h 0.003907 s 0.003906 -0.003906 0.007812 -0.007812 z m 0 0" fill-opacity="0.329412"/>
    </g>
</svg>
