<?xml version="1.0" encoding="UTF-8"?>
<svg height="16px" viewBox="0 0 16 16" width="16px" xmlns="http://www.w3.org/2000/svg">
    <path d="m 8.617188 1.03125 c -0.515626 0 -1.03125 0.195312 -1.425782 0.589844 l -6.554687 6.554687 c -0.789063 0.789063 -0.789063 2.058594 0 2.847657 l 3.683593 3.683593 c 0.1875 0.1875 0.441407 0.292969 0.707032 0.292969 h 4.621094 c 0.261718 0 0.511718 -0.105469 0.699218 -0.289062 l 5.015625 -4.917969 c 0.789063 -0.789063 0.789063 -2.058594 0 -2.847657 l -5.320312 -5.320312 v -0.003906 c -0.398438 -0.394532 -0.914063 -0.589844 -1.425781 -0.589844 z m 0 1.992188 c 0 0.003906 0 0.003906 0 0 c 0 0.003906 0 0.003906 0.003906 0.007812 h 0.003906 c 0 0.003906 0 0.003906 0.003906 0.007812 l 5.320313 5.316407 c 0 0.003906 0.007812 0.007812 0.011719 0.007812 v 0.003907 h -0.003907 v 0.003906 l -3.472656 3.40625 l -5.320313 -5.300782 l 3.441407 -3.4375 c 0.003906 -0.003906 0.007812 -0.011718 0.007812 -0.011718 z m -4.160157 4.164062 l 5.316407 5.292969 l -0.53125 0.519531 h -3.800782 l -3.390625 -3.386719 c -0.003906 -0.007812 -0.007812 -0.011719 -0.011719 -0.011719 l 0.003907 -0.003906 s 0.003906 -0.003906 0.007812 -0.007812 z m 0 0" fill="#222222"/>
</svg>
