<?xml version="1.0" encoding="UTF-8"?>
<svg height="16px" viewBox="0 0 16 16" width="16px" xmlns="http://www.w3.org/2000/svg">
    <path d="m 12.480469 0 c -0.273438 0.0078125 -0.488281 0.242188 -0.480469 0.519531 v 1.480469 h -1 v 1 c 0 1.105469 0.894531 2 2 2 v 1 c 0 0.464844 -0.324219 0.871094 -0.777344 0.976562 l -0.453125 -0.808593 c -0.765625 -1.378907 -2.214843 -2.226563 -3.789062 -2.226563 h -5.011719 c -1.644531 0 -2.9804688 1.332032 -2.9804688 2.976563 v 1.964843 c -0.0039062 0.046876 -0.0078124 0.09375 -0.0078124 0.140626 v 2.734374 c 0 0.082032 0.0039062 0.167969 0.0117187 0.25 c 0 0.046876 0.0078125 0.09375 0.015625 0.140626 c 0.1601565 1.128906 1.0117185 2.039062 2.1132815 2.28125 c 0.371094 0.914062 1.265625 1.558593 2.3125 1.558593 c 1.203125 0 2.210937 -0.855469 2.441406 -1.988281 h 2.1875 c 0.234375 1.132812 1.242188 1.988281 2.445312 1.988281 c 1.0625 0 1.972657 -0.667969 2.328126 -1.601562 c 1.246093 -0.351563 2.15625 -1.496094 2.15625 -2.851563 v -0.316406 c 0 -1.765625 -1.429688 -3.195312 -3.191407 -3.195312 h -0.152343 c 0.003906 -0.046876 0 -0.089844 -0.003907 -0.136719 c 0.808594 -0.273438 1.351563 -1.03125 1.355469 -1.886719 v -1 c 1.105469 0 2 -0.894531 2 -2 v -1 h -1 v -1.480469 c 0 -0.140625 -0.054688 -0.269531 -0.152344 -0.367187 c -0.097656 -0.0976565 -0.226562 -0.152344 -0.367187 -0.152344 c -0.273438 0.0078125 -0.488281 0.242188 -0.480469 0.519531 v 1.480469 h -1 v -1.480469 c 0 -0.140625 -0.054688 -0.269531 -0.152344 -0.367187 c -0.097656 -0.0976565 -0.226562 -0.152344 -0.367187 -0.152344 z m -9.511719 5.941406 h 5.011719 c 0.851562 0 1.628906 0.457032 2.042969 1.199219 l 0.496093 0.882813 h -8.53125 v -1.105469 c 0 -0.550781 0.429688 -0.976563 0.980469 -0.976563 z m -0.980469 4.082032 h 10.8125 c 0.667969 0 1.191407 0.523437 1.191407 1.195312 v 0.316406 c 0 0.292969 -0.121094 0.546875 -0.316407 0.722656 c -0.433593 -0.75 -1.242187 -1.257812 -2.167969 -1.257812 c -1.207031 0 -2.214843 0.859375 -2.445312 2 h -2.183594 c -0.230468 -1.140625 -1.238281 -2 -2.445312 -2 c -0.953125 0 -1.78125 0.535156 -2.203125 1.324219 c -0.125 -0.109375 -0.210938 -0.261719 -0.242188 -0.4375 z m 2.445313 2.976562 c 0.285156 0 0.492187 0.210938 0.492187 0.492188 c 0 0.285156 -0.207031 0.496093 -0.492187 0.496093 s -0.496094 -0.210937 -0.496094 -0.496093 c 0 -0.28125 0.210938 -0.492188 0.496094 -0.492188 z m 7.074218 0 c 0.285157 0 0.492188 0.210938 0.492188 0.492188 c 0 0.285156 -0.207031 0.496093 -0.492188 0.496093 c -0.285156 0 -0.496093 -0.210937 -0.496093 -0.496093 c 0 -0.28125 0.210937 -0.492188 0.496093 -0.492188 z m 0 0" fill="#222222"/>
</svg>
