<?xml version="1.0" encoding="UTF-8"?>
<svg height="16px" viewBox="0 0 16 16" width="16px" xmlns="http://www.w3.org/2000/svg">
    <path d="m 7.960938 0 c -0.007813 0 -0.011719 0 -0.019532 0 c -0.011718 0.00390625 -0.023437 0.00390625 -0.039062 0.00390625 c -0.027344 0.00390625 -0.054688 0.00781255 -0.082032 0.01171875 c -0.003906 0.0039062 -0.003906 0.0039062 -0.007812 0.0039062 c -0.03125 0.0078126 -0.0625 0.015625 -0.097656 0.0234376 c -0.015625 0.0039062 -0.035156 0.0117187 -0.054688 0.015625 c -0.027344 0.0117187 -0.054687 0.0234374 -0.082031 0.0351562 c -0.007813 0.0039062 -0.015625 0.007812 -0.023437 0.011719 c -0.015626 0.007812 -0.03125 0.015625 -0.050782 0.023437 l -1.953125 0.976563 c -0.492187 0.246093 -0.695312 0.847656 -0.445312 1.34375 c 0.246093 0.492187 0.847656 0.691406 1.339843 0.445312 l 0.554688 -0.277343 v 1.382812 h -3 c -2.214844 0 -4 1.785156 -4 4 s 1.785156 4 4 4 h 3 v 1.378906 l -0.554688 -0.273437 c -0.492187 -0.246094 -1.09375 -0.046875 -1.339843 0.445312 c -0.25 0.496094 -0.046875 1.097657 0.445312 1.34375 l 2.003907 1 c 0.007812 0.003907 0.015624 0.007813 0.023437 0.007813 c 0.003906 0.003906 0.003906 0.003906 0.007813 0.003906 c 0.015624 0.007812 0.03125 0.015625 0.042968 0.023438 h 0.003906 c 0.007813 0.003906 0.011719 0.003906 0.019532 0.003906 c 0.003906 0.003906 0.003906 0.003906 0.007812 0.003906 c 0.019532 0.007812 0.039063 0.015625 0.054688 0.019531 c 0.015625 0.003907 0.03125 0.011719 0.046875 0.015625 h 0.003906 c 0.015625 0.003906 0.03125 0.003906 0.046875 0.007813 h 0.007812 c 0.003907 0.003906 0.007813 0.003906 0.011719 0.003906 c 0.035157 0.003906 0.070313 0.007813 0.105469 0.011719 c 0.019531 0 0.042969 0.003906 0.0625 0 c 0.015625 0.003906 0.027344 0.003906 0.039062 0.003906 h 0.003907 c 0.003906 0 0.003906 0 0.007812 -0.003906 h 0.015625 h 0.007813 c 0.023437 0 0.046875 -0.003906 0.070312 -0.007813 c 0.015625 0 0.027344 -0.003906 0.039063 -0.007812 h 0.003906 c 0.042969 -0.007813 0.085938 -0.019531 0.125 -0.03125 c 0 0 0.003906 0 0.003906 -0.003907 h 0.007813 c 0.039062 -0.015624 0.078125 -0.03125 0.117187 -0.050781 h 0.003906 c 0.019532 -0.007812 0.035157 -0.015625 0.050782 -0.027343 l 1.949218 -0.972657 c 0.496094 -0.246093 0.695313 -0.847656 0.449219 -1.34375 c -0.246093 -0.492187 -0.847656 -0.691406 -1.34375 -0.445312 l -0.550781 0.273437 v -1.378906 h 3 c 2.214844 0 4 -1.785156 4 -4 s -1.785156 -4 -4 -4 h -3 v -1.382812 l 0.550781 0.277343 c 0.496094 0.246094 1.097657 0.046875 1.34375 -0.445312 c 0.246094 -0.496094 0.046875 -1.097657 -0.449219 -1.34375 l -1.949218 -0.976563 c -0.054688 -0.0312498 -0.117188 -0.0546872 -0.179688 -0.0781248 c 0 0 -0.003906 0 -0.007812 0 c -0.039063 -0.015625 -0.082032 -0.0234374 -0.125 -0.0351562 c 0 0 0 0 -0.003906 0 c 0 0 0 0 -0.003907 0 c -0.03125 -0.0039062 -0.066406 -0.0078125 -0.101562 -0.01171875 c -0.023438 0 -0.046875 -0.00390625 -0.074219 -0.00390625 c -0.011719 0 -0.027344 0 -0.039062 0 z m -3.960938 6 h 8 c 1.125 0 2 0.875 2 2 s -0.875 2 -2 2 h -8 c -1.125 0 -2 -0.875 -2 -2 s 0.875 -2 2 -2 z m 0 0" fill="#222222"/>
</svg>
