<?xml version="1.0" encoding="UTF-8"?>
<svg height="16px" viewBox="0 0 16 16" width="16px" xmlns="http://www.w3.org/2000/svg">
    <path d="m 8 0 c -4.40625 0 -8 3.59375 -8 8 s 3.59375 8 8 8 s 8 -3.59375 8 -8 s -3.59375 -8 -8 -8 z m 0 2 c 1.746094 0 3.3125 0.738281 4.40625 1.917969 l -0.15625 1.28125 l 1.371094 0.6875 c 0.246094 0.65625 0.378906 1.371093 0.378906 2.113281 c 0 0.976562 -0.230469 1.898438 -0.644531 2.710938 l -2.011719 0.289062 l -0.46875 2.269531 c -0.851562 0.464844 -1.832031 0.730469 -2.875 0.730469 c -0.25 0 -0.5 -0.015625 -0.742188 -0.042969 l -1.117187 -2.019531 l -2.320313 0.375 c -0.765624 -0.742188 -1.332031 -1.683594 -1.617187 -2.742188 c 0 -0.003906 0.003906 -0.003906 0 -0.003906 l 0.710937 -1.066406 l -0.878906 -1.179688 c 0.242188 -2.144531 1.597656 -3.9375 3.480469 -4.789062 l 1.121094 0.511719 l 1.007812 -1.03125 h 0.003907 c 0.117187 -0.007813 0.234374 -0.011719 0.351562 -0.011719 z m -0.8125 3.601562 l -1.738281 2.386719 l 1.734375 2.394531 l 2.8125 -0.914062 l 0.003906 -2.953125 z m 0 0" fill="#222222"/>
</svg>
