<?xml version="1.0" encoding="UTF-8"?>
<svg height="16px" viewBox="0 0 16 16" width="16px" xmlns="http://www.w3.org/2000/svg">
    <g fill="#222222">
        <path d="m 2 4 v 8 h 1 v -8 z m 11 0 v 8 h 1 v -8 z m -13 2 v 4 h 1 v -4 z m 15 0 v 4 h 1 v -4 z m 0 0"/>
        <path d="m 8 1.976562 c -2.203125 0 -4.011719 1.808594 -4.011719 4.011719 c 0 1.859375 1.285157 3.4375 3.011719 3.886719 v 2.125 h -0.511719 c -0.277343 0 -0.5 0.222656 -0.5 0.5 s 0.222657 0.5 0.5 0.5 h -1 c -0.277343 0 -0.5 0.222656 -0.5 0.5 s 0.222657 0.5 0.5 0.5 h -1.488281 c -1 0 -2.042969 1.03125 -2.042969 2 h 12.042969 c 0 -1.019531 -0.996094 -2 -2 -2 h -1.5 c 0.277344 0 0.5 -0.222656 0.5 -0.5 s -0.222656 -0.5 -0.5 -0.5 h -1 c 0.277344 0 0.5 -0.222656 0.5 -0.5 s -0.222656 -0.5 -0.5 -0.5 h -0.5 v -2.125 c 1.726562 -0.449219 3.011719 -2.027344 3.011719 -3.886719 c 0 -2.203125 -1.808594 -4.011719 -4.011719 -4.011719 z m 0 2 c 1.125 0 2.011719 0.886719 2.011719 2.011719 c 0 1.085938 -0.832031 1.957031 -1.902344 2.011719 h -0.222656 c -1.070313 -0.054688 -1.902344 -0.925781 -1.902344 -2.011719 c 0 -1.125 0.890625 -2.011719 2.015625 -2.011719 z m 0 0"/>
    </g>
</svg>
