<?xml version="1.0" encoding="UTF-8"?>
<svg height="16px" viewBox="0 0 16 16" width="16px" xmlns="http://www.w3.org/2000/svg">
    <path d="m 7.5 1.996094 c -3.039062 0 -5.5 2.460937 -5.5 5.5 c 0 3.039062 2.460938 5.5 5.5 5.5 s 5.5 -2.460938 5.5 -5.5 c 0 -3.039063 -2.460938 -5.5 -5.5 -5.5 z m 0 2 c 0.132812 0 0.261719 0.007812 0.394531 0.019531 c -0.046875 0.144531 -0.027343 0.304687 0.054688 0.429687 c 0.117187 0.183594 0.222656 0.363282 0.320312 0.546876 c -0.539062 -0.015626 -1.078125 -0.011719 -1.617187 0.003906 c 0.097656 -0.183594 0.207031 -0.367188 0.324218 -0.550782 c 0.082032 -0.125 0.101563 -0.277343 0.058594 -0.417968 c 0.152344 -0.023438 0.308594 -0.03125 0.464844 -0.03125 z m 1.5625 0.363281 c 0.375 0.1875 0.710938 0.4375 0.996094 0.742187 c -0.21875 -0.023437 -0.4375 -0.042968 -0.652344 -0.054687 c -0.101562 -0.230469 -0.214844 -0.460937 -0.34375 -0.6875 z m -3.230469 0.054687 c -0.117187 0.214844 -0.222656 0.429688 -0.316406 0.644532 c -0.195313 0.015625 -0.390625 0.035156 -0.585937 0.050781 c 0.257812 -0.277344 0.5625 -0.511719 0.902343 -0.695313 z m 2.871094 1.59375 c 0.105469 0.328126 0.175781 0.660157 0.214844 0.988282 h -2.910157 c 0.039063 -0.324219 0.109376 -0.652344 0.214844 -0.980469 c 0.824219 -0.039063 1.652344 -0.042969 2.480469 -0.007813 z m 1.058594 0.070313 c 0.332031 0.027344 0.660156 0.0625 0.988281 0.105469 c 0.101562 0.253906 0.175781 0.527344 0.214844 0.8125 h -1.039063 c -0.03125 -0.308594 -0.085937 -0.613282 -0.164062 -0.917969 z m -4.601563 0.015625 c -0.078125 0.300781 -0.128906 0.601562 -0.160156 0.902344 h -0.964844 c 0.039063 -0.277344 0.109375 -0.546875 0.210938 -0.800782 c 0.300781 -0.039062 0.605468 -0.074218 0.914062 -0.101562 z m -1.125 1.902344 h 0.949219 c 0.019531 0.304687 0.0625 0.613281 0.128906 0.917968 c -0.289062 -0.027343 -0.574219 -0.058593 -0.859375 -0.097656 c -0.105468 -0.257812 -0.179687 -0.535156 -0.21875 -0.820312 z m 1.949219 0 h 2.957031 c -0.027344 0.335937 -0.089844 0.667968 -0.183594 1.007812 c -0.863281 0.039063 -1.730468 0.035156 -2.59375 -0.011718 c -0.09375 -0.332032 -0.152343 -0.664063 -0.179687 -0.996094 z m 3.960937 0 h 1.019532 c -0.042969 0.292968 -0.117188 0.570312 -0.226563 0.835937 c -0.308593 0.039063 -0.617187 0.070313 -0.929687 0.101563 c 0.066406 -0.3125 0.113281 -0.625 0.136718 -0.9375 z m -4.992187 1.90625 c 0.160156 0.019531 0.320313 0.03125 0.480469 0.042968 c 0.074218 0.183594 0.152344 0.367188 0.246094 0.546876 c -0.269532 -0.164063 -0.515626 -0.359376 -0.726563 -0.589844 z m 5.085937 0.011718 c -0.242187 0.253907 -0.519531 0.46875 -0.824218 0.636719 c 0.101562 -0.195312 0.191406 -0.390625 0.269531 -0.589843 c 0.183594 -0.011719 0.367187 -0.027344 0.554687 -0.046876 z m -3.480468 0.097657 c 0.601562 0.023437 1.203125 0.023437 1.808594 0.003906 c -0.121094 0.246094 -0.261719 0.488281 -0.417969 0.734375 c -0.042969 0.066406 -0.070313 0.144531 -0.078125 0.226562 c -0.125 0.011719 -0.246094 0.019532 -0.371094 0.019532 c -0.152344 0 -0.300781 -0.007813 -0.445312 -0.027344 c -0.007813 -0.078125 -0.035157 -0.152344 -0.078126 -0.21875 c -0.160156 -0.246094 -0.300781 -0.492188 -0.417968 -0.738281 z m 0 0" fill="#222222"/>
</svg>
