<?xml version="1.0" encoding="UTF-8"?>
<svg height="16px" viewBox="0 0 16 16" width="16px" xmlns="http://www.w3.org/2000/svg">
    <path d="m 14.984375 0.5 c -0.035156 0 -0.066406 0.003906 -0.097656 0.011719 l -5.179688 1.109375 c -0.28125 -0.390625 -0.734375 -0.621094 -1.214843 -0.621094 c -0.710938 0 -1.320313 0.5 -1.464844 1.195312 l -6.140625 1.316407 c -0.269531 0.058593 -0.441407 0.324219 -0.382813 0.59375 s 0.324219 0.441406 0.59375 0.382812 l 6.066406 -1.300781 c 0.179688 0.34375 0.476563 0.601562 0.828126 0.726562 v 1.085938 h -0.96875 c -1.226563 0 -2.382813 0.574219 -3.125 1.554688 l -1.644532 2.167968 c -0.792968 1.042969 -0.796875 2.476563 -0.007812 3.523438 l 1.652344 2.195312 c 0.742187 0.980469 1.898437 1.558594 3.125 1.558594 h 2.546874 c 1.230469 0 2.386719 -0.578125 3.125 -1.558594 l 1.652344 -2.195312 c 0.789063 -1.046875 0.785156 -2.480469 -0.003906 -3.523438 l -1.644531 -2.167968 c -0.742188 -0.980469 -1.898438 -1.554688 -3.128907 -1.554688 h -0.578124 v -1.085938 c 0.554687 -0.195312 0.957031 -0.710937 0.992187 -1.332031 l 5.113281 -1.09375 c 0.269532 -0.058593 0.441406 -0.324219 0.382813 -0.59375 c -0.042969 -0.199219 -0.199219 -0.351562 -0.398438 -0.386719 c -0.03125 -0.003906 -0.066406 -0.007812 -0.097656 -0.007812 z m -6.492187 1.5 c 0.277343 0 0.5 0.222656 0.5 0.5 s -0.222657 0.5 -0.5 0.5 c -0.277344 0 -0.5 -0.222656 -0.5 -0.5 s 0.222656 -0.5 0.5 -0.5 z m -1.46875 5 h 0.96875 v 3 h -4.191407 c 0.011719 -0.023438 0.03125 -0.046875 0.046875 -0.070312 l 1.644532 -2.167969 c 0.363281 -0.480469 0.929687 -0.761719 1.53125 -0.761719 z m 1.96875 0 h 0.578124 c 0.601563 0 1.171876 0.28125 1.535157 0.761719 l 1.644531 2.167969 c 0.015625 0.023437 0.03125 0.046874 0.046875 0.070312 h -3.804687 z m -5.179688 4 h 8.96875 c -0.011719 0.015625 -0.019531 0.027344 -0.03125 0.042969 l -1.652344 2.195312 c -0.359375 0.480469 -0.925781 0.761719 -1.527344 0.761719 h -2.546874 c -0.597657 0 -1.164063 -0.28125 -1.527344 -0.761719 l -1.652344 -2.195312 c -0.011719 -0.015625 -0.023438 -0.027344 -0.03125 -0.042969 z m 0 0" fill="#222222"/>
</svg>
