<?xml version="1.0" encoding="UTF-8"?>
<svg height="16px" viewBox="0 0 16 16" width="16px" xmlns="http://www.w3.org/2000/svg">
    <path d="m 1.53125 0.46875 l -1.0625 1.0625 l 3.503906 3.5 l 0.964844 0.96875 l 3.429688 3.429688 l 5.144531 5.140624 l 0.957031 0.960938 l 1.0625 -1.0625 l -0.957031 -0.953125 c 0.269531 -0.445313 0.421875 -0.964844 0.421875 -1.515625 v -1.929688 c 0.003906 -0.046874 0.003906 -0.089843 0 -0.132812 c 0 -0.011719 0 -0.015625 0 -0.019531 c 0 -0.011719 0 -0.011719 -0.003906 -0.015625 c 0 -0.023438 -0.003907 -0.046875 -0.007813 -0.070313 c 0 -0.003906 0 -0.011719 -0.003906 -0.011719 c -0.003907 -0.023437 -0.007813 -0.046874 -0.015625 -0.070312 c -0.003906 -0.027344 -0.011719 -0.054688 -0.023438 -0.078125 c -0.007812 -0.027344 -0.019531 -0.054687 -0.03125 -0.078125 c 0 -0.003906 -0.003906 -0.007812 -0.003906 -0.011719 c -0.011719 -0.023437 -0.019531 -0.042969 -0.03125 -0.0625 h -0.003906 v -0.003906 s 0 -0.007813 -0.003906 -0.007813 c -0.011719 -0.023437 -0.023438 -0.042968 -0.039063 -0.0625 c -0.011719 -0.023437 -0.03125 -0.046874 -0.046875 -0.066406 c -0.011719 -0.015625 -0.027344 -0.03125 -0.042969 -0.046875 c 0 -0.003906 0 -0.007812 -0.003906 -0.007812 l -0.003906 -0.003907 s 0 -0.003906 -0.003907 -0.003906 h -0.003906 v -0.003906 c 0 -0.003906 -0.003906 -0.003906 -0.007812 -0.007812 c -0.015625 -0.019532 -0.03125 -0.035157 -0.050782 -0.050782 h -0.003906 c 0 -0.003906 0 -0.007812 -0.003906 -0.007812 h -0.003906 c -0.015625 -0.015625 -0.035156 -0.03125 -0.054688 -0.042969 v -0.003906 h -0.003906 v -0.003907 h -0.003906 v -0.003906 h -0.003906 c -0.015626 -0.015625 -0.035157 -0.027344 -0.058594 -0.039062 l -0.003906 -0.003906 v -0.003907 h -0.007813 c -0.019531 -0.015625 -0.039063 -0.023437 -0.058594 -0.035156 c -0.023437 -0.011719 -0.050781 -0.023437 -0.078125 -0.035156 l -0.007812 -0.007813 h -0.003906 v -0.003906 c -0.023438 -0.011719 -0.042969 -0.015625 -0.066407 -0.023438 h -0.011719 c -0.023437 -0.011718 -0.046874 -0.011718 -0.070312 -0.015624 c -0.019531 -0.011719 -0.042969 -0.011719 -0.066406 -0.015626 h -0.042969 c -0.023437 0 -0.046875 -0.011718 -0.070313 -0.011718 c -0.011718 0 -0.027343 0 -0.042968 0 h -3.9375 l -3 -2.996094 h 1.9375 v -3 c 0 -0.554688 -0.445313 -1 -1 -1 c -0.550782 0 -1 0.445312 -1 1 v 2.9375 l -1.023438 -1.027344 v -0.910156 c 0 -0.550781 -0.449218 -1 -1 -1 c -0.242187 0 -0.476562 0.089844 -0.660156 0.25 z m 9.441406 1.53125 c -0.550781 0 -1 0.445312 -1 1 v 4 c 0 0.550781 0.449219 1 1 1 c 0.550782 0 1 -0.449219 1 -1 v -4 c 0 -0.554688 -0.449218 -1 -1 -1 z m 3 1.5 c -0.550781 0 -1 0.445312 -1 1 v 2.5 c 0 0.550781 0.449219 1 1 1 c 0.550782 0 1 -0.449219 1 -1 v -2.5 c 0 -0.554688 -0.449218 -1 -1 -1 z m -11.996094 3.5 c -0.550781 0 -1 0.449219 -1 1 v 1.617188 c 0 1.097656 0.320313 2.167968 0.921876 3.089843 l 0.113281 0.171875 c 0.871093 1.320313 2.355469 2.121094 3.9375 2.121094 h 5.867187 l -5.003906 -5.003906 h -1.839844 v 1 c -0.550781 0 -0.996094 -0.449219 -1 -1 v -1 h 1.839844 l -1.996094 -1.996094 z m 0 0" fill="#222222"/>
</svg>
