<?xml version="1.0" encoding="UTF-8"?>
<svg height="16px" viewBox="0 0 16 16" width="16px" xmlns="http://www.w3.org/2000/svg">
    <g fill="#222222">
        <path d="m 4.03125 1 c -1.675781 0 -3.03125 1.355469 -3.03125 3.03125 v 7.9375 c 0 1.675781 1.355469 3.03125 3.03125 3.03125 h 7.9375 c 1.675781 0 3.03125 -1.355469 3.03125 -3.03125 v -7.9375 c 0 -1.675781 -1.355469 -3.03125 -3.03125 -3.03125 z m 0 2 h 7.9375 c 0.589844 0 1.03125 0.441406 1.03125 1.03125 v 5.941406 c -0.507812 -0.054687 -0.96875 -0.332031 -1.261719 -0.757812 l -1.027343 -1.523438 c -0.292969 -0.433594 -0.773438 -0.648437 -1.25 -0.644531 c -0.476563 0.003906 -0.953126 0.226563 -1.238282 0.667969 l -0.984375 1.507812 c -0.316406 0.484375 -0.855469 0.777344 -1.4375 0.777344 h -2.800781 v -5.96875 c 0 -0.589844 0.441406 -1.03125 1.03125 -1.03125 z m 5.4375 5.027344 c 0.152344 -0.003906 0.308594 0.074218 0.414062 0.226562 l 1.03125 1.519532 c 0.476563 0.703124 1.246094 1.144531 2.085938 1.207031 v 0.988281 c 0 0.589844 -0.441406 1.03125 -1.03125 1.03125 h -7.9375 c -0.589844 0 -1.03125 -0.441406 -1.03125 -1.03125 v -0.96875 h 2.800781 c 0.917969 0 1.773438 -0.464844 2.273438 -1.230469 l 0.984375 -1.507812 c 0.101562 -0.15625 0.257812 -0.234375 0.410156 -0.234375 z m 0 0"/>
        <path d="m 5.453125 3.886719 c -0.859375 0 -1.566406 0.707031 -1.566406 1.566406 s 0.707031 1.566406 1.566406 1.566406 s 1.566406 -0.707031 1.566406 -1.566406 s -0.707031 -1.566406 -1.566406 -1.566406 z m 0 0.996093 c 0.320313 0 0.570313 0.25 0.570313 0.570313 s -0.25 0.570313 -0.570313 0.570313 s -0.570313 -0.25 -0.570313 -0.570313 s 0.25 -0.570313 0.570313 -0.570313 z m 0 0"/>
    </g>
</svg>
