<?xml version="1.0" encoding="UTF-8"?>
<svg height="16px" viewBox="0 0 16 16" width="16px" xmlns="http://www.w3.org/2000/svg">
    <g fill="#222222">
        <path d="m 6 0 v 3.269531 c -0.597656 0.347657 -1 0.996094 -1 1.730469 c 0 1.097656 0.902344 2 2 2 s 2 -0.902344 2 -2 c 0 -0.734375 -0.402344 -1.382812 -1 -1.730469 v -3.269531 z m 1 4 c 0.558594 0 1 0.441406 1 1 s -0.441406 1 -1 1 s -1 -0.441406 -1 -1 s 0.441406 -1 1 -1 z m 0 7 c -0.734375 0 -1.382812 0.402344 -1.730469 1 h -5.269531 v 2 h 5.269531 c 0.347657 0.597656 0.996094 1 1.730469 1 s 1.382812 -0.402344 1.726562 -1 h 7.273438 v -2 h -7.273438 c -0.34375 -0.597656 -0.992187 -1 -1.726562 -1 z m 0 1 c 0.558594 0 1 0.441406 1 1 s -0.441406 1 -1 1 s -1 -0.441406 -1 -1 s 0.441406 -1 1 -1 z m 0 0"/>
        <path d="m 6 6.730469 v 4.539062 c 0.296875 -0.171875 0.636719 -0.269531 1 -0.269531 s 0.707031 0.097656 1 0.269531 v -4.539062 c -0.292969 0.171875 -0.636719 0.269531 -1 0.269531 s -0.707031 -0.101562 -1 -0.269531 z m 0 0" fill-opacity="0.34902"/>
    </g>
</svg>
