<?xml version="1.0" encoding="UTF-8"?>
<svg height="16px" viewBox="0 0 16 16" width="16px" xmlns="http://www.w3.org/2000/svg">
    <g fill="#222222">
        <path d="m 7.730469 9 c 0.171875 0.292969 0.269531 0.636719 0.269531 1 s -0.097656 0.707031 -0.269531 1 h 2.539062 c -0.171875 -0.292969 -0.269531 -0.636719 -0.269531 -1 s 0.097656 -0.707031 0.269531 -1 z m 0 0" fill-opacity="0.34902"/>
        <path d="m 11 0 v 8.269531 c -0.597656 0.347657 -1 0.996094 -1 1.730469 s 0.402344 1.382812 1 1.730469 v 4.269531 h 2 v -4.269531 c 0.300781 -0.175781 0.554688 -0.429688 0.726562 -0.730469 h 2.273438 v -2 h -2.273438 c -0.171874 -0.300781 -0.425781 -0.554688 -0.726562 -0.730469 v -8.269531 z m -5 8 c -0.734375 0 -1.382812 0.402344 -1.730469 1 h -4.269531 v 2 h 4.269531 c 0.347657 0.597656 0.996094 1 1.730469 1 c 1.097656 0 2 -0.902344 2 -2 s -0.902344 -2 -2 -2 z m 0 1 c 0.558594 0 1 0.441406 1 1 s -0.441406 1 -1 1 s -1 -0.441406 -1 -1 s 0.441406 -1 1 -1 z m 6 0 c 0.558594 0 1 0.441406 1 1 s -0.441406 1 -1 1 s -1 -0.441406 -1 -1 s 0.441406 -1 1 -1 z m 0 0"/>
        <path d="m 9 3.78125 l -3 -3.03125 v 2.25 h -2 v 2 h 2 v 2.25 l 3 -3.03125 z m 0 0"/>
    </g>
</svg>
