<?xml version="1.0" encoding="UTF-8"?>
<svg height="16px" viewBox="0 0 16 16" width="16px" xmlns="http://www.w3.org/2000/svg">
    <g fill="#222222">
        <path d="m 0 1 v 2 h 8 v -2 z m 0 4 v 2 h 8 v -2 z m 0 4 v 2 h 8 v -2 z m 0 0"/>
        <path d="m 10 1 c -0.550781 0 -1 0.449219 -1 1 s 0.449219 1 1 1 c 1.882812 0 3.496094 1.296875 3.90625 3.136719 c 0.378906 1.71875 -0.402344 3.460937 -1.90625 4.328125 v -1.464844 c 0 -0.550781 -0.449219 -1 -1 -1 s -1 0.449219 -1 1 v 4 c 0 0.550781 0.449219 1 1 1 h 4 c 0.550781 0 1 -0.449219 1 -1 s -0.449219 -1 -1 -1 h -1.683594 c 2.039063 -1.351562 3.082032 -3.851562 2.542969 -6.300781 c -0.609375 -2.738281 -3.050781 -4.699219 -5.859375 -4.699219 z m 0 0"/>
        <path d="m 0 13 v 2 h 8 v -2 z m 0 0" fill-opacity="0.34902"/>
    </g>
</svg>
