<?xml version="1.0" encoding="UTF-8"?>
<svg height="16px" viewBox="0 0 16 16" width="16px" xmlns="http://www.w3.org/2000/svg">
    <path d="m 4.867188 1 c -2.648438 0.074219 -4.7968755 2.210938 -4.86328175 4.890625 c -0.00390625 0.03125 -0.00390625 0.0625 -0.00390625 0.097656 c 0.00390625 0.550781 0.449219 0.992188 1 0.992188 c 0.546875 0 0.996094 -0.441407 1 -0.992188 c -0.003906 -1.476562 1.074219 -2.730469 2.535156 -2.953125 c 1.457032 -0.234375 2.871094 0.632813 3.320313 2.042969 c 0.453125 1.398437 -0.175781 2.917969 -1.484375 3.585937 c -1.003906 0.429688 -1.582032 1.238282 -1.867188 1.921876 c -0.292968 0.691406 -0.421875 1.246093 -0.644531 1.589843 c -0.359375 0.558594 -0.863281 0.683594 -1.246094 0.609375 c -0.382812 -0.074218 -0.613281 -0.214844 -0.613281 -0.789062 v -1 v -0.007813 c 0 -0.554687 -0.449219 -1 -1 -1 c -0.554688 0 -1 0.445313 -1 1 v 0.007813 v 1 c 0 1.429687 1.050781 2.527344 2.238281 2.753906 c 1.183594 0.226562 2.527344 -0.289062 3.304688 -1.496094 c 0.472656 -0.742187 0.609375 -1.441406 0.800781 -1.890625 c 0.191406 -0.453125 0.300781 -0.652343 0.835938 -0.867187 l 0.035156 -0.015625 l 0.039062 -0.019531 c 2.191406 -1.113282 3.253906 -3.65625 2.503906 -5.996094 c -0.65625 -2.019532 -2.511718 -3.40625 -4.632812 -3.464844 z m 8.140624 2.765625 c -0.140624 0 -0.273437 0.066406 -0.363281 0.171875 c -1.070312 1.207031 -1.628906 2.582031 -1.628906 3.984375 s 0.554687 2.808594 1.617187 4.105469 c 0.171876 0.210937 0.488282 0.242187 0.703126 0.066406 c 0.210937 -0.171875 0.242187 -0.488281 0.070312 -0.703125 c -0.945312 -1.152344 -1.390625 -2.328125 -1.390625 -3.46875 s 0.441406 -2.261719 1.378906 -3.324219 c 0.183594 -0.207031 0.160157 -0.523437 -0.046875 -0.707031 c -0.078125 -0.070313 -0.179687 -0.113281 -0.28125 -0.125 c -0.019531 0 -0.039062 0 -0.058594 0 z m 1.503907 1.21875 c -0.160157 0 -0.3125 0.066406 -0.410157 0.195313 c -0.683593 0.886718 -1.070312 1.824218 -1.082031 2.789062 c -0.007812 0.96875 0.363281 1.925781 1.085938 2.839844 c 0.171875 0.214844 0.484375 0.25 0.703125 0.082031 c 0.214844 -0.171875 0.25 -0.488281 0.082031 -0.703125 c -0.617187 -0.777344 -0.878906 -1.5 -0.871094 -2.207031 c 0.007813 -0.703125 0.289063 -1.425781 0.875 -2.191407 c 0.167969 -0.21875 0.125 -0.535156 -0.09375 -0.699218 c -0.082031 -0.066406 -0.183593 -0.105469 -0.289062 -0.105469 z m 0 0" fill="#222222"/>
</svg>
