<?xml version="1.0" encoding="UTF-8"?>
<svg height="16px" viewBox="0 0 16 16" width="16px" xmlns="http://www.w3.org/2000/svg">
    <path d="m 6.507812 1 c -3.027343 0 -5.503906 2.472656 -5.503906 5.5 s 2.476563 5.5 5.503906 5.5 c 1.15625 0 2.230469 -0.359375 3.117188 -0.972656 l 3.683594 3.679687 c 0.25 0.261719 0.625 0.367188 0.972656 0.273438 c 0.351562 -0.089844 0.625 -0.363281 0.714844 -0.714844 c 0.09375 -0.347656 -0.011719 -0.722656 -0.273438 -0.972656 l -3.683594 -3.679688 c 0.613282 -0.886719 0.972657 -1.960937 0.972657 -3.113281 c 0 -3.027344 -2.476563 -5.5 -5.503907 -5.5 z m 0 2 c 1.949219 0 3.503907 1.554688 3.503907 3.5 s -1.554688 3.5 -3.503907 3.5 c -1.949218 0 -3.503906 -1.554688 -3.503906 -3.5 s 1.554688 -3.5 3.503906 -3.5 z m 0 0" fill="#222222"/>
</svg>
