<?xml version="1.0" encoding="UTF-8"?>
<svg height="16px" viewBox="0 0 16 16" width="16px" xmlns="http://www.w3.org/2000/svg">
    <g fill="#222222">
        <path d="m 3 2 c -1.660156 0 -3 1.339844 -3 3 v 4 c 0 1.308594 0.832031 2.417969 2 2.828125 v 2.171875 h 12 v -2.171875 c 1.167969 -0.410156 2 -1.519531 2 -2.828125 v -4 c 0 -1.660156 -1.339844 -3 -3 -3 z m 0 2 h 10 c 0.554688 0 1 0.445312 1 1 v 4 c 0 0.554688 -0.445312 1 -1 1 h -10 c -0.554688 0 -1 -0.445312 -1 -1 v -4 c 0 -0.554688 0.445312 -1 1 -1 z m 0 0"/>
        <g fill-opacity="0.501961">
            <path d="m 4 5 h 2 v 4 h -2 z m 0 0"/>
            <path d="m 7 5 h 2 v 4 h -2 z m 0 0"/>
            <path d="m 10 5 h 2 v 4 h -2 z m 0 0"/>
        </g>
    </g>
</svg>
