<?xml version="1.0" encoding="UTF-8"?>
<svg height="16px" viewBox="0 0 16 16" width="16px" xmlns="http://www.w3.org/2000/svg">
    <path d="m 6.503906 0 c -0.257812 0 -0.617187 0.03125 -0.820312 0.078125 c -1.359375 0.386719 -2.378906 1.519531 -2.617188 2.914063 l -1.960937 10.007812 c -0.398438 1.601562 0.351562 3 1.960937 3 h 6.859375 c 1.609375 0 2.300781 -1.378906 2.019531 -3 l -1.28125 -6.101562 l -1.4375 1.242187 l 0.777344 3.859375 h -7 l 1.78125 -9.007812 c 0.140625 -0.582032 0.648438 -1 1.25 -1 h 0.917969 c 0.601563 0 1.113281 0.40625 1.261719 1 l 0.210937 0.890624 l 1.4375 -1.234374 l -0.046875 -0.167969 c -0.539062 -1.910157 -2.195312 -2.480469 -3.3125 -2.480469 z m 7 0.5 c -0.828125 0 -1.5 0.671875 -1.5 1.5 c 0 0.09375 0.011719 0.183594 0.027344 0.273438 l -6.015625 5.15625 c -0.148437 0.128906 -0.242187 0.3125 -0.257813 0.511718 c -0.015624 0.199219 0.046876 0.394532 0.175782 0.546875 c 0.132812 0.152344 0.316406 0.246094 0.515625 0.261719 c 0.195312 0.015625 0.394531 -0.050781 0.542969 -0.179688 l 6.015624 -5.15625 c 0.160157 0.058594 0.328126 0.085938 0.496094 0.085938 c 0.832032 0 1.5 -0.671875 1.5 -1.5 s -0.667968 -1.5 -1.5 -1.5 z m 0 0" fill="#222222"/>
</svg>
