<?xml version="1.0" encoding="UTF-8"?>
<svg height="16px" viewBox="0 0 16 16" width="16px" xmlns="http://www.w3.org/2000/svg">
    <path d="m 16.015625 7.996094 c 0 -1.105469 -0.894531 -2 -2 -2 s -2 0.894531 -2 2 c 0 1.105468 0.894531 2 2 2 s 2 -0.894532 2 -2 z m -5 0 c 0 -0.410156 -0.25 -0.777344 -0.628906 -0.925782 c -5.0625 -2.027343 -9.128907 -3.042968 -9.128907 -3.042968 c -0.4375 -0.109375 -0.890624 0.085937 -1.113281 0.476562 c -0.222656 0.390625 -0.1523435 0.882813 0.164063 1.199219 l 2.292968 2.292969 l -2.292968 2.292968 c -0.3164065 0.316407 -0.386719 0.808594 -0.164063 1.199219 c 0.222657 0.390625 0.675781 0.585938 1.113281 0.480469 c 0 0 4.066407 -1.019531 9.128907 -3.042969 c 0.378906 -0.152343 0.628906 -0.519531 0.628906 -0.929687 z m 0 0" fill="#222222"/>
</svg>
