<?xml version="1.0" encoding="UTF-8"?>
<svg height="16px" viewBox="0 0 16 16" width="16px" xmlns="http://www.w3.org/2000/svg">
    <g fill="#222222">
        <path d="m 2 1.179688 v 4.484374 c 0 2.214844 1.195312 4.253907 3.128906 5.335938 l 2.871094 1.605469 l 2.871094 -1.605469 c 1.929687 -1.082031 3.128906 -3.121094 3.128906 -5.335938 v -4.484374 l -6 -1.1992192 z m 10.804688 1.800781 l -0.804688 -0.980469 v 3.664062 c 0 1.492188 -0.804688 2.863282 -2.105469 3.589844 l -2.382812 1.332032 h 0.976562 l -2.382812 -1.332032 c -1.300781 -0.726562 -2.105469 -2.097656 -2.105469 -3.589844 v -3.664062 l -0.804688 0.980469 l 5 -1 h -0.390624 z m 0 0"/>
        <path d="m 7 12.296875 c -0.292969 0.171875 -0.539062 0.414063 -0.710938 0.703125 h -3.285156 c -0.554687 0 -1 0.449219 -1 1 s 0.445313 1 1 1 h 3.246094 c 0.351562 0.640625 1.023438 1.035156 1.753906 1.039062 c 0.726563 -0.003906 1.398438 -0.398437 1.75 -1.039062 h 3.261719 c 0.550781 0 1 -0.449219 1 -1 s -0.449219 -1 -1 -1 h -3.292969 c -0.175781 -0.289062 -0.421875 -0.53125 -0.714844 -0.703125 c -0.675781 -0.398437 -1.34375 -0.398437 -2.007812 0 z m 1.003906 0.730469 c 0.554688 0 1.003906 0.449218 1.003906 1.003906 c 0 0.558594 -0.449218 1.007812 -1.003906 1.007812 c -0.558594 0 -1.007812 -0.449218 -1.007812 -1.007812 c 0 -0.554688 0.449218 -1.003906 1.007812 -1.003906 z m 0 0"/>
    </g>
</svg>
