<?xml version="1.0" encoding="UTF-8"?>
<svg height="16px" viewBox="0 0 16 16" width="16px" xmlns="http://www.w3.org/2000/svg">
    <path d="m 3.027344 0 c -1.652344 0 -3.011719 1.359375 -3.011719 3.011719 c 0 1.039062 0.539063 1.964843 1.347656 2.507812 c -0.808593 0.539063 -1.347656 1.464844 -1.347656 2.503907 c 0 1.652343 1.359375 3.011718 3.011719 3.011718 h 3.960937 v 1.234375 c -0.289062 0.171875 -0.535156 0.414063 -0.710937 0.703125 h -3.28125 c -0.554688 0 -1 0.449219 -1 1 c 0 0.550782 0.445312 1 1 1 h 3.246094 c 0.351562 0.640625 1.023437 1.035156 1.753906 1.039063 c 0.726562 -0.003907 1.398437 -0.398438 1.75 -1.039063 h 3.261718 c 0.550782 0 1 -0.449218 1 -1 c 0 -0.550781 -0.449218 -1 -1 -1 h -3.292968 c -0.175782 -0.289062 -0.421875 -0.53125 -0.714844 -0.703125 v -1.234375 h 3.988281 c 1.652344 0 3.015625 -1.359375 3.015625 -3.011718 c 0 -1.039063 -0.539062 -1.964844 -1.351562 -2.503907 c 0.8125 -0.542969 1.351562 -1.46875 1.351562 -2.507812 c 0 -1.652344 -1.363281 -3.011719 -3.015625 -3.011719 z m -0.039063 2 h 0.011719 c 0.558594 0 1 0.441406 1 1 s -0.441406 1 -1 1 c -0.363281 0 -0.675781 -0.183594 -0.851562 -0.46875 c -0.085938 -0.148438 -0.132813 -0.328125 -0.132813 -0.519531 c 0 -0.566407 0.414063 -0.992188 0.972656 -1.011719 z m 1.742188 0 h 8.257812 c 0.578125 0 1.015625 0.433594 1.015625 1.011719 s -0.4375 1.011719 -1.015625 1.011719 h -8.273437 c 0.183594 -0.300782 0.285156 -0.652344 0.285156 -1.023438 c 0 -0.363281 -0.097656 -0.707031 -0.269531 -1 z m -1.703125 5.011719 h 0.113281 c 0.488281 0.0625 0.859375 0.476562 0.859375 0.988281 c 0 0.558594 -0.441406 1 -1 1 c -0.410156 0 -0.753906 -0.238281 -0.910156 -0.582031 c -0.046875 -0.121094 -0.074219 -0.253907 -0.074219 -0.394531 c 0 -0.578126 0.433594 -1.011719 1.011719 -1.011719 z m 1.707031 0 h 8.253906 c 0.578125 0 1.015625 0.433593 1.015625 1.011719 c 0 0.578124 -0.4375 1.011718 -1.015625 1.011718 h -8.28125 c 0.1875 -0.300781 0.292969 -0.65625 0.292969 -1.035156 c 0 -0.359375 -0.097656 -0.699219 -0.265625 -0.988281 z m 3.261719 5.988281 c 0.554687 0 1.003906 0.449219 1.003906 1.007812 c 0 0.554688 -0.449219 1.003907 -1.003906 1.003907 c -0.558594 0 -1.007813 -0.449219 -1.007813 -1.003907 c 0 -0.558593 0.449219 -1.007812 1.007813 -1.007812 z m 0 0" fill="#222222"/>
</svg>
