<?xml version="1.0" encoding="UTF-8"?>
<svg height="16px" viewBox="0 0 16 16" width="16px" xmlns="http://www.w3.org/2000/svg">
    <path d="m 4 0.046875 c -0.710938 0 -1.371094 0.375 -1.730469 0.992187 c -0.085937 -0.027343 -0.175781 -0.039062 -0.269531 -0.039062 c -0.265625 0 -0.519531 0.105469 -0.707031 0.292969 c -0.390625 0.390625 -0.390625 1.023437 0 1.414062 l 12 12 c 0.390625 0.390625 1.023437 0.390625 1.414062 0 s 0.390625 -1.023437 0 -1.414062 l -0.242187 -0.242188 h 0.496094 c 0.574218 0 1.132812 -0.46875 1.039062 -1.035156 l -0.96875 -5.976563 c -0.09375 -0.570312 -0.464844 -1.039062 -1.039062 -1.039062 h -1.984376 c -0.574218 0 -0.945312 0.46875 -1.039062 1.039062 l -0.492188 3.023438 l -1.476562 -1.476562 v -6.585938 h -1 v 5.585938 l -2.882812 -2.882813 c 0.550781 -0.371094 0.882812 -0.992187 0.882812 -1.65625 c 0 -1.105469 -0.894531 -2 -2 -2 z m 9 0 c -1.105469 0 -2 0.894531 -2 2 c 0 1.101563 0.894531 2 2 2 s 2 -0.898437 2 -2 c 0 -1.105469 -0.894531 -2 -2 -2 z m -11.648438 5.21875 c -0.210937 0.191406 -0.351562 0.464844 -0.351562 0.773437 v 4.421876 c 0 0.5625 0.441406 1.007812 1 1.03125 v 2.515624 c 0 0.550782 0.441406 0.992188 0.992188 0.992188 h 2.015624 c 0.550782 0 0.992188 -0.441406 0.992188 -0.992188 v -2.515624 c 0.421875 -0.015626 0.777344 -0.28125 0.925781 -0.652344 z m 6.648438 6.648437 v 3.085938 h 1 v -2.085938 z m 0 0" fill="#222222"/>
</svg>
