<?xml version="1.0" encoding="UTF-8"?>
<svg height="16px" viewBox="0 0 16 16" width="16px" xmlns="http://www.w3.org/2000/svg">
    <g fill="#222222">
        <path d="m 5.953125 0.113281 c -0.757813 0.019531 -1.4375 0.460938 -1.757813 1.140625 c -0.207031 0.191406 -0.320312 0.457032 -0.320312 0.734375 v 0.460938 l -1.167969 -1.167969 c -0.1875 -0.1875 -0.441406 -0.292969 -0.707031 -0.292969 s -0.519531 0.105469 -0.707031 0.292969 c -0.390625 0.390625 -0.390625 1.023438 0 1.414062 l 12 12 c 0.195312 0.195313 0.457031 0.300782 0.734375 0.292969 h 0.023437 h 0.824219 c 0.550781 0 1 -0.449219 1 -1 s -0.449219 -1 -1 -1 h -0.460938 l -0.550781 -0.550781 l -1.054687 -2.800781 c -0.144532 -0.390625 -0.515625 -0.648438 -0.933594 -0.648438 h -1.460938 l -1 -1 h 1.585938 c 0.550781 0 1 -0.449219 1 -1 s -0.449219 -1 -1 -1 h -3.585938 l -0.105468 -0.105469 l -0.738282 -1.851562 c 0.847657 -0.253906 1.429688 -1.03125 1.429688 -1.917969 c 0 -1.105469 -0.894531 -2 -2 -2 c -0.015625 0 -0.03125 0 -0.046875 0 z m 0 0"/>
        <path d="m 2.851562 6.660156 c -0.257812 0.246094 -0.496093 0.519532 -0.703124 0.8125 l 1.398437 1.402344 c 0.179687 -0.320312 0.394531 -0.617188 0.660156 -0.859375 z m -1.269531 1.839844 c -0.164062 0.394531 -0.277343 0.8125 -0.339843 1.25 l 2.203124 2.203125 c -0.207031 -0.441406 -0.335937 -0.929687 -0.335937 -1.453125 c 0 -0.148438 0.027344 -0.289062 0.042969 -0.429688 z m -0.328125 2.851562 c 0.367188 2.234376 2.140625 4.007813 4.375 4.375 z m 7.710938 1.421876 c -0.242188 0.269531 -0.535156 0.484374 -0.855469 0.664062 l 1.375 1.371094 c 0.289063 -0.210938 0.554687 -0.453125 0.796875 -0.722656 z m -3.9375 0.761718 l 2.203125 2.203125 c 0.4375 -0.066406 0.851562 -0.183593 1.238281 -0.351562 l -1.558594 -1.558594 c -0.140625 0.019531 -0.277344 0.042969 -0.425781 0.042969 c -0.523437 0 -1.015625 -0.125 -1.457031 -0.335938 z m 0 0"/>
    </g>
</svg>
