<?xml version="1.0" encoding="UTF-8"?>
<svg height="16px" viewBox="0 0 16 16" width="16px" xmlns="http://www.w3.org/2000/svg">
    <path d="m 2.96875 -0.0117188 v 1.9062498 l -1.4375 -1.4375 l -1.0625 1.0625 l 2.5 2.5 l 5.785156 5.78125 l 0.742188 0.746094 l 4.972656 4.972656 l 1.0625 -1.0625 l -3.105469 -3.109375 c 0.632813 -0.636718 1.042969 -1.671875 1.042969 -2.847656 c 0 -1.933594 -1.117188 -3.5 -2.5 -3.5 v -5.0117188 z m 4 4.5117188 c 0.882812 0 1.652344 0.503906 2.175781 1.234375 c 0.523438 0.730469 0.824219 1.703125 0.824219 2.765625 c 0 0.128906 -0.003906 0.257812 -0.011719 0.378906 l -1.035156 -1.03125 c -0.089844 -0.601562 -0.304687 -1.136718 -0.589844 -1.53125 c -0.382812 -0.539062 -0.859375 -0.816406 -1.363281 -0.816406 c -0.273438 0 -0.5 -0.222656 -0.5 -0.5 s 0.226562 -0.5 0.5 -0.5 z m -4 1.644531 v 9.855469 h 4 v -4.449219 l 0.363281 -0.105469 c 0.207031 -0.058593 0.414063 -0.171874 0.601563 -0.335937 z m 5.585938 5.582031 c -0.183594 0.148438 -0.375 0.285157 -0.585938 0.386719 v 3.886719 h 3 v -1.855469 z m 0 0" fill="#222222"/>
</svg>
