<?xml version="1.0" encoding="UTF-8"?>
<svg height="16px" viewBox="0 0 16 16" width="16px" xmlns="http://www.w3.org/2000/svg">
    <g fill="#222222">
        <path d="m 11 1 c -1.023438 0 -2.050781 0.390625 -2.828125 1.167969 l -5.941406 5.941406 c -1.558594 1.558594 -1.558594 4.105469 0 5.664063 c 1.554687 1.554687 4.101562 1.554687 5.660156 -0.003907 l 5.941406 -5.945312 c 1.554688 -1.554688 1.558594 -4.101563 0 -5.65625 c -0.777343 -0.78125 -1.804687 -1.167969 -2.832031 -1.167969 z m 0 1.980469 c 0.511719 0 1.023438 0.203125 1.421875 0.601562 c 0.792969 0.792969 0.792969 2.035157 -0.003906 2.828125 l -2.265625 2.265625 l -2.828125 -2.828125 l 2.261719 -2.265625 c 0.398437 -0.398437 0.90625 -0.597656 1.414062 -0.601562 z m -5.089844 4.277343 l 2.828125 2.832032 l -2.265625 2.265625 c -0.796875 0.796875 -2.035156 0.796875 -2.828125 0.003906 c -0.796875 -0.796875 -0.796875 -2.039063 0 -2.835937 z m 0 0"/>
        <path d="m 11 2.980469 c 0.511719 0 1.023438 0.203125 1.421875 0.601562 c 0.792969 0.792969 0.792969 2.035157 -0.003906 2.828125 l -2.265625 2.265625 l -2.828125 -2.828125 l 2.261719 -2.265625 c 0.398437 -0.398437 0.90625 -0.597656 1.417968 -0.597656 z m 0 0" fill-opacity="0.333333"/>
    </g>
</svg>
