<?xml version="1.0" encoding="UTF-8"?>
<svg height="16px" viewBox="0 0 16 16" width="16px" xmlns="http://www.w3.org/2000/svg">
    <path d="m 3.507812 1 c -1.382812 0 -2.5 1.121094 -2.5 2.5 v 1.367188 c -0.007812 0.042968 -0.007812 0.089843 -0.007812 0.132812 c 0 5.503906 4.496094 10 10 10 h 0.007812 h 1.5 c 1.378907 0 2.5 -1.121094 2.5 -2.5 v -1.5 c 0 -0.554688 -0.449218 -1 -1 -1 h -4 c -0.554687 0 -1 0.445312 -1 1 v 0.714844 c -2.273437 -0.667969 -4.050781 -2.445313 -4.71875 -4.714844 h 0.71875 c 0.550782 0 1 -0.445312 1 -1 v -4 c 0 -0.554688 -0.449218 -1 -1 -1 z m 0 0" fill="#222222"/>
</svg>
