<?xml version="1.0" encoding="UTF-8"?>
<svg height="16px" viewBox="0 0 16 16" width="16px" xmlns="http://www.w3.org/2000/svg">
    <g fill="#222222">
        <path d="m 9 10 h -2 v 2 l 1 1 l 1 -1 z m 0 0"/>
        <path d="m 6 2.96875 v 0.03125 c -0.554688 0 -1 0.449219 -1 1 s 0.445312 1 1 1 h 0.09375 l 0.023438 0.460938 c -1.257813 0.671874 -2.117188 2 -2.117188 3.527343 h 8 c 0 -1.519531 -0.847656 -2.84375 -2.097656 -3.519531 l 0.019531 -0.46875 h 0.078125 c 0.550781 0 1 -0.449219 1 -1 c 0 -0.265625 -0.105469 -0.519531 -0.292969 -0.707031 s -0.441406 -0.292969 -0.707031 -0.292969 h -0.84375 z m 0 0"/>
    </g>
</svg>
