<?xml version="1.0" encoding="UTF-8"?>
<svg height="16px" viewBox="0 0 16 16" width="16px" xmlns="http://www.w3.org/2000/svg">
    <path d="m 8.015625 -0.00390625 c -1.382813 0 -2.761719 0.35937525 -4 1.07421825 c -2.472656 1.425782 -4 4.070313 -4 6.925782 h 2 c 0 -2.144532 1.140625 -4.121094 3 -5.195313 s 4.140625 -1.074219 6 0 s 3 3.050781 3 5.195313 h 2 c 0 -2.855469 -1.527344 -5.5 -4 -6.925782 c -1.238281 -0.714843 -2.617187 -1.07421825 -4 -1.07421825 z m 2.992187 4.91796825 c -0.269531 0.003907 -0.527343 0.109376 -0.714843 0.304688 l -1.777344 1.777344 c -0.691406 -0.183594 -1.425781 0.011718 -1.929687 0.515625 c -0.78125 0.78125 -0.78125 2.046875 0 2.828125 c 0.777343 0.78125 2.046874 0.78125 2.824218 0 c 0.503906 -0.503906 0.703125 -1.242188 0.519532 -1.929688 l 1.773437 -1.777344 c 0.644531 -0.625 0.203125 -1.714843 -0.695313 -1.71875 z m -8.992187 7.082032 v 4 l 4 -2 z m 7 0 v 4 l 3 -2 z m 3 2 v 2 l 3 -2 l -3 -2 z m 0 0" fill="#222222"/>
</svg>
