<?xml version="1.0" encoding="UTF-8"?>
<svg height="16px" viewBox="0 0 16 16" width="16px" xmlns="http://www.w3.org/2000/svg">
    <path d="m 3.992188 0 c -1.089844 0 -2 0.910156 -2 2 v 3 c -1.109376 0 -2.0000005 0.890625 -2.0000005 2 v 1.988281 c 0 1.109375 0.8906245 2 2.0000005 2 h 4.988281 v 1.28125 c -0.289063 0.171875 -0.535157 0.414063 -0.710938 0.703125 h -3.28125 c -0.554687 0 -1 0.449219 -1 1 c 0 0.550782 0.445313 1 1 1 h 3.246094 c 0.351563 0.640625 1.023437 1.035156 1.753906 1.039063 c 0.726563 -0.003907 1.398438 -0.398438 1.75 -1.039063 h 3.261719 c 0.550781 0 1 -0.449218 1 -1 c 0 -0.550781 -0.449219 -1 -1 -1 h -3.292969 c -0.175781 -0.289062 -0.421875 -0.53125 -0.714843 -0.703125 v -1.28125 h 5 c 1.109374 0 2 -0.890625 2 -2 v -1.988281 c 0 -1.109375 -0.890626 -2 -2 -2 v -0.722656 c 0 -0.570313 -0.210938 -1.121094 -0.589844 -1.546875 l -1.816406 -2.050781 c -0.382813 -0.429688 -0.9375 -0.679688 -1.515626 -0.679688 z m 0 2 h 6.066406 l 1.933594 2 v 2.019531 h -8 z m 3.988281 11 h 0.011719 c 0.554687 0.003906 1 0.453125 1 1.007812 c 0 0.554688 -0.449219 1.003907 -1.003907 1.003907 c -0.558593 0 -1.007812 -0.449219 -1.007812 -1.003907 c 0 -0.554687 0.445312 -1.003906 1 -1.007812 z m 0 0" fill="#222222"/>
</svg>
