<?xml version="1.0" encoding="UTF-8"?>
<svg height="16px" viewBox="0 0 16 16" width="16px" xmlns="http://www.w3.org/2000/svg">
    <path d="m 3.976562 0.0273438 c -0.550781 0 -1 0.4492182 -1 1.0000002 c 0 0.535156 0.421876 0.972656 0.957032 0.996094 l 1.972656 1.976562 h -0.890625 c -1.65625 0 -3.015625 1.359375 -3.015625 3.011719 v 3.976562 c 0 1.652344 1.359375 3.011719 3.015625 3.011719 h 5.972656 c 1.652344 0 3.011719 -1.359375 3.011719 -3.011719 v -3.976562 c 0 -1.652344 -1.359375 -3.011719 -3.011719 -3.011719 h -0.945312 l 1.972656 -1.972656 c 0.550781 0 1 -0.449219 1 -1 c 0 -0.550782 -0.449219 -1.0000002 -1 -1.0000002 s -1 0.4492182 -1 1.0000002 c 0 0.164062 0.042969 0.324218 0.117187 0.464844 l -2.503906 2.507812 h -1.304687 l -2.484375 -2.480469 c 0.089844 -0.148437 0.136718 -0.320312 0.136718 -0.492187 c 0 -0.550782 -0.449218 -1.0000002 -1 -1.0000002 z m 1.039063 5.9726562 h 5.972656 c 0.578125 0 1.011719 0.433594 1.011719 1.011719 v 3.976562 c 0 0.578125 -0.433594 1.011719 -1.011719 1.011719 h -5.972656 c -0.582031 0 -1.015625 -0.433594 -1.015625 -1.011719 v -3.976562 c 0 -0.578125 0.433594 -1.011719 1.015625 -1.011719 z m 0.46875 0.957031 c -0.167969 -0.003906 -0.324219 0.0625 -0.441406 0.179688 c -0.234375 0.230469 -0.234375 0.613281 0 0.84375 l 1.015625 1.019531 l -1.015625 1.019531 c -0.234375 0.230469 -0.234375 0.613281 0 0.84375 c 0.234375 0.234375 0.613281 0.234375 0.847656 0 l 1.441406 -1.4375 c 0.234375 -0.234375 0.234375 -0.617187 0 -0.851562 l -1.441406 -1.4375 c -0.109375 -0.109375 -0.253906 -0.171875 -0.40625 -0.179688 z m 2.515625 3.042969 v 1 h 3 v -1 z m 0 0" fill="#222222"/>
</svg>
