<?xml version="1.0" encoding="UTF-8"?>
<svg height="16px" viewBox="0 0 16 16" width="16px" xmlns="http://www.w3.org/2000/svg">
    <path d="m 1.5 0.46875 l -1.0625 1.0625 l 14 14 l 1.0625 -1.0625 l -1.789062 -1.789062 s 0 0 0 -0.003907 c 0.195312 -0.359375 0.304687 -0.765625 0.304687 -1.191406 c 0 -1.378906 -1.121094 -2.5 -2.5 -2.5 c -0.425781 0 -0.832031 0.109375 -1.195313 0.304687 l -1.289062 -1.289062 h 4.984375 c 0.554687 0 1 -0.445312 1 -1 s -0.445313 -1 -1 -1 h -1 l -0.640625 -2.207031 c -0.195312 -0.847657 -1.046875 -1.738281 -2.140625 -1.738281 c -0.320313 0 -0.632813 0.070312 -0.917969 0.207031 c -0.40625 0.1875 -0.796875 0.125 -1.097656 -0.210938 c -0.484375 -0.550781 -1.191406 -0.878906 -1.953125 -0.882812 c -0.011719 0 -0.027344 0 -0.039063 0 c -1.105468 0.019531 -1.847656 0.800781 -2.277343 1.75 z m 0.515625 5.53125 c -0.554687 0 -1 0.445312 -1 1 s 0.445313 1 1 1 h 2.847656 l -2 -2 z m 2.5 2.984375 c -1.378906 0 -2.5 1.121094 -2.5 2.5 s 1.121094 2.5 2.5 2.5 c 1.070313 0 2.019531 -0.679687 2.363281 -1.691406 c 0.042969 -0.070313 0.066406 -0.152344 0.070313 -0.234375 c 0.027343 -0.109375 0.042969 -0.222656 0.054687 -0.335938 c 0.078125 -0.246094 0.242188 -0.457031 0.476563 -0.589844 c 0.121093 -0.070312 0.257812 -0.105468 0.390625 -0.125 l -0.785156 -0.785156 c -0.03125 0.015625 -0.070313 0.023438 -0.101563 0.039063 c -0.078125 0.046875 -0.136719 0.105469 -0.207031 0.15625 c -0.414063 -0.875 -1.292969 -1.433594 -2.261719 -1.433594 z m 0 1.003906 c 0.828125 -0.003906 1.5 0.667969 1.496094 1.496094 c 0.003906 0.027344 0 0.054687 0 0.078125 c -0.019531 0.074219 -0.019531 0.152344 -0.03125 0.230469 c -0.144531 0.691406 -0.753907 1.191406 -1.464844 1.1875 c -0.828125 0 -1.5 -0.667969 -1.5 -1.496094 s 0.671875 -1.496094 1.5 -1.496094 z m 7 0 c 0.828125 -0.003906 1.5 0.667969 1.496094 1.496094 c 0 0.148437 -0.019531 0.292969 -0.0625 0.433594 l -1.867188 -1.867188 c 0.140625 -0.042969 0.285157 -0.0625 0.433594 -0.0625 z m 0 0" fill="#222222"/>
</svg>
