<?xml version="1.0" encoding="UTF-8"?>
<svg height="16px" viewBox="0 0 16 16" width="16px" xmlns="http://www.w3.org/2000/svg">
    <g fill="#222222">
        <path d="m 6.226562 1.171875 c -1.425781 0.019531 -2.246093 1.3125 -2.570312 2.609375 v 0.039062 l -0.640625 2.179688 h -1 c -0.554687 0 -1 0.445312 -1 1 s 0.445313 1 1 1 h 12 c 0.554687 0 1 -0.445312 1 -1 s -0.445313 -1 -1 -1 h -1 l -0.640625 -2.207031 c -0.195312 -0.847657 -1.046875 -1.738281 -2.140625 -1.738281 c -0.597656 0 -1.167969 0.246093 -1.574219 0.679687 c -0.417968 -0.949219 -1.355468 -1.5625 -2.394531 -1.5625 c -0.011719 0 -0.027344 0 -0.039063 0 z m 0 0"/>
        <path d="m 4.515625 8.984375 c -1.378906 0 -2.5 1.121094 -2.5 2.5 s 1.121094 2.5 2.5 2.5 c 1.0625 0 2.007813 -0.675781 2.355469 -1.679687 c 0.050781 -0.074219 0.074218 -0.160157 0.078125 -0.253907 c 0.027343 -0.113281 0.046875 -0.234375 0.058593 -0.351562 c 0.082032 -0.234375 0.246094 -0.4375 0.472657 -0.566407 c 0.332031 -0.191406 0.742187 -0.191406 1.070312 0 c 0.226563 0.128907 0.390625 0.328126 0.472657 0.5625 c 0.011718 0.125 0.035156 0.25 0.0625 0.371094 c 0.003906 0.082032 0.027343 0.164063 0.070312 0.234375 c 0.347656 1.007813 1.292969 1.683594 2.359375 1.683594 c 1.378906 0 2.5 -1.121094 2.5 -2.5 s -1.121094 -2.5 -2.5 -2.5 c -0.960937 0 -1.839844 0.550781 -2.253906 1.421875 c -0.066407 -0.054688 -0.136719 -0.101562 -0.214844 -0.144531 c -0.636719 -0.363281 -1.421875 -0.363281 -2.0625 0 c -0.074219 0.042969 -0.144531 0.089843 -0.214844 0.140625 c -0.414062 -0.867188 -1.292969 -1.417969 -2.253906 -1.417969 z m 0 1.003906 c 0.828125 -0.003906 1.5 0.667969 1.496094 1.496094 c 0.003906 0.015625 0.003906 0.03125 0 0.046875 c -0.03125 0.125 -0.050781 0.25 -0.058594 0.375 c -0.1875 0.640625 -0.773437 1.078125 -1.4375 1.074219 c -0.828125 0.003906 -1.5 -0.667969 -1.5 -1.496094 s 0.671875 -1.5 1.5 -1.496094 z m 7 0 c 0.828125 -0.003906 1.5 0.667969 1.496094 1.496094 c 0 0.828125 -0.667969 1.5 -1.496094 1.496094 c -0.664063 0 -1.246094 -0.433594 -1.4375 -1.066407 c -0.007813 -0.132812 -0.027344 -0.261718 -0.058594 -0.382812 c 0 -0.015625 0 -0.03125 -0.003906 -0.046875 c 0 -0.828125 0.671875 -1.5 1.5 -1.496094 z m 0 0"/>
    </g>
</svg>
