<?xml version="1.0" encoding="UTF-8"?>
<svg height="16px" viewBox="0 0 16 16" width="16px" xmlns="http://www.w3.org/2000/svg">
    <path d="m 3 1 c -1.660156 0 -3 1.339844 -3 3 v 7 c 0 1.660156 1.339844 3 3 3 h 9.003906 c 1.664063 0 3 -1.339844 3 -3 v -7 c 0 -1.660156 -1.335937 -3 -3 -3 z m 0 2 v 9 c -0.554688 0 -1 -0.445312 -1 -1 v -7 c 0 -0.554688 0.445312 -1 1 -1 z m 0.996094 0 h 1.003906 v 9 h -1.003906 z m 2.003906 0 h 1 v 9 h -1 z m 2 0 h 1 v 9 h -1 z m 2 0 h 1 v 9 h -1 z m 2 0 h 0.003906 c 0.554688 0 1 0.445312 1 1 v 7 c 0 0.554688 -0.445312 1 -1 1 h -0.003906 z m -8.03125 12 s 0.882812 1 3.53125 1 s 3.527344 -1 3.527344 -1 z m 0 0" fill="#222222"/>
</svg>
