<?xml version="1.0" encoding="UTF-8"?>
<svg height="16px" viewBox="0 0 16 16" width="16px" xmlns="http://www.w3.org/2000/svg">
    <g fill="#222222">
        <path d="m 10 12.492188 c 0 1.929687 -1.566406 3.492187 -3.492188 3.492187 c -1.929687 0 -3.492187 -1.5625 -3.492187 -3.492187 c 0 -1.929688 1.5625 -3.492188 3.492187 -3.492188 c 1.925782 0 3.492188 1.5625 3.492188 3.492188 z m 0 0"/>
        <path d="m 9.015625 7.996094 h 6 c 0.207031 0 0.398437 -0.109375 0.5 -0.289063 c 0.105469 -0.179687 0.105469 -0.398437 0.003906 -0.578125 l -3.007812 -5.265625 c -0.101563 -0.175781 -0.292969 -0.285156 -0.496094 -0.285156 s -0.394531 0.109375 -0.496094 0.285156 l -3.007812 5.265625 c -0.101563 0.179688 -0.101563 0.398438 0.003906 0.578125 c 0.101563 0.179688 0.292969 0.289063 0.5 0.289063 z m 0 0"/>
        <path d="m 0.308594 3.371094 l 3.082031 -3.082032 c 0.390625 -0.390624 1.023437 -0.390624 1.414063 0 l 3.089843 3.082032 c 0.1875 0.1875 0.292969 0.441406 0.292969 0.707031 s -0.105469 0.519531 -0.292969 0.707031 l -3.085937 3.085938 c -0.390625 0.390625 -1.023438 0.390625 -1.414063 0 l -3.085937 -3.085938 c -0.3906252 -0.390625 -0.3906252 -1.023437 0 -1.414062 z m 0 0"/>
    </g>
</svg>
