<?xml version="1.0" encoding="UTF-8"?>
<svg height="16px" viewBox="0 0 16 16" width="16px" xmlns="http://www.w3.org/2000/svg">
    <path d="m 12.96875 0 c -1.640625 0 -2.96875 1.328125 -2.96875 2.96875 c 0 0.144531 0.011719 0.292969 0.03125 0.4375 l -4.976562 2.417969 c -0.550782 -0.527344 -1.289063 -0.824219 -2.054688 -0.824219 c -1.640625 0 -2.96875 1.328125 -2.96875 2.96875 s 1.328125 2.96875 2.96875 2.96875 c 0.773438 0 1.515625 -0.300781 2.070312 -0.835938 l 4.953126 2.492188 c -0.015626 0.125 -0.023438 0.25 -0.023438 0.375 c 0 1.640625 1.328125 2.96875 2.96875 2.96875 s 2.96875 -1.328125 2.96875 -2.96875 s -1.328125 -2.96875 -2.96875 -2.96875 c -0.757812 0 -1.488281 0.289062 -2.039062 0.8125 l -4.980469 -2.507812 c 0.011719 -0.113282 0.019531 -0.222657 0.019531 -0.335938 c 0 -0.117188 -0.007812 -0.234375 -0.023438 -0.351562 l 5.03125 -2.449219 c 0.542969 0.496093 1.253907 0.769531 1.992188 0.769531 c 1.640625 0 2.96875 -1.328125 2.96875 -2.96875 s -1.328125 -2.96875 -2.96875 -2.96875 z m 0 0" fill="#222222"/>
</svg>
