<?xml version="1.0" encoding="UTF-8"?>
<svg height="16px" viewBox="0 0 16 16" width="16px" xmlns="http://www.w3.org/2000/svg">
    <path d="m 8 1.007812 c -2.050781 0 -4.097656 0.777344 -5.65625 2.335938 c -3.117188 3.117188 -3.117188 8.195312 0 11.3125 c 0.390625 0.390625 1.023438 0.390625 1.414062 0 c 0.390626 -0.390625 0.390626 -1.023438 0 -1.414062 c -2.351562 -2.351563 -2.351562 -6.132813 0 -8.484376 c 2.351563 -2.351562 6.132813 -2.351562 8.484376 0 c 1.972656 1.972657 2.289062 4.953126 0.953124 7.25 c -0.257812 0.441407 -0.574218 0.855469 -0.953124 1.234376 c -0.390626 0.390624 -0.390626 1.023437 0 1.414062 c 0.390624 0.390625 1.023437 0.390625 1.414062 0 c 3.117188 -3.117188 3.117188 -8.195312 0 -11.3125 c -1.558594 -1.558594 -3.605469 -2.335938 -5.65625 -2.335938 z m 5.195312 11 l -0.363281 -1.367187 l -2.832031 -1.636719 c 0 -0.714844 -0.382812 -1.371094 -1 -1.730468 c -0.957031 -0.550782 -2.179688 -0.222657 -2.730469 0.734374 c -0.554687 0.953126 -0.226562 2.179688 0.730469 2.730469 c 0.617188 0.355469 1.378906 0.351563 1.996094 -0.003906 l 2.835937 1.636719 z m 0 0" fill="#2e3434"/>
    <path d="m 12 9 c 0 0.363281 -0.050781 0.722656 -0.148438 1.074219 l 0.980469 0.566406 l 0.363281 1.367187 c 0.539063 -0.929687 0.808594 -1.96875 0.8125 -3.007812 z m 1.195312 3.007812 l -1.363281 0.363282 l -0.988281 -0.570313 c -0.007812 0.007813 -0.015625 0.011719 -0.023438 0.019531 l 1.421876 1.421876 c 0.378906 -0.378907 0.695312 -0.792969 0.953124 -1.234376 z m 0 0" fill="#2e3436" fill-opacity="0.34902"/>
</svg>
