<?xml version="1.0" encoding="UTF-8"?>
<svg height="16px" viewBox="0 0 16 16" width="16px" xmlns="http://www.w3.org/2000/svg">
    <path d="m 7 0 v 1.996094 h -4.03125 c -1.648438 0 -2.9804688 1.332031 -2.9804688 2.980468 v 2.890626 c -0.0078124 0.046874 -0.0117187 0.09375 -0.0078124 0.140624 v 3.75 c -0.0039063 0.066407 0.0039062 0.136719 0.0078124 0.207032 c 0 0.058594 0.00781255 0.121094 0.0195313 0.183594 c 0.1601565 1.128906 1.0117185 2.035156 2.1132815 2.28125 c 0.289062 0.902343 1.136718 1.558593 2.136718 1.558593 c 1.148438 0 2.101563 -0.871093 2.230469 -1.988281 h 0.011719 h 2.527344 c 0.125 1.117188 1.078125 1.988281 2.230468 1.988281 c 0.980469 0 1.816407 -0.632812 2.121094 -1.511719 c 1.472656 -0.171874 2.613282 -1.421874 2.613282 -2.941406 v -1.332031 c 0 -1.765625 -1.429688 -3.195313 -3.195313 -3.195313 h -0.429687 l -0.84375 -2.476562 c -0.519532 -1.511719 -1.929688 -2.527344 -3.523438 -2.535156 v -1.996094 z m -4.03125 3.996094 h 5.011719 c 0.75 0 1.40625 0.472656 1.648437 1.179687 l 0.625 1.832031 h -8.265625 v -2.03125 c 0 -0.554687 0.425781 -0.980468 0.980469 -0.980468 z m -0.980469 5.011718 h 10.808594 c 0.601563 0 1.085937 0.421876 1.179687 0.992188 h -0.976562 v 1 h 0.992188 v 0.535156 c 0 0.511719 -0.375 0.914063 -0.875 0.957032 c -0.402344 -0.597657 -1.085938 -0.992188 -1.859376 -0.992188 c -0.980468 0 -1.8125 0.625 -2.117187 1.5 h -2.640625 c -0.042969 0 -0.082031 0.007812 -0.121094 0.015625 c -0.304687 -0.882813 -1.140625 -1.515625 -2.121094 -1.515625 c -0.753906 0 -1.421874 0.371094 -1.828124 0.941406 c -0.234376 -0.09375 -0.398438 -0.296875 -0.441407 -0.554687 v -1.855469 h 0.980469 v -1 h -0.980469 z m 1.980469 0.023438 v 0.96875 h -0.96875 v 1 h 1 v -0.96875 h 0.96875 v -1 z m 2 0 v 0.96875 h -0.96875 v 1 h 1 v -0.96875 h 0.96875 v -1 z m 2 0 v 0.96875 h -0.96875 v 1 h 1 v -0.96875 h 0.96875 v -1 z m 2 0 v 0.96875 h -0.96875 v 1 h 1 v -0.96875 h 0.96875 v -1 z m 2 0 v 0.96875 h -0.96875 v 1 h 1 v -0.96875 h 0.96875 v -1 z m -7.710938 4.269531 c 0.253907 0 0.445313 0.1875 0.445313 0.445313 c 0 0.253906 -0.191406 0.445312 -0.445313 0.445312 c -0.257812 0 -0.445312 -0.191406 -0.445312 -0.445312 c 0 -0.257813 0.1875 -0.445313 0.445312 -0.445313 z m 7 0 c 0.253907 0 0.445313 0.1875 0.445313 0.445313 c 0 0.253906 -0.191406 0.445312 -0.445313 0.445312 c -0.257812 0 -0.445312 -0.191406 -0.445312 -0.445312 c 0 -0.257813 0.1875 -0.445313 0.445312 -0.445313 z m 0 0" fill="#222222"/>
</svg>
