<?xml version="1.0" encoding="UTF-8"?>
<svg height="16px" viewBox="0 0 16 16" width="16px" xmlns="http://www.w3.org/2000/svg">
    <path d="m 0.976562 2 v 7.386719 c 0 1.984375 1.628907 3.613281 3.613282 3.613281 h 4.777344 c 1.980468 0 3.609374 -1.628906 3.609374 -3.613281 v -0.386719 c 1.644532 0 3 -1.355469 3 -3 v -3 h -3 v -1 z m 2 2 h 3 v 0.761719 l -2 1.488281 v 3.75 h 5.027344 v -3.75 l -2.027344 -1.511719 v -0.738281 h 4 v 5.386719 c 0 0.910156 -0.703124 1.613281 -1.609374 1.613281 h -4.777344 c -0.910156 0 -1.613282 -0.703125 -1.613282 -1.613281 z m 10 1 h 1 v 1 c 0 0.5625 -0.4375 1 -1 1 z m -6.484374 0.625 l 1.511718 1.125 v 2.25 h -3.027344 v -2.25 z m -5.589844 8.375 c -0.515625 0 -0.9257815 0.410156 -0.9257815 0.925781 v 0.148438 c 0 0.515625 0.4101565 0.925781 0.9257815 0.925781 h 12.148437 c 0.511719 0 0.925781 -0.410156 0.925781 -0.925781 v -0.148438 c 0 -0.515625 -0.414062 -0.925781 -0.925781 -0.925781 z m 0 0" fill="#222222"/>
</svg>
