<?xml version="1.0" encoding="UTF-8"?>
<svg height="16px" viewBox="0 0 16 16" width="16px" xmlns="http://www.w3.org/2000/svg">
    <path d="m 8.015625 -0.00390625 c -0.296875 -0.00390625 -0.578125 0.12500025 -0.773437 0.34765625 c -0.191407 0.226562 -0.273438 0.523438 -0.226563 0.816406 v 2.835938 h 2 v -1.914063 c 2.378906 0.398438 4.320313 2.195313 4.855469 4.613281 c 0.613281 2.753907 -0.765625 5.546876 -3.320313 6.738282 c -2.554687 1.191406 -5.578125 0.453125 -7.296875 -1.785156 c -1.714844 -2.238282 -1.644531 -5.351563 0.167969 -7.507813 c 0.351563 -0.425781 0.296875 -1.054687 -0.125 -1.410156 c -0.425781 -0.355469 -1.054687 -0.300781 -1.410156 0.121093 c -2.40625 2.871094 -2.496094 7.042969 -0.214844 10.011719 c 2.277344 2.972657 6.332031 3.964844 9.726563 2.382813 c 3.390624 -1.582032 5.238281 -5.324219 4.429687 -8.980469 c -0.8125 -3.660156 -4.066406 -6.26953125 -7.8125 -6.26953125 z m -3.011719 3.98828125 c -0.40625 0.003906 -0.769531 0.25 -0.925781 0.625 c -0.152344 0.378906 -0.0625 0.808594 0.230469 1.09375 l 1.777344 1.777344 c -0.183594 0.6875 0.011718 1.425781 0.515624 1.929687 c 0.78125 0.78125 2.046876 0.78125 2.828126 0 s 0.78125 -2.046875 0 -2.828125 c -0.503907 -0.503906 -1.242188 -0.699219 -1.929688 -0.515625 l -1.777344 -1.777344 c -0.1875 -0.195312 -0.445312 -0.300781 -0.71875 -0.304687 z m 0 0" fill="#222222"/>
</svg>
