<?xml version="1.0" encoding="UTF-8"?>
<svg height="16px" viewBox="0 0 16 16" width="16px" xmlns="http://www.w3.org/2000/svg">
    <path d="m 7 0 v 1.074219 c -3.058594 0.4375 -5.488281 2.867187 -5.929688 5.925781 h -1.070312 v 2 h 1.070312 c 0.441407 3.058594 2.871094 5.488281 5.929688 5.925781 v 1.074219 h 2 v -1.074219 c 3.054688 -0.4375 5.484375 -2.871093 5.925781 -5.925781 h 1.074219 v -2 h -1.074219 c -0.441406 -3.054688 -2.871093 -5.488281 -5.925781 -5.925781 v -1.074219 z m 1 3 c 2.773438 0 5 2.226562 5 5 s -2.226562 5 -5 5 s -5 -2.226562 -5 -5 s 2.226562 -5 5 -5 z m -2 3 v 4 h 4 v -4 z m 1 1 h 2 v 2 h -2 z m 0 0" fill="#222222"/>
</svg>
