<?xml version="1.0" encoding="UTF-8"?>
<svg height="16px" viewBox="0 0 16 16" width="16px" xmlns="http://www.w3.org/2000/svg">
    <g fill="#222222">
        <path d="m 11.199219 0 c -0.664063 0 -1.199219 0.535156 -1.199219 1.199219 v 5.601562 c 0 0.066407 0.003906 0.132813 0.015625 0.199219 h -0.015625 v 1 h -10 c 0 2.144531 1.144531 4.125 3 5.195312 c 0.910156 0.527344 1.945312 0.804688 3 0.804688 v 1 h -1.5 c -0.277344 0 -0.5 0.222656 -0.5 0.5 s 0.222656 0.5 0.5 0.5 h 8 c 0.277344 0 0.5 -0.222656 0.5 -0.5 s -0.222656 -0.5 -0.5 -0.5 h -1.5 v -3.683594 c 0.652344 -0.984375 1 -2.136718 1 -3.316406 h 2.800781 c 0.664063 0 1.199219 -0.535156 1.199219 -1.199219 v -5.601562 c 0 -0.664063 -0.535156 -1.199219 -1.199219 -1.199219 z m 0 0"/>
        <path d="m 1 5 c -0.554688 0 -1 0.445312 -1 1 s 0.445312 1 1 1 h 8 v -1 c 0 -0.554688 -0.445312 -1 -1 -1 z m 0 0"/>
    </g>
</svg>
