<?xml version="1.0" encoding="UTF-8"?>
<svg height="16px" viewBox="0 0 16 16" width="16px" xmlns="http://www.w3.org/2000/svg">
    <path d="m 1.53125 0.46875 l -1.0625 1.0625 l 0.394531 0.390625 v 0.003906 l 1.402344 1.398438 l 9.675781 9.675781 l 1.570313 1.574219 l 0.957031 0.957031 l 1.0625 -1.0625 l -0.957031 -0.957031 c 0.269531 -0.453125 0.425781 -0.980469 0.425781 -1.542969 v -7.9375 c 0 -1.667969 -1.363281 -3.03125 -3.03125 -3.03125 h -8.9375 c -0.292969 0 -0.578125 0.042969 -0.847656 0.121094 z m 2.53125 2.53125 h 7.90625 c 0.597656 0 1.03125 0.433594 1.03125 1.03125 v 5.96875 h -1.9375 z m -3.9648438 0.28125 c -0.0625 0.242188 -0.0976562 0.492188 -0.0976562 0.75 v 7.9375 c 0 1.667969 1.363281 3.03125 3.03125 3.03125 h 8.785156 l -2 -2 h -1.816406 v -1.816406 l -1.183594 -1.183594 h -4.816406 v -4.816406 z m 1.9023438 7.71875 h 5 v 2 h -3.96875 c -0.597656 0 -1.03125 -0.433594 -1.03125 -1.03125 z m 10.0625 0 h 0.9375 v 0.9375 z m 0 0" fill="#222222"/>
</svg>
