<?xml version="1.0" encoding="UTF-8"?>
<svg height="16px" viewBox="0 0 16 16" width="16px" xmlns="http://www.w3.org/2000/svg">
    <path d="m 7 0 c -1.855469 0 -3.425781 1.28125 -3.871094 3 h -1.128906 c -0.40625 0 -0.769531 0.242188 -0.921875 0.617188 c -0.15625 0.375 -0.070313 0.804687 0.214844 1.089843 l 1.292969 1.292969 h -0.585938 c -0.40625 0 -0.769531 0.242188 -0.921875 0.617188 c -0.15625 0.375 -0.070313 0.804687 0.214844 1.089843 l 1.292969 1.292969 h -0.585938 c -0.40625 0 -0.769531 0.242188 -0.921875 0.617188 c -0.15625 0.375 -0.070313 0.804687 0.214844 1.089843 l 2 2 c 0.046875 0.046875 0.101562 0.089844 0.15625 0.125 c 0.667969 1.285157 2.011719 2.167969 3.550781 2.167969 h 1 c 1.539062 0 2.882812 -0.882812 3.550781 -2.167969 c 0.054688 -0.035156 0.109375 -0.078125 0.15625 -0.125 l 2 -2 c 0.285157 -0.285156 0.371094 -0.714843 0.214844 -1.089843 c -0.152344 -0.375 -0.515625 -0.617188 -0.921875 -0.617188 h -0.585938 l 1.292969 -1.292969 c 0.285157 -0.285156 0.371094 -0.714843 0.214844 -1.089843 c -0.152344 -0.375 -0.515625 -0.617188 -0.921875 -0.617188 h -0.585938 l 1.292969 -1.292969 c 0.285157 -0.285156 0.371094 -0.714843 0.214844 -1.089843 c -0.152344 -0.375 -0.515625 -0.617188 -0.921875 -0.617188 h -1.128906 c -0.445313 -1.71875 -2.015625 -3 -3.871094 -3 z m 0 2 h 1 c 1.125 0 2 0.875 2 2 v 7 c 0 1.125 -0.875 2 -2 2 h -1 c -1.125 0 -2 -0.875 -2 -2 v -7 c 0 -1.125 0.875 -2 2 -2 z m 0.5 1 c -0.828125 0 -1.5 0.671875 -1.5 1.5 s 0.671875 1.5 1.5 1.5 s 1.5 -0.671875 1.5 -1.5 s -0.671875 -1.5 -1.5 -1.5 z m 0 3 c -0.828125 0 -1.5 0.671875 -1.5 1.5 s 0.667969 1.496094 1.496094 1.5 c -0.828125 0.003906 -1.496094 0.671875 -1.496094 1.5 s 0.671875 1.5 1.5 1.5 s 1.5 -0.671875 1.5 -1.5 s -0.671875 -1.5 -1.496094 -1.5 c 0.824219 0 1.496094 -0.671875 1.496094 -1.5 s -0.671875 -1.5 -1.5 -1.5 z m 0 0" fill="#222222"/>
</svg>
