<?xml version="1.0" encoding="UTF-8"?>
<svg height="16px" viewBox="0 0 16 16" width="16px" xmlns="http://www.w3.org/2000/svg">
    <path d="m 8 0 c -1.042969 0 -2.085938 0.136719 -3.105469 0.410156 c -0.535156 0.140625 -0.851562 0.691406 -0.707031 1.222656 c 0.140625 0.535157 0.691406 0.851563 1.222656 0.707032 c 0.523438 -0.140625 1.054688 -0.234375 1.589844 -0.289063 v 0.949219 h -1.03125 c -1.660156 0 -3 1.339844 -3 3 v 5.996094 c 0 0.65625 0.210938 1.265625 0.566406 1.757812 l -1.367187 1.367188 c -0.195313 0.195312 -0.195313 0.511718 0 0.707031 c 0.195312 0.195313 0.511719 0.195313 0.707031 0 l 1.371094 -1.371094 c 0.488281 0.339844 1.082031 0.539063 1.722656 0.539063 h 4.03125 c 0.652344 0 1.253906 -0.207032 1.746094 -0.558594 l 1.390625 1.390625 c 0.195312 0.195313 0.511719 0.195313 0.707031 0 s 0.195312 -0.511719 0 -0.707031 l -1.394531 -1.390625 c 0.347656 -0.488281 0.550781 -1.085938 0.550781 -1.734375 v -5.996094 c 0 -1.660156 -1.339844 -3 -3 -3 h -1 v -0.949219 c 0.535156 0.054688 1.066406 0.148438 1.589844 0.289063 c 0.53125 0.144531 1.082031 -0.171875 1.222656 -0.707032 c 0.144531 -0.53125 -0.171875 -1.082031 -0.707031 -1.222656 c -1.015625 -0.273437 -2.0625 -0.410156 -3.105469 -0.410156 z m -2.03125 5 h 4.03125 c 0.554688 0 1 0.445312 1 1 v 3 h -6.03125 v -3 c 0 -0.554688 0.445312 -1 1 -1 z m -1 5 h 6.03125 v 1.996094 c 0 0.554687 -0.445312 1 -1 1 h -4.03125 c -0.554688 0 -1 -0.445313 -1 -1 z m 3.03125 0.492188 c -0.550781 0 -1 0.449218 -1 1 c 0 0.550781 0.449219 1 1 1 s 1 -0.449219 1 -1 c 0 -0.550782 -0.449219 -1 -1 -1 z m 0 0" fill="#222222"/>
</svg>
