<?xml version="1.0" encoding="UTF-8"?>
<svg height="16px" viewBox="0 0 16 16" width="16px" xmlns="http://www.w3.org/2000/svg">
    <path d="m 1 5 h 5.5 c 1.9375 0 3.5 1.5625 3.5 3.5 s -1.5625 3.5 -3.5 3.5 h -0.5 c -0.550781 0 -1 -0.449219 -1 -1 s 0.449219 -1 1 -1 h 0.5 c 0.839844 0 1.5 -0.660156 1.5 -1.5 s -0.660156 -1.5 -1.5 -1.5 h -5.5 c -0.550781 0 -1 -0.449219 -1 -1 s 0.449219 -1 1 -1 z m 0 0"/>
    <path d="m 2.292969 8.71875 l -2 -2 c -0.3906252 -0.390625 -0.3906252 -1.023438 0 -1.414062 l 2 -2 c 0.253906 -0.253907 0.621093 -0.351563 0.96875 -0.257813 c 0.34375 0.089844 0.613281 0.359375 0.707031 0.707031 c 0.089844 0.34375 -0.007812 0.714844 -0.261719 0.964844 l -2 2 v -1.414062 l 2 2 c 0.253907 0.253906 0.351563 0.621093 0.261719 0.96875 c -0.09375 0.34375 -0.363281 0.617187 -0.707031 0.707031 c -0.347657 0.09375 -0.714844 -0.007813 -0.96875 -0.261719 z m 0 0"/>
    <path d="m 6.5 0 c -1.308594 0 -2.386719 1.007812 -2.492188 2.289062 c 0.382813 0.226563 0.699219 0.574219 0.859376 0.992188 c 0.089843 0.226562 0.058593 0.472656 0.058593 0.71875 h 1.578125 c 1.066406 0 2.050782 0.375 2.824219 1 h 2.671875 v 8 c 0 0.5625 -0.4375 1 -1 1 h -6 c -0.5625 0 -1 -0.4375 -1 -1 v -3.273438 c -0.605469 0.332032 -1.394531 0.335938 -2 0.011719 v 3.261719 c 0 1.65625 1.34375 3 3 3 h 6 c 1.65625 0 3 -1.34375 3 -3 v -8 h 1 c 1.332031 0 1.332031 -2 0 -2 h -3.023438 v -0.5 c 0 -1.378906 -1.117187 -2.5 -2.5 -2.5 z m 0 2 h 2.976562 c 0.289063 0 0.5 0.210938 0.5 0.5 v 0.5 h -3.976562 v -0.5 c 0 -0.289062 0.210938 -0.5 0.5 -0.5 z m 0 0"/>
</svg>
