<?xml version="1.0" encoding="UTF-8"?>
<svg height="16px" viewBox="0 0 16 16" width="16px" xmlns="http://www.w3.org/2000/svg">
    <path d="m 4 0 c -2.199219 0 -4 1.800781 -4 4 v 5 c 0 2.199219 1.800781 4 4 4 h 3 v 2 c 0 0.550781 0.449219 1 1 1 s 1 -0.449219 1 -1 v -2 h 3 c 2.199219 0 4 -1.800781 4 -4 v -5 c 0 -2.199219 -1.800781 -4 -4 -4 z m 0 2 h 8 c 1.125 0 2 0.875 2 2 v 5 c 0 1.125 -0.875 2 -2 2 h -3 v -1.300781 l 1.820312 -1.84375 c 0.195313 -0.195313 0.195313 -0.515625 0 -0.710938 c -0.089843 -0.09375 -0.21875 -0.144531 -0.351562 -0.144531 s -0.261719 0.050781 -0.355469 0.144531 l -1.113281 1.132813 v -2.277344 c 0 -0.550781 -0.449219 -1 -1 -1 s -1 0.449219 -1 1 v 5 h -3 c -1.125 0 -2 -0.875 -2 -2 v -5 c 0 -1.125 0.875 -2 2 -2 z m 0 0" fill="#222222"/>
</svg>
