<?xml version="1.0" encoding="UTF-8"?>
<svg height="16px" viewBox="0 0 16 16" width="16px" xmlns="http://www.w3.org/2000/svg">
    <path d="m 8 0.0429688 c -1.0625 0 -2.125 0.5000002 -2.742188 1.5000002 l -4.21875 6.863281 c -1.210937 1.964844 0.257813 4.59375 2.5625 4.59375 h 3.398438 v 2 c 0 0.550781 0.449219 1 1 1 s 1 -0.449219 1 -1 v -2 h 3.394531 c 2.308594 0 3.777344 -2.628906 2.570313 -4.59375 l -4.226563 -6.863281 c -0.613281 -1 -1.675781 -1.5000002 -2.738281 -1.5000002 z m 0 1.9453122 c 0.394531 0 0.789062 0.199219 1.039062 0.605469 l 4.21875 6.863281 c 0.445313 0.71875 -0.015624 1.542969 -0.863281 1.542969 h -3.394531 v -1.300781 l 1.820312 -1.84375 c 0.195313 -0.195313 0.195313 -0.515625 0 -0.710938 c -0.089843 -0.09375 -0.21875 -0.144531 -0.351562 -0.144531 s -0.261719 0.050781 -0.355469 0.144531 l -1.113281 1.132813 v -2.277344 c 0 -0.550781 -0.449219 -1 -1 -1 s -1 0.449219 -1 1 v 5 h -3.398438 c -0.84375 0 -1.304687 -0.824219 -0.863281 -1.542969 l 4.226563 -6.863281 c 0.246094 -0.40625 0.640625 -0.605469 1.035156 -0.605469 z m 0 0" fill="#222222"/>
</svg>
