<?xml version="1.0" encoding="UTF-8"?>
<svg height="16px" viewBox="0 0 16 16" width="16px" xmlns="http://www.w3.org/2000/svg">
    <path d="m 3.5 0 c -0.652344 0 -1.207031 0.417969 -1.414062 1 h -2.085938 v 1 h 2.085938 c 0.207031 0.582031 0.761718 1 1.414062 1 c 0.40625 0 0.769531 -0.160156 1.039062 -0.421875 l 2.84375 1.421875 h -4.523437 c -1.582031 0 -2.859375 1.28125 -2.859375 2.859375 v 3.300781 c -0.0078125 0.074219 -0.0117188 0.148438 -0.0117188 0.21875 v 1.375 c 0 0.082032 0.0039063 0.164063 0.0117188 0.242188 v 0.046875 c 0 0.121093 0.0234375 0.242187 0.0625 0.351562 c 0.242188 1.015625 1.046875 1.8125 2.070312 2.039063 c 0.367188 0.910156 1.265626 1.554687 2.3125 1.554687 c 1.199219 0 2.207032 -0.855469 2.441407 -1.988281 h 2.183593 c 0.234376 1.132812 1.242188 1.988281 2.445313 1.988281 c 1.0625 0 1.972656 -0.667969 2.328125 -1.601562 c 1.246094 -0.351563 2.15625 -1.496094 2.15625 -2.851563 v -0.335937 c 0.015625 -0.082031 0.023438 -0.167969 0.019531 -0.25 c -0.003906 -0.09375 -0.011719 -0.1875 -0.019531 -0.277344 v -0.292969 c 0 -0.304687 -0.058594 -0.59375 -0.160156 -0.863281 c -0.113282 -0.550781 -0.277344 -1.089844 -0.480469 -1.613281 l 0.007813 0.023437 l -0.507813 -1.488281 c -0.5 -1.460938 -1.863281 -2.4375 -3.40625 -2.4375 h -1.835937 l -4 -2 h 10.382812 v -1 h -11.085938 c -0.207031 -0.582031 -0.761718 -1 -1.414062 -1 z m 0 1 c 0.28125 0 0.5 0.21875 0.5 0.5 s -0.21875 0.5 -0.5 0.5 s -0.5 -0.21875 -0.5 -0.5 s 0.21875 -0.5 0.5 -0.5 z m -0.640625 5 h 1.140625 v 2 h -1.628906 c -0.125 0 -0.25 0.011719 -0.371094 0.03125 v -1.171875 c 0 -0.484375 0.371094 -0.859375 0.859375 -0.859375 z m 2.15625 0 h 1.984375 v 2 h -1.984375 z m 2.984375 0 h 2 v 2 h -2 z m 3 0 h 0.453125 c 0.6875 0 1.289063 0.429688 1.511719 1.082031 l 0.3125 0.917969 h -2.277344 z m -8.628906 4 h 11.25 c 0.125 0 0.230468 0.050781 0.300781 0.136719 c 0.035156 0.203125 0.058594 0.410156 0.078125 0.617187 v 0.78125 c 0 0.292969 -0.121094 0.546875 -0.316406 0.722656 c -0.433594 -0.75 -1.242188 -1.257812 -2.167969 -1.257812 c -1.207031 0 -2.214844 0.859375 -2.445313 2 h -2.179687 c -0.230469 -1.140625 -1.238281 -2 -2.445313 -2 c -0.953124 0 -1.785156 0.535156 -2.203124 1.324219 c -0.125 -0.109375 -0.214844 -0.261719 -0.242188 -0.4375 v -1.601563 c 0.039062 -0.171875 0.179688 -0.285156 0.371094 -0.285156 z m 2.074218 3 c 0.28125 0 0.492188 0.210938 0.492188 0.496094 c 0 0.28125 -0.210938 0.492187 -0.492188 0.492187 c -0.285156 0 -0.496093 -0.210937 -0.496093 -0.492187 c 0 -0.285156 0.210937 -0.496094 0.496093 -0.496094 z m 7.070313 0 c 0.285156 0 0.492187 0.210938 0.492187 0.496094 c 0 0.28125 -0.207031 0.492187 -0.492187 0.492187 s -0.496094 -0.210937 -0.496094 -0.492187 c 0 -0.285156 0.210938 -0.496094 0.496094 -0.496094 z m 0 0" fill="#222222"/>
</svg>
