<?xml version="1.0" encoding="UTF-8"?>
<svg height="16px" viewBox="0 0 16 16" width="16px" xmlns="http://www.w3.org/2000/svg">
    <path d="m 1.53125 0.457031 l -1.0625 1.0625 l 14 14 l 1.0625 -1.0625 l -4.359375 -4.359375 c 0.453125 -0.394531 0.917969 -0.824218 1.390625 -1.296875 l -3.535156 -3.535156 l -1.34375 1.34375 z m 12.753906 0.125 c -0.382812 0.011719 -0.746094 0.171875 -1.015625 0.441407 l -3.535156 3.535156 l 1.414063 1.414062 l 2.535156 -2.535156 c 0.574218 0.273438 1.257812 0.15625 1.707031 -0.292969 c 0.585937 -0.585937 0.585937 -1.535156 0 -2.121093 c -0.292969 -0.292969 -0.691406 -0.453126 -1.105469 -0.441407 z m -8.726562 8.152344 l -5.015625 5.019531 c 0.558593 0.554688 3.765625 1.097656 8.21875 -1.820312 z m 0 0" fill="#222222"/>
</svg>
