<?xml version="1.0" encoding="UTF-8"?>
<svg height="16px" viewBox="0 0 16 16" width="16px" xmlns="http://www.w3.org/2000/svg">
    <path d="m 5 2.988281 v 1.992188 c -0.003906 -0.550781 -0.449219 -0.992188 -1 -0.992188 h -3 v 1 h 2 c 0.550781 0 1 0.449219 1 1 v 0.394531 c -1.046875 0.425782 -1.945312 1.179688 -2.542969 2.179688 l -0.75 1.25 c -0.464843 0.769531 -0.707031 1.648438 -0.707031 2.546875 v 0.628906 c 0 0.550781 0.449219 1 1 1 h 3 c 0.550781 0 1 -0.449219 1 -1 v -3 c 0 -0.550781 0.449219 -1 1 -1 c 0.195312 0.980469 0.960938 1.792969 2 2 v -2 h 3 v -3 h 5 v -3 h -1 l -1 1 h -3 v -1 z m 2 1 h 3 v 1 h -3 z m 0 2 h 3 v 1 h -3 z m 0 0" fill="#222222"/>
</svg>
