<?xml version="1.0" encoding="UTF-8"?>
<svg height="16px" viewBox="0 0 16 16" width="16px" xmlns="http://www.w3.org/2000/svg">
    <g fill="#222222">
        <path d="m 1.53125 0.457031 l -1.0625 1.0625 l 2.472656 2.46875 h -0.015625 l 4.984375 5 h 0.03125 l 6.527344 6.53125 l 1.0625 -1.0625 l -5.46875 -5.46875 h 0.9375 v -3 h 5 v -3 h -1 l -1 1 h -3 v -1 h -6 v 0.9375 z m 5.46875 3.53125 h 3 v 1 h -3 z m 0.0625 2 h 2.9375 v 1 h -1.9375 z m 0 0"/>
        <path d="m 3.550781 6.601562 c -0.839843 0.445313 -1.5625 1.117188 -2.066406 1.960938 l -0.75 1.25 c -0.460937 0.769531 -0.7070312 1.648438 -0.7070312 2.546875 v 0.628906 c 0 0.550781 0.4492182 1 1.0000002 1 h 3 c 0.550781 0 1 -0.449219 1 -1 v -3 c 0 -0.484375 0.34375 -0.886719 0.796875 -0.980469 z m 0 0"/>
    </g>
</svg>
