<?xml version="1.0" encoding="UTF-8"?>
<svg height="16px" viewBox="0 0 16 16" width="16px" xmlns="http://www.w3.org/2000/svg">
    <g fill="#222222">
        <path d="m 9.5 1.5 c 0 0.828125 -0.671875 1.5 -1.5 1.5 s -1.5 -0.671875 -1.5 -1.5 s 0.671875 -1.5 1.5 -1.5 s 1.5 0.671875 1.5 1.5 z m 0 0"/>
        <path d="m 6 4 c -0.101562 0 -0.207031 0.019531 -0.300781 0.0625 c 0 0 -2.113281 0.847656 -2.199219 2.90625 v 0.03125 v 2.25 c 0 0.414062 0.335938 0.75 0.75 0.75 s 0.75 -0.335938 0.75 -0.75 v -2.21875 c 0.027344 -0.699219 0.652344 -1.1875 1 -1.410156 v 3.378906 c 0 0.265625 0.105469 0.519531 0.292969 0.707031 l 0.445312 0.449219 l -2.59375 4.328125 c -0.285156 0.476563 -0.132812 1.089844 0.34375 1.375 c 0.472657 0.28125 1.085938 0.128906 1.371094 -0.34375 l 2.335937 -3.902344 l 0.929688 0.929688 l 0.925781 2.773437 c 0.082031 0.25 0.265625 0.460938 0.5 0.578125 c 0.238281 0.121094 0.515625 0.140625 0.765625 0.054688 c 0.25 -0.082031 0.460938 -0.265625 0.578125 -0.5 c 0.121094 -0.238281 0.140625 -0.515625 0.054688 -0.765625 l -1 -3 c -0.050781 -0.148438 -0.132813 -0.28125 -0.242188 -0.390625 l -1.707031 -1.707031 v -3.160157 l 0.582031 1.160157 c 0.097657 0.195312 0.273438 0.339843 0.488281 0.394531 l 2 0.5 c 0.191407 0.046875 0.394532 0.015625 0.566407 -0.085938 c 0.171875 -0.101562 0.292969 -0.269531 0.339843 -0.460937 c 0.050782 -0.195313 0.019532 -0.398438 -0.082031 -0.570313 c -0.101562 -0.171875 -0.269531 -0.292969 -0.460937 -0.34375 l -1.667969 -0.414062 l -1.09375 -2.191407 c -0.128906 -0.253906 -0.386719 -0.414062 -0.671875 -0.414062 z m 0 0"/>
    </g>
</svg>
