<?xml version="1.0" encoding="UTF-8"?>
<svg height="16px" viewBox="0 0 16 16" width="16px" xmlns="http://www.w3.org/2000/svg">
    <path d="m 0 0 v 16 h 16 v -16 z m 6 2 h 4 v 2 h -4 z m -2 7 h 8 v 2 h -8 z m 0 0" fill="#222222" fill-opacity="0.14902"/>
    <path d="m 10.164062 2 c -0.003906 0 -0.011718 0 -0.019531 -0.003906 c -0.007812 0 -0.015625 0 -0.023437 -0.003906 c -0.007813 0 -0.007813 0 -0.015625 -0.003907 c -0.007813 -0.003906 -0.011719 -0.003906 -0.015625 -0.007812 c -0.007813 0 -0.011719 -0.003907 -0.015625 -0.007813 c -0.003907 -0.003906 -0.007813 -0.003906 -0.011719 -0.007812 s -0.003906 -0.003906 -0.007812 -0.007813 c -0.027344 -0.023437 -0.046876 -0.058593 -0.054688 -0.097656 c 0 -0.007813 0 -0.015625 0 -0.023437 v 2.332031 c 0 -0.007813 0 -0.015625 0 -0.023438 c 0.003906 -0.007812 0.003906 -0.015625 0.007812 -0.019531 c 0 -0.011719 0 -0.011719 0.003907 -0.019531 c 0.003906 -0.003907 0.003906 -0.011719 0.007812 -0.015625 c 0.003907 -0.007813 0.003907 -0.011719 0.007813 -0.015625 c 0.003906 -0.003907 0.003906 -0.007813 0.007812 -0.007813 c 0.003906 -0.003906 0.003906 -0.007812 0.007813 -0.011718 c 0.023437 -0.027344 0.0625 -0.046876 0.097656 -0.050782 c 0.007813 0 0.015625 -0.003906 0.023437 -0.003906 h -4.328124 c 0.003906 0 0.011718 0 0.019531 0.003906 c 0.007812 0 0.015625 0.003906 0.023437 0.003906 c 0.007813 0.003907 0.007813 0.003907 0.015625 0.003907 c 0.007813 0.003906 0.011719 0.007812 0.015625 0.007812 c 0.007813 0.003907 0.011719 0.003907 0.015625 0.007813 c 0.003907 0.003906 0.007813 0.003906 0.011719 0.007812 c 0 0.003906 0.003906 0.007813 0.007812 0.007813 c 0.027344 0.027343 0.046876 0.0625 0.050782 0.097656 c 0.003906 0.011719 0.003906 0.019531 0.003906 0.023437 v -2.328124 v 0.019531 c -0.003906 0.007812 -0.003906 0.015625 -0.007812 0.023437 c 0 0.007813 0 0.007813 -0.003907 0.015625 c -0.003906 0.007813 -0.003906 0.011719 -0.007812 0.015625 c -0.003907 0.007813 -0.003907 0.011719 -0.007813 0.015625 c -0.003906 0.003907 -0.007812 0.007813 -0.007812 0.011719 c -0.003906 0 -0.007813 0.003906 -0.007813 0.007812 c -0.023437 0.027344 -0.0625 0.046876 -0.097656 0.050782 c -0.007813 0.003906 -0.019531 0.003906 -0.023437 0.003906 z m -6.164062 -0.164062 v 2.328124 c 0 1.015626 0.820312 1.835938 1.835938 1.835938 h 4.328124 c 1.015626 0 1.835938 -0.820312 1.835938 -1.835938 v -2.328124 c 0 -1.015626 -0.820312 -1.835938 -1.835938 -1.835938 h -4.328124 c -1.015626 0 -1.835938 0.820312 -1.835938 1.835938 z m 0 0" fill="#222222"/>
    <g fill="#241f31">
        <path d="m 0 0 h 1 v 1 h -1 z m 0 0"/>
        <path d="m 0 2 h 1 v 1 h -1 z m 0 0"/>
        <path d="m 0 4 h 1 v 1 h -1 z m 0 0"/>
        <path d="m 0 6 h 1 v 1 h -1 z m 0 0"/>
        <path d="m 0 8 h 1 v 1 h -1 z m 0 0"/>
        <path d="m 0 10 h 1 v 1 h -1 z m 0 0"/>
        <path d="m 0 12 h 1 v 1 h -1 z m 0 0"/>
        <path d="m 15 0 h 1 v 1 h -1 z m 0 0"/>
        <path d="m 15 2 h 1 v 1 h -1 z m 0 0"/>
        <path d="m 15 4 h 1 v 1 h -1 z m 0 0"/>
        <path d="m 15 6 h 1 v 1 h -1 z m 0 0"/>
        <path d="m 15 8 h 1 v 1 h -1 z m 0 0"/>
        <path d="m 15 10 h 1 v 1 h -1 z m 0 0"/>
        <path d="m 15 12 h 1 v 1 h -1 z m 0 0"/>
    </g>
    <path d="m 12.164062 9 c -0.003906 0 -0.011718 0 -0.019531 -0.003906 c -0.007812 0 -0.015625 0 -0.023437 -0.003906 c -0.007813 0 -0.007813 0 -0.015625 -0.003907 c -0.007813 -0.003906 -0.011719 -0.003906 -0.015625 -0.007812 c -0.007813 0 -0.011719 -0.003907 -0.015625 -0.007813 c -0.003907 -0.003906 -0.007813 -0.003906 -0.011719 -0.007812 s -0.003906 -0.003906 -0.007812 -0.007813 c -0.027344 -0.023437 -0.046876 -0.058593 -0.054688 -0.097656 c 0 -0.007813 0 -0.015625 0 -0.023437 v 2.332031 c 0 -0.007813 0 -0.015625 0 -0.023438 c 0.003906 -0.007812 0.003906 -0.015625 0.007812 -0.019531 c 0 -0.011719 0 -0.011719 0.003907 -0.019531 c 0.003906 -0.003907 0.003906 -0.011719 0.007812 -0.015625 c 0.003907 -0.007813 0.003907 -0.011719 0.007813 -0.015625 c 0.003906 -0.003907 0.003906 -0.007813 0.007812 -0.007813 c 0.003906 -0.003906 0.003906 -0.007812 0.007813 -0.011718 c 0.023437 -0.027344 0.0625 -0.046876 0.097656 -0.050782 c 0.007813 0 0.015625 -0.003906 0.023437 -0.003906 h -8.328124 c 0.003906 0 0.011718 0 0.019531 0.003906 c 0.007812 0 0.015625 0.003906 0.023437 0.003906 c 0.007813 0.003907 0.007813 0.003907 0.015625 0.003907 c 0.007813 0.003906 0.011719 0.007812 0.015625 0.007812 c 0.007813 0.003907 0.011719 0.003907 0.015625 0.007813 c 0.003907 0.003906 0.007813 0.003906 0.011719 0.007812 c 0 0.003906 0.003906 0.007813 0.007812 0.007813 c 0.027344 0.027343 0.046876 0.0625 0.050782 0.097656 c 0.003906 0.011719 0.003906 0.019531 0.003906 0.023437 v -2.328124 v 0.019531 c -0.003906 0.007812 -0.003906 0.015625 -0.007812 0.023437 c 0 0.007813 0 0.007813 -0.003907 0.015625 c -0.003906 0.007813 -0.003906 0.011719 -0.007812 0.015625 c -0.003907 0.007813 -0.003907 0.011719 -0.007813 0.015625 c -0.003906 0.003907 -0.007812 0.007813 -0.007812 0.011719 c -0.003906 0 -0.007813 0.003906 -0.007813 0.007812 c -0.023437 0.027344 -0.0625 0.046876 -0.097656 0.050782 c -0.007813 0.003906 -0.019531 0.003906 -0.023437 0.003906 z m -10.164062 -0.164062 v 2.328124 c 0 1.015626 0.820312 1.835938 1.835938 1.835938 h 8.328124 c 1.015626 0 1.835938 -0.820312 1.835938 -1.835938 v -2.328124 c 0 -1.015626 -0.820312 -1.835938 -1.835938 -1.835938 h -8.328124 c -1.015626 0 -1.835938 0.820312 -1.835938 1.835938 z m 0 0" fill="#222222"/>
    <path d="m 2 14 h 12 v 1 h -12 z m 0 0" fill="#241f31"/>
    <path d="m 14 13 v 3 l 2 -1.5 z m 0 0" fill="#241f31"/>
    <path d="m 2 13 v 3 l -2 -1.5 z m 0 0" fill="#241f31"/>
</svg>
