<?xml version="1.0" encoding="UTF-8"?>
<svg height="16px" viewBox="0 0 16 16" width="16px" xmlns="http://www.w3.org/2000/svg">
    <path d="m 0 16 h 16 v -16 h -16 z m 2 -6 v -4 h 2 v 4 z m 7 2 v -8 h 2 v 8 z m 0 0" fill="#222222" fill-opacity="0.14902"/>
    <path d="m 2 5.835938 c 0 0.003906 0 0.011718 -0.003906 0.019531 c 0 0.007812 0 0.015625 -0.003906 0.023437 c 0 0.007813 0 0.007813 -0.003907 0.015625 c -0.003906 0.007813 -0.003906 0.011719 -0.007812 0.015625 c 0 0.007813 -0.003907 0.011719 -0.007813 0.015625 c -0.003906 0.003907 -0.003906 0.007813 -0.007812 0.011719 c -0.003906 0 -0.003906 0.003906 -0.007813 0.007812 c -0.023437 0.027344 -0.058593 0.046876 -0.097656 0.054688 c -0.007813 0 -0.015625 0 -0.023437 0 h 2.332031 c -0.007813 0 -0.015625 0 -0.023438 0 c -0.007812 -0.003906 -0.015625 -0.003906 -0.019531 -0.007812 c -0.011719 0 -0.011719 0 -0.019531 -0.003907 c -0.003907 -0.003906 -0.011719 -0.003906 -0.015625 -0.007812 c -0.007813 -0.003907 -0.011719 -0.003907 -0.015625 -0.007813 c -0.003907 -0.003906 -0.007813 -0.003906 -0.007813 -0.007812 c -0.003906 -0.003906 -0.007812 -0.003906 -0.011718 -0.007813 c -0.027344 -0.023437 -0.046876 -0.0625 -0.050782 -0.097656 c -0.003906 -0.007813 -0.003906 -0.015625 -0.003906 -0.023437 v 4.328124 c 0 -0.003906 0 -0.011718 0.003906 -0.019531 c 0 -0.007812 0.003906 -0.015625 0.003906 -0.023437 c 0.003907 -0.007813 0.003907 -0.007813 0.003907 -0.015625 c 0.003906 -0.007813 0.007812 -0.011719 0.007812 -0.015625 c 0.003907 -0.007813 0.003907 -0.011719 0.007813 -0.015625 c 0.003906 -0.003907 0.003906 -0.007813 0.007812 -0.011719 c 0.003906 0 0.003906 -0.003906 0.007813 -0.007812 c 0.023437 -0.027344 0.0625 -0.046876 0.097656 -0.050782 c 0.007813 -0.003906 0.019531 -0.003906 0.023437 -0.003906 h -2.328124 h 0.019531 c 0.007812 0.003906 0.015625 0.003906 0.023437 0.007812 c 0.007813 0 0.007813 0 0.015625 0.003907 c 0.007813 0.003906 0.011719 0.003906 0.015625 0.007812 c 0.007813 0.003907 0.011719 0.003907 0.015625 0.007813 c 0.003907 0.003906 0.007813 0.003906 0.011719 0.007812 c 0 0.003906 0.003906 0.007813 0.007812 0.007813 c 0.027344 0.023437 0.046876 0.0625 0.050782 0.097656 c 0.003906 0.007813 0.003906 0.015625 0.003906 0.023437 z m -0.164062 6.164062 h 2.328124 c 1.015626 0 1.835938 -0.820312 1.835938 -1.835938 v -4.328124 c 0 -1.015626 -0.820312 -1.835938 -1.835938 -1.835938 h -2.328124 c -1.015626 0 -1.835938 0.820312 -1.835938 1.835938 v 4.328124 c 0 1.015626 0.820312 1.835938 1.835938 1.835938 z m 0 0" fill="#222222"/>
    <g fill="#241f31">
        <path d="m 0 16 v -1 h 1 v 1 z m 0 0"/>
        <path d="m 2 16 v -1 h 1 v 1 z m 0 0"/>
        <path d="m 4 16 v -1 h 1 v 1 z m 0 0"/>
        <path d="m 6 16 v -1 h 1 v 1 z m 0 0"/>
        <path d="m 8 16 v -1 h 1 v 1 z m 0 0"/>
        <path d="m 10 16 v -1 h 1 v 1 z m 0 0"/>
        <path d="m 12 16 v -1 h 1 v 1 z m 0 0"/>
        <path d="m 0 1 v -1 h 1 v 1 z m 0 0"/>
        <path d="m 2 1 v -1 h 1 v 1 z m 0 0"/>
        <path d="m 4 1 v -1 h 1 v 1 z m 0 0"/>
        <path d="m 6 1 v -1 h 1 v 1 z m 0 0"/>
        <path d="m 8 1 v -1 h 1 v 1 z m 0 0"/>
        <path d="m 10 1 v -1 h 1 v 1 z m 0 0"/>
        <path d="m 12 1 v -1 h 1 v 1 z m 0 0"/>
    </g>
    <path d="m 9 3.835938 c 0 0.003906 0 0.011718 -0.003906 0.019531 c 0 0.007812 0 0.015625 -0.003906 0.023437 c 0 0.007813 0 0.007813 -0.003907 0.015625 c -0.003906 0.007813 -0.003906 0.011719 -0.007812 0.015625 c 0 0.007813 -0.003907 0.011719 -0.007813 0.015625 c -0.003906 0.003907 -0.003906 0.007813 -0.007812 0.011719 c -0.003906 0 -0.003906 0.003906 -0.007813 0.007812 c -0.023437 0.027344 -0.058593 0.046876 -0.097656 0.054688 c -0.007813 0 -0.015625 0 -0.023437 0 h 2.332031 c -0.007813 0 -0.015625 0 -0.023438 0 c -0.007812 -0.003906 -0.015625 -0.003906 -0.019531 -0.007812 c -0.011719 0 -0.011719 0 -0.019531 -0.003907 c -0.003907 -0.003906 -0.011719 -0.003906 -0.015625 -0.007812 c -0.007813 -0.003907 -0.011719 -0.003907 -0.015625 -0.007813 c -0.003907 -0.003906 -0.007813 -0.003906 -0.007813 -0.007812 c -0.003906 -0.003906 -0.007812 -0.003906 -0.011718 -0.007813 c -0.027344 -0.023437 -0.046876 -0.0625 -0.050782 -0.097656 c -0.003906 -0.007813 -0.003906 -0.015625 -0.003906 -0.023437 v 8.328124 c 0 -0.003906 0 -0.011718 0.003906 -0.019531 c 0 -0.007812 0.003906 -0.015625 0.003906 -0.023437 c 0.003907 -0.007813 0.003907 -0.007813 0.003907 -0.015625 c 0.003906 -0.007813 0.007812 -0.011719 0.007812 -0.015625 c 0.003907 -0.007813 0.003907 -0.011719 0.007813 -0.015625 c 0.003906 -0.003907 0.003906 -0.007813 0.007812 -0.011719 c 0.003906 0 0.003906 -0.003906 0.007813 -0.007812 c 0.023437 -0.027344 0.0625 -0.046876 0.097656 -0.050782 c 0.007813 -0.003906 0.019531 -0.003906 0.023437 -0.003906 h -2.328124 h 0.019531 c 0.007812 0.003906 0.015625 0.003906 0.023437 0.007812 c 0.007813 0 0.007813 0 0.015625 0.003907 c 0.007813 0.003906 0.011719 0.003906 0.015625 0.007812 c 0.007813 0.003907 0.011719 0.003907 0.015625 0.007813 c 0.003907 0.003906 0.007813 0.003906 0.011719 0.007812 c 0 0.003906 0.003906 0.007813 0.007812 0.007813 c 0.027344 0.023437 0.046876 0.0625 0.050782 0.097656 c 0.003906 0.007813 0.003906 0.015625 0.003906 0.023437 z m -0.164062 10.164062 h 2.328124 c 1.015626 0 1.835938 -0.820312 1.835938 -1.835938 v -8.328124 c 0 -1.015626 -0.820312 -1.835938 -1.835938 -1.835938 h -2.328124 c -1.015626 0 -1.835938 0.820312 -1.835938 1.835938 v 8.328124 c 0 1.015626 0.820312 1.835938 1.835938 1.835938 z m 0 0" fill="#222222"/>
    <path d="m 14 14 v -12 h 1 v 12 z m 0 0" fill="#241f31"/>
    <path d="m 13 2 h 3 l -1.5 -2 z m 0 0" fill="#241f31"/>
    <path d="m 13 14 h 3 l -1.5 2 z m 0 0" fill="#241f31"/>
</svg>
