<?xml version="1.0" encoding="UTF-8"?>
<svg height="16px" viewBox="0 0 16 16" width="16px" xmlns="http://www.w3.org/2000/svg">
    <g fill="#222222">
        <path d="m 2 8 c 0 -3.324219 2.675781 -6 6 -6 s 6 2.675781 6 6 s -2.675781 6 -6 6 s -6 -2.675781 -6 -6 z m 14 0 c 0 -4.414062 -3.585938 -8 -8 -8 s -8 3.585938 -8 8 s 3.585938 8 8 8 s 8 -3.585938 8 -8 z m 0 0"/>
        <path d="m 11.996094 7.960938 c -0.015625 -0.398438 -0.265625 -0.75 -0.632813 -0.894532 c -0.371093 -0.148437 -0.792969 -0.058594 -1.074219 0.222656 l -1.292968 1.292969 v -3.585937 c -0.003906 -0.550782 -0.449219 -1 -1 -1 c -0.554688 0 -1 0.449218 -1 1 v 3.585937 l -1.292969 -1.292969 c -0.394531 -0.378906 -1.019531 -0.375 -1.40625 0.011719 s -0.390625 1.011719 -0.007813 1.402344 l 3 3 c 0.1875 0.1875 0.441407 0.292969 0.707032 0.292969 c 0.042968 0 0.085937 0 0.128906 -0.007813 c 0.21875 -0.027343 0.421875 -0.128906 0.578125 -0.285156 l 3 -3 c 0.195313 -0.195313 0.300781 -0.464844 0.292969 -0.742187 z m 0 0"/>
    </g>
</svg>
