<?xml version="1.0" encoding="UTF-8"?>
<svg height="16px" viewBox="0 0 16 16" width="16px" xmlns="http://www.w3.org/2000/svg">
    <path d="m 8.011719 4 c -0.261719 -0.003906 -0.519531 0.097656 -0.710938 0.28125 c -0.394531 0.386719 -0.402343 1.019531 -0.019531 1.417969 l 1.269531 1.300781 h -7.550781 c -0.550781 0 -1 0.449219 -1 1 s 0.449219 1 1 1 h 7.550781 l -1.269531 1.300781 c -0.382812 0.398438 -0.375 1.03125 0.019531 1.417969 c 0.398438 0.382812 1.03125 0.375 1.414063 -0.019531 l 2.917968 -3 c 0.378907 -0.390625 0.378907 -1.007813 0 -1.398438 l -2.917968 -3 c -0.183594 -0.1875 -0.4375 -0.296875 -0.703125 -0.300781 z m 0 0" fill="#222222" fill-rule="evenodd"/>
</svg>
