<?xml version="1.0" encoding="UTF-8"?>
<svg height="16px" viewBox="0 0 16 16" width="16px" xmlns="http://www.w3.org/2000/svg">
    <path d="m -0.046875 7.929688 c 0 -0.199219 0.0703125 -0.386719 0.207031 -0.527344 l 0.261719 -0.261719 c 0.320313 -0.316406 0.890625 -0.257813 1.28125 0.132813 l 5.292969 5.289062 v -11.582031 c 0 -0.554688 0.445312 -1.0000002 1 -1.0000002 c 0.554687 0 1 0.4453122 1 1.0000002 v 11.582031 l 5.292968 -5.289062 c 0.390626 -0.390626 0.964844 -0.453126 1.285157 -0.132813 l 0.257812 0.261719 c 0.320313 0.320312 0.261719 0.894531 -0.128906 1.285156 l -6.972656 6.96875 c 0 0.003906 0 0.007812 -0.003907 0.007812 c -0.003906 0.003907 -0.011718 0.003907 -0.011718 0.007813 c -0.066406 0.070313 -0.140625 0.132813 -0.226563 0.179687 c -0.136719 0.105469 -0.308593 0.15625 -0.492187 0.148438 c -0.175782 0.007812 -0.347656 -0.042969 -0.484375 -0.144531 c -0.09375 -0.050781 -0.171875 -0.117188 -0.242188 -0.191407 l -0.03125 -0.03125 l -6.949219 -6.945312 c -0.2187495 -0.21875 -0.3320308 -0.5 -0.335937 -0.757812 z m 0 0" fill="#222222"/>
</svg>
