<?xml version="1.0" encoding="UTF-8"?>
<svg height="16px" viewBox="0 0 16 16" width="16px" xmlns="http://www.w3.org/2000/svg">
    <g fill="#222222">
        <path d="m 8 14 c 3.324219 0 6 -2.675781 6 -6 s -2.675781 -6 -6 -6 s -6 2.675781 -6 6 s 2.675781 6 6 6 z m 0 -14 c 4.414062 0 8 3.585938 8 8 s -3.585938 8 -8 8 s -8 -3.585938 -8 -8 s 3.585938 -8 8 -8 z m 0 0"/>
        <path d="m 5.082031 5.277344 c 0.636719 -0.597656 1.679688 -0.144532 1.679688 0.730468 v 1.578126 l 2.535156 -2.535157 c 0.945313 -0.941406 2.359375 0.472657 1.414063 1.414063 l -2.535157 2.535156 h 1.609375 c 1.316406 0.019531 1.316406 1.980469 0 2 h -4.023437 c -0.265625 0 -0.519531 -0.105469 -0.707031 -0.292969 c -0.03125 -0.03125 -0.058594 -0.0625 -0.085938 -0.097656 c -0.132812 -0.175781 -0.207031 -0.390625 -0.207031 -0.609375 v -3.992188 c 0 -0.277343 0.117187 -0.542968 0.320312 -0.734374 z m 0 0"/>
    </g>
</svg>
