<?xml version="1.0" encoding="UTF-8"?>
<svg height="16px" viewBox="0 0 16 16" width="16px" xmlns="http://www.w3.org/2000/svg">
    <path d="m 8.070312 -0.0429688 c 0.199219 0 0.386719 0.0664063 0.527344 0.2070308 l 0.261719 0.261719 c 0.316406 0.316407 0.257813 0.890625 -0.132813 1.28125 l -5.289062 5.292969 h 11.582031 c 0.554688 0 1 0.445312 1 1 c 0 0.550781 -0.445312 1 -1 1 h -11.582031 l 5.289062 5.292969 c 0.390626 0.390625 0.449219 0.964843 0.132813 1.285156 l -0.261719 0.257813 c -0.320312 0.316406 -0.894531 0.261718 -1.285156 -0.128907 l -6.96875 -6.972656 c -0.003906 0 -0.003906 -0.003906 -0.007812 -0.007813 c -0.003907 -0.003906 -0.007813 -0.007812 -0.011719 -0.007812 c -0.066407 -0.070312 -0.128907 -0.140625 -0.175781 -0.226562 c -0.1054692 -0.136719 -0.1562505 -0.3125 -0.148438 -0.492188 c -0.0078125 -0.179688 0.0390625 -0.347656 0.144531 -0.488281 c 0.050781 -0.089844 0.117188 -0.167969 0.191407 -0.238281 l 0.03125 -0.03125 l 6.945312 -6.949219 c 0.21875 -0.2187502 0.496094 -0.3359378 0.753906 -0.3359378 z m 0 0" fill="#222222"/>
</svg>
