<?xml version="1.0" encoding="UTF-8"?>
<svg height="16px" viewBox="0 0 16 16" width="16px" xmlns="http://www.w3.org/2000/svg">
    <g fill="#222222">
        <path d="m 2 8 c 0 3.324219 2.675781 6 6 6 s 6 -2.675781 6 -6 s -2.675781 -6 -6 -6 s -6 2.675781 -6 6 z m 14 0 c 0 4.414062 -3.585938 8 -8 8 s -8 -3.585938 -8 -8 s 3.585938 -8 8 -8 s 8 3.585938 8 8 z m 0 0"/>
        <path d="m 10.675781 10.714844 c -0.640625 0.597656 -1.683593 0.140625 -1.683593 -0.734375 v -1.578125 l -2.535157 2.535156 c -0.941406 0.945312 -2.355469 -0.46875 -1.414062 -1.414062 l 2.535156 -2.535157 h -1.609375 c -1.3125 -0.019531 -1.3125 -1.980469 0 -2 h 4.023438 c 0.265624 0 0.519531 0.105469 0.707031 0.292969 c 0.03125 0.03125 0.058593 0.066406 0.085937 0.097656 c 0.136719 0.175782 0.207032 0.390625 0.207032 0.609375 v 3.992188 c 0 0.28125 -0.113282 0.542969 -0.316407 0.734375 z m 0 0"/>
    </g>
</svg>
