<?xml version="1.0" encoding="UTF-8"?>
<svg height="16px" viewBox="0 0 16 16" width="16px" xmlns="http://www.w3.org/2000/svg">
    <g fill="#222222">
        <path d="m 7.964844 4 c -0.398438 0.015625 -0.75 0.261719 -0.894532 0.632812 c -0.148437 0.371094 -0.058593 0.792969 0.222657 1.074219 l 1.292969 1.292969 h -3.585938 c -0.550781 0 -1 0.449219 -1 1 s 0.449219 1 1 1 h 3.585938 l -1.292969 1.292969 c -0.378907 0.390625 -0.375 1.015625 0.011719 1.402343 c 0.386718 0.386719 1.011718 0.390626 1.402343 0.011719 l 3 -3 c 0.1875 -0.1875 0.292969 -0.441406 0.292969 -0.707031 c 0 -0.042969 -0.003906 -0.085938 -0.007812 -0.132812 c -0.027344 -0.214844 -0.128907 -0.417969 -0.285157 -0.574219 l -3 -3 c -0.195312 -0.195313 -0.464843 -0.300781 -0.742187 -0.292969 z m 0 0"/>
        <path d="m 8 14 c -3.324219 0 -6 -2.675781 -6 -6 s 2.675781 -6 6 -6 s 6 2.675781 6 6 s -2.675781 6 -6 6 z m 0 -14 c -4.414062 0 -8 3.585938 -8 8 s 3.585938 8 8 8 s 8 -3.585938 8 -8 s -3.585938 -8 -8 -8 z m 0 0"/>
    </g>
</svg>
