<?xml version="1.0" encoding="UTF-8"?>
<svg height="16px" viewBox="0 0 16 16" width="16px" xmlns="http://www.w3.org/2000/svg">
    <path d="m 1.558594 0.449219 l -1.058594 1.058593 l 14 14 l 1.0625 -1.058593 l -1.835938 -1.835938 c 1.339844 -0.648437 2.273438 -2.027343 2.273438 -3.605469 v -2 c 0 -1.023437 -0.386719 -1.96875 -1.019531 -2.675781 c -0.175781 -0.199219 -0.425781 -0.316406 -0.691407 -0.332031 c -0.265624 -0.011719 -0.523437 0.078125 -0.71875 0.257812 c -0.414062 0.367188 -0.449218 1 -0.082031 1.410157 c 0.320313 0.355469 0.511719 0.816406 0.511719 1.339843 v 2 c 0 1.082032 -0.816406 1.9375 -1.882812 1.992188 l -4.003907 -4 h 0.886719 v -0.003906 c 0.265625 0 0.519531 -0.105469 0.707031 -0.289063 l 2 -2 c 0.390625 -0.390625 0.390625 -1.023437 0 -1.414062 l -2 -2 c -0.1875 -0.183594 -0.441406 -0.289063 -0.707031 -0.285157 v -0.007812 h -1 v 2 h -3.886719 z m -0.445313 3.789062 c -0.6875 0.722657 -1.113281 1.695313 -1.113281 2.761719 v 2 c 0 1.019531 0.386719 1.964844 1.019531 2.671875 c 0.367188 0.410156 1 0.445313 1.414063 0.078125 c 0.410156 -0.367188 0.445312 -1 0.074218 -1.410156 c -0.316406 -0.355469 -0.507812 -0.816406 -0.507812 -1.339844 v -2 c 0 -0.53125 0.195312 -1.003906 0.519531 -1.355469 z m 5 0.761719 h 1.886719 v 1.886719 z m 0.117188 4.355469 l -1.9375 1.9375 c -0.390625 0.390625 -0.390625 1.023437 0 1.414062 l 2 2 c 0.1875 0.183594 0.441406 0.289063 0.707031 0.289063 v 0.003906 h 1 v -1.992188 h 1.882812 z m 0 0" fill="#222222"/>
</svg>
