<?xml version="1.0" encoding="UTF-8"?>
<svg height="16px" viewBox="0 0 16 16" width="16px" xmlns="http://www.w3.org/2000/svg">
    <g fill="#222222">
        <path d="m 7 1 c -2.199219 0 -4 1.800781 -4 4 v 6.050781 c -0.160156 -0.035156 -0.328125 -0.050781 -0.5 -0.050781 c -1.367188 0 -2.5 1.132812 -2.5 2.5 s 1.132812 2.5 2.5 2.5 s 2.5 -1.132812 2.5 -2.5 v -2.5 h 1 v 2.5 c 0 1.367188 1.132812 2.5 2.5 2.5 s 2.5 -1.132812 2.5 -2.5 s -1.132812 -2.5 -2.5 -2.5 c -0.171875 0 -0.339844 0.015625 -0.5 0.050781 v -10.050781 z m -1 2.410156 v 6.589844 h -1 v -5 c 0 -0.722656 0.4375 -1.238281 1 -1.589844 z m -3.5 9.589844 c 0.289062 0 0.5 0.210938 0.5 0.5 s -0.210938 0.5 -0.5 0.5 s -0.5 -0.210938 -0.5 -0.5 s 0.210938 -0.5 0.5 -0.5 z m 6 0 c 0.289062 0 0.5 0.210938 0.5 0.5 s -0.210938 0.5 -0.5 0.5 s -0.5 -0.210938 -0.5 -0.5 s 0.210938 -0.5 0.5 -0.5 z m 0 0"/>
        <path d="m 10 1 c -0.550781 0 -1 0.449219 -1 1 s 0.449219 1 1 1 h 2.425781 c 0.328125 0 0.574219 0.246094 0.574219 0.574219 v 0.425781 h -3 c -0.554688 0 -1 0.445312 -1 1 s 0.445312 1 1 1 h 3 v 1 h -3 c -0.554688 0 -1 0.445312 -1 1 s 0.445312 1 1 1 h 3 v 6 c 0 0.550781 0.449219 1 1 1 s 1 -0.449219 1 -1 v -11.425781 c 0 -1.410157 -1.164062 -2.574219 -2.574219 -2.574219 z m 0 0"/>
    </g>
</svg>
