<?xml version="1.0" encoding="UTF-8"?>
<svg height="16px" viewBox="0 0 16 16" width="16px" xmlns="http://www.w3.org/2000/svg">
    <path d="m 5 0 c -2.761719 0 -5 2.238281 -5 5 v 6 c 0 2.761719 2.238281 5 5 5 h 0.976562 c 0.769532 0 1.46875 -0.289062 2 -0.765625 c 0.53125 0.476563 1.230469 0.765625 2.003907 0.765625 h 1.019531 c 2.761719 0 5 -2.238281 5 -5 v -6 c 0 -2.761719 -2.238281 -5 -5 -5 h -1.019531 c -0.773438 0 -1.472657 0.289062 -2.003907 0.765625 c -0.53125 -0.476563 -1.230468 -0.765625 -2 -0.765625 z m 0 2 h 0.976562 c 0.5625 0 1 0.4375 1 1 v 1.023438 h -2.476562 c -0.277344 0 -0.5 0.207031 -0.5 0.464843 v 0.066407 c 0 0.261718 0.222656 0.46875 0.5 0.46875 h 2.476562 v 1.984374 h -0.585937 c -0.277344 0 -0.5 0.222657 -0.5 0.5 c 0 0.277344 0.222656 0.5 0.5 0.5 h 0.585937 v 1.980469 h -0.988281 c -1.097656 0 -1.988281 0.894531 -1.988281 1.992188 v 0.507812 c 0 0.277344 0.222656 0.5 0.5 0.5 s 0.5 -0.222656 0.5 -0.5 v -0.507812 c 0 -0.554688 0.4375 -0.992188 0.988281 -0.992188 h 0.988281 v 2.011719 c 0 0.5625 -0.4375 1 -1 1 h -0.976562 c -1.667969 0 -3 -1.332031 -3 -3 v -1.011719 h 1 c 1.097656 0 1.988281 -0.886719 1.988281 -1.984375 v -0.515625 c 0 -0.273437 -0.222656 -0.5 -0.5 -0.5 c -0.277343 0 -0.5 0.226563 -0.5 0.5 v 0.515625 c 0 0.550782 -0.4375 0.984375 -0.988281 0.984375 h -1 v -3.988281 c 0 -1.667969 1.332031 -3 3 -3 z m 4.980469 0 h 1.019531 c 1.667969 0 3 1.332031 3 3 v 0.921875 h -0.523438 c -0.277343 0 -0.5 0.210937 -0.5 0.46875 v 0.066406 c 0 0.257813 0.222657 0.464844 0.5 0.464844 h 0.523438 v 3.078125 h -0.523438 c -0.277343 0 -0.5 0.207031 -0.5 0.46875 v 0.0625 c 0 0.261719 0.222657 0.46875 0.5 0.46875 h 0.523438 c 0 1.667969 -1.332031 3 -3 3 h -1.019531 c -0.566407 0 -1 -0.4375 -1 -1 v -3 h 1.019531 c 0.550781 0 0.988281 0.4375 0.988281 0.988281 v 0.511719 c 0 0.277344 0.222657 0.5 0.5 0.5 c 0.273438 0 0.5 -0.222656 0.5 -0.5 v -0.511719 c 0 -1.097656 -0.890625 -1.988281 -1.988281 -1.988281 h -1.019531 v -0.992188 h 2.519531 c 0.277344 0 0.5 -0.222656 0.5 -0.5 c 0 -0.277343 -0.222656 -0.5 -0.5 -0.5 h -2.519531 v -0.992187 h 1.058593 c 1.09375 0 1.984376 -0.890625 1.984376 -1.988281 v -0.511719 c 0 -0.277344 -0.222657 -0.5 -0.5 -0.5 c -0.277344 0 -0.5 0.222656 -0.5 0.5 v 0.511719 c 0 0.550781 -0.433594 0.988281 -0.984376 0.988281 h -1.058593 v -2.015625 c 0 -0.5625 0.433593 -1 1 -1 z m 0 0" fill="#222222"/>
</svg>
