<?xml version="1.0" encoding="UTF-8"?>
<svg height="16px" viewBox="0 0 16 16" width="16px" xmlns="http://www.w3.org/2000/svg">
    <g fill="#222222" fill-rule="evenodd">
        <path d="m 3 0 c -1.644531 0 -3 1.355469 -3 3 c 0 1.296875 0.839844 2.410156 2 2.824219 v 4.351562 c -1.160156 0.414063 -2 1.527344 -2 2.824219 c 0 1.644531 1.355469 3 3 3 c 1.296875 0 2.410156 -0.839844 2.824219 -2 h 4.347656 c 0.417969 1.160156 1.53125 2 2.828125 2 c 1.644531 0 3 -1.355469 3 -3 c 0 -1.296875 -0.839844 -2.410156 -2 -2.824219 v -4.351562 c 1.160156 -0.414063 2 -1.527344 2 -2.824219 c 0 -1.644531 -1.355469 -3 -3 -3 c -1.296875 0 -2.410156 0.839844 -2.828125 2 h -4.347656 c -0.414063 -1.160156 -1.527344 -2 -2.824219 -2 z m 0 2 c 0.5625 0 1 0.4375 1 1 s -0.4375 1 -1 1 s -1 -0.4375 -1 -1 s 0.4375 -1 1 -1 z m 10 0 c 0.5625 0 1 0.4375 1 1 s -0.4375 1 -1 1 s -1 -0.4375 -1 -1 s 0.4375 -1 1 -1 z m -7.175781 2 h 4.347656 c 0.304687 0.847656 0.980469 1.523438 1.828125 1.824219 v 4.351562 c -0.847656 0.300781 -1.523438 0.976563 -1.828125 1.824219 h -4.347656 c -0.300781 -0.847656 -0.976563 -1.523438 -1.824219 -1.824219 v -4.351562 c 0.847656 -0.300781 1.523438 -0.976563 1.824219 -1.824219 z m -2.824219 8 c 0.5625 0 1 0.4375 1 1 s -0.4375 1 -1 1 s -1 -0.4375 -1 -1 s 0.4375 -1 1 -1 z m 10 0 c 0.5625 0 1 0.4375 1 1 s -0.4375 1 -1 1 s -1 -0.4375 -1 -1 s 0.4375 -1 1 -1 z m 0 0"/>
        <path d="m 10 8 c 0 1.105469 -0.894531 2 -2 2 s -2 -0.894531 -2 -2 s 0.894531 -2 2 -2 s 2 0.894531 2 2 z m 0 0"/>
    </g>
</svg>
