<?xml version="1.0" encoding="UTF-8"?>
<svg height="16px" viewBox="0 0 16 16" width="16px" xmlns="http://www.w3.org/2000/svg">
    <g fill="#222222">
        <path d="m 3 -0.0117188 v 0.4999998 c 0 0.652344 0.140625 1.269531 0.394531 1.832031 l 2.269531 2.273438 c 0.5625 0.25 1.183594 0.394531 1.835938 0.394531 h 3 c 0.835938 0 1.5 0.664063 1.5 1.5 v 0.5 h 3 v -0.5 c 0 -2.480469 -2.019531 -4.5 -4.5 -4.5 h -3 c -0.835938 0 -1.5 -0.664062 -1.5 -1.5 v -0.4999998 z m 0 0" fill-opacity="0.34902"/>
        <path d="m 1.53125 0.457031 l -1.0625 1.0625 l 14 14 l 1.0625 -1.0625 l -2.53125 -2.53125 v -3.9375 h -1 v 2.9375 l -1 -1 v -1.9375 h -1.9375 z m -1.53125 7.53125 v 4 h 8.90625 l -4 -4 z m 14 0 v 4 h 1 v -4 z m 0 0"/>
    </g>
</svg>
