<?xml version="1.0" encoding="UTF-8"?>
<svg height="16px" viewBox="0 0 16 16" width="16px" xmlns="http://www.w3.org/2000/svg">
    <path d="m 1.527344 0.46875 l -1.058594 1.0625 l 14 14 l 1.058594 -1.0625 l -0.542969 -0.546875 c 0.589844 -0.199219 1.015625 -0.757813 1.015625 -1.421875 v -9 c 0 -0.832031 -0.667969 -1.5 -1.5 -1.5 h -11.441406 z m 3.972656 3.53125 c 1.082031 0 1.898438 0.6875 2.207031 1.300781 c 0.308594 0.617188 0.292969 1.199219 0.292969 1.199219 v 0.4375 l -2.90625 -2.90625 c 0.128906 -0.019531 0.265625 -0.03125 0.40625 -0.03125 z m 6 0 c 1.082031 0 1.898438 0.6875 2.207031 1.300781 c 0.308594 0.617188 0.292969 1.199219 0.292969 1.199219 v 0.5 h -2 v -1 h -1 v 3.9375 l -2 -2 v -1.4375 s -0.015625 -0.582031 0.292969 -1.199219 c 0.308593 -0.613281 1.125 -1.300781 2.207031 -1.300781 z m -10.5 0.0625 v 8.4375 c 0 0.832031 0.667969 1.5 1.5 1.5 h 8.4375 l -3.253906 -3.257812 c -0.324219 0.601562 -1.125 1.257812 -2.183594 1.257812 c -1.082031 0 -1.898438 -0.6875 -2.207031 -1.300781 c -0.308594 -0.617188 -0.292969 -1.199219 -0.292969 -1.199219 v -3 s -0.003906 -0.164062 0.039062 -0.402344 z m 4 4 v 1.9375 h 1 v -0.9375 z m 7 0.9375 h 2 v 0.5 s 0.015625 0.582031 -0.292969 1.199219 c -0.175781 0.347656 -0.511719 0.71875 -0.96875 0.976562 l -1.679687 -1.675781 h 0.941406 z m 0 0" fill="#222222"/>
</svg>
