<?xml version="1.0" encoding="UTF-8"?>
<svg height="16px" viewBox="0 0 16 16" width="16px" xmlns="http://www.w3.org/2000/svg">
    <path d="m 13 1 c -1.097656 0 -2 0.902344 -2 2 c 0 0.179688 0.023438 0.351562 0.070312 0.519531 l -7.550781 7.550781 c -0.167969 -0.046874 -0.339843 -0.070312 -0.519531 -0.070312 c -1.097656 0 -2 0.902344 -2 2 s 0.902344 2 2 2 s 2 -0.902344 2 -2 c 0 -0.179688 -0.023438 -0.351562 -0.066406 -0.519531 l 7.550781 -7.550781 c 0.164063 0.046874 0.335937 0.070312 0.515625 0.070312 c 1.097656 0 2 -0.902344 2 -2 s -0.902344 -2 -2 -2 z m 0 1 c 0.558594 0 1 0.441406 1 1 s -0.441406 1 -1 1 s -1 -0.441406 -1 -1 s 0.441406 -1 1 -1 z m -10 10 c 0.558594 0 1 0.441406 1 1 s -0.441406 1 -1 1 s -1 -0.441406 -1 -1 s 0.441406 -1 1 -1 z m 0 0" fill="#222222"/>
</svg>
