<?xml version="1.0" encoding="UTF-8"?>
<svg height="16px" viewBox="0 0 16 16" width="16px" xmlns="http://www.w3.org/2000/svg">
    <path d="m 2.964844 1.996094 c -1.644532 0 -2.9765628 1.332031 -2.9765628 2.980468 v 2.890626 c -0.0078124 0.046874 -0.0117187 0.09375 -0.0117187 0.140624 v 3.75 c 0 0.066407 0.0078125 0.136719 0.0117187 0.203126 c 0 0.0625 0.00781255 0.125 0.01562505 0.1875 c 0.16406275 1.128906 1.01562475 2.039062 2.11718775 2.28125 c 0.371094 0.914062 1.265625 1.558593 2.3125 1.558593 c 1.203125 0 2.207031 -0.855469 2.441406 -1.988281 h 2.1875 c 0.234375 1.132812 1.242188 1.988281 2.441406 1.988281 c 1.0625 0 1.972656 -0.667969 2.332032 -1.601562 c 1.246093 -0.351563 2.15625 -1.496094 2.152343 -2.851563 v -1.335937 c 0 -1.761719 -1.425781 -3.191407 -3.191406 -3.191407 h -0.429687 l -0.847657 -2.476562 c -0.515625 -1.519531 -1.9375 -2.535156 -3.539062 -2.535156 z m 0 2 h 5.015625 c 0.75 0 1.40625 0.472656 1.648437 1.179687 l 0.625 1.832031 h -8.265625 v -2.03125 c 0 -0.554687 0.425781 -0.980468 0.976563 -0.980468 z m -0.976563 5.011718 h 10.808594 c 0.671875 0 1.191406 0.523438 1.191406 1.191407 v 1.335937 c 0.003907 0.292969 -0.121093 0.546875 -0.316406 0.722656 c -0.429687 -0.75 -1.238281 -1.257812 -2.167969 -1.257812 c -1.207031 0 -2.214844 0.859375 -2.445312 2 h -2.179688 c -0.230468 -1.140625 -1.238281 -2 -2.445312 -2 c -0.953125 0 -1.785156 0.535156 -2.203125 1.324219 c -0.125 -0.109375 -0.214844 -0.261719 -0.242188 -0.4375 z m 2.445313 3.992188 c 0.285156 0 0.492187 0.210938 0.492187 0.492188 c 0 0.285156 -0.207031 0.496093 -0.492187 0.496093 s -0.496094 -0.210937 -0.496094 -0.496093 c 0 -0.28125 0.210938 -0.492188 0.496094 -0.492188 z m 7.070312 0 c 0.285156 0 0.496094 0.210938 0.496094 0.492188 c 0 0.285156 -0.210938 0.496093 -0.496094 0.496093 c -0.28125 0 -0.492187 -0.210937 -0.492187 -0.496093 c 0 -0.28125 0.210937 -0.492188 0.492187 -0.492188 z m 0 0" fill="#222222"/>
</svg>
