<?xml version="1.0" encoding="UTF-8"?>
<svg height="16px" viewBox="0 0 16 16" width="16px" xmlns="http://www.w3.org/2000/svg">
    <path d="m 10.160156 1 c -0.195312 0.011719 -0.382812 0.121094 -0.570312 0.304688 l -8.589844 8.433593 l 2.320312 2.273438 h 5.625 l 0.054688 -0.054688 v 0.042969 h 6 v -1 h -5.023438 l 4.78125 -4.695312 c 0.328126 -0.320313 0.304688 -0.800782 0.011719 -1.089844 l -4 -3.921875 c -0.21875 -0.214844 -0.417969 -0.304688 -0.609375 -0.292969 z m -4.28125 5.519531 c 0.121094 -0.007812 0.238282 0.03125 0.316406 0.105469 l 2.765626 2.574219 c 0.210937 0.125 0.199218 0.578125 0.03125 0.746093 l -0.992188 1.054688 h -4.25 l -1.273438 -1.257812 l 3.0625 -3.074219 c 0.09375 -0.097657 0.21875 -0.144531 0.339844 -0.148438 z m 0 0" fill="#222222"/>
</svg>
