<?xml version="1.0" encoding="UTF-8"?>
<svg height="16px" viewBox="0 0 16 16" width="16px" xmlns="http://www.w3.org/2000/svg">
    <path d="m 8 0 c -2.214844 0 -4 1.785156 -4 4 v 3 h -1.382812 l 0.277343 -0.550781 c 0.246094 -0.496094 0.046875 -1.097657 -0.445312 -1.34375 c -0.496094 -0.246094 -1.097657 -0.046875 -1.34375 0.445312 l -1 2 c -0.003907 0.007813 -0.0078128 0.015625 -0.0078128 0.023438 c -0.015625 0.027343 -0.0273437 0.054687 -0.0390624 0.082031 c -0.0039063 0.019531 -0.0117188 0.039062 -0.015625 0.054688 c -0.0117188 0.035156 -0.0195313 0.070312 -0.0234376 0.105468 v 0.003906 c -0.0039062 0 -0.0039062 0 0 0.003907 c -0.0039062 0 -0.0039062 0.003906 -0.0039062 0.007812 c -0.0039062 0.035157 -0.0078125 0.066407 -0.01171875 0.101563 c 0 0.019531 -0.00390625 0.042968 0 0.066406 c -0.00390625 0 -0.00390625 0.003906 0 0.007812 v 0.058594 c 0 0.023438 0.00390625 0.046875 0.00781255 0.070313 v 0.011719 c 0.0039062 0.019531 0.0078124 0.039062 0.0117187 0.058593 c 0.0039063 0.023438 0.0117187 0.046875 0.015625 0.066407 c 0.0039063 0.003906 0.0039063 0.007812 0.0039063 0.007812 c 0.0039062 0.019531 0.0117187 0.039062 0.015625 0.058594 c 0.0117187 0.027344 0.0234374 0.054687 0.0390624 0.082031 c 0 0.007813 0.0039058 0.015625 0.0078128 0.023437 c 0.007812 0.015626 0.015625 0.03125 0.027343 0.046876 l 0.972657 1.957031 c 0.246093 0.492187 0.847656 0.691406 1.34375 0.445312 c 0.492187 -0.246093 0.691406 -0.847656 0.445312 -1.34375 l -0.277343 -0.550781 h 1.382812 v 3 c 0 2.214844 1.785156 4 4 4 s 4 -1.785156 4 -4 v -3 h 1.382812 l -0.277343 0.550781 c -0.246094 0.496094 -0.046875 1.097657 0.445312 1.34375 c 0.496094 0.246094 1.097657 0.046875 1.34375 -0.445312 l 0.972657 -1.957031 c 0.011718 -0.015626 0.019531 -0.03125 0.027343 -0.046876 c 0.003907 -0.007812 0.003907 -0.011718 0.007813 -0.019531 c 0.015625 -0.035156 0.03125 -0.074219 0.042968 -0.113281 c 0.003907 0 0.003907 -0.003906 0.003907 -0.007812 c 0.011719 -0.039063 0.023437 -0.078126 0.03125 -0.121094 v -0.003906 c 0.003906 -0.003907 0.003906 -0.007813 0.003906 -0.011719 c 0.007813 -0.039063 0.011719 -0.078125 0.011719 -0.117188 c 0 -0.011719 0 -0.027343 0 -0.039062 c 0 -0.027344 0 -0.054688 -0.003906 -0.082031 c 0 -0.039063 -0.003907 -0.074219 -0.011719 -0.109376 c 0 -0.003906 0 -0.007812 0 -0.011718 c -0.007813 -0.042969 -0.019531 -0.085938 -0.035157 -0.128906 v -0.003907 c -0.015624 -0.042969 -0.03125 -0.082031 -0.050781 -0.125 l -1 -2 c -0.246093 -0.492187 -0.847656 -0.691406 -1.34375 -0.445312 c -0.492187 0.246093 -0.691406 0.847656 -0.445312 1.34375 l 0.277343 0.550781 h -1.382812 v -3 c 0 -2.214844 -1.785156 -4 -4 -4 z m 0 2 c 1.125 0 2 0.875 2 2 v 8 c 0 1.125 -0.875 2 -2 2 s -2 -0.875 -2 -2 v -8 c 0 -1.125 0.875 -2 2 -2 z m 0 0" fill="#222222"/>
</svg>
