<?xml version="1.0" encoding="UTF-8"?>
<svg height="16px" viewBox="0 0 16 16" width="16px" xmlns="http://www.w3.org/2000/svg">
    <path d="m 1.5 0.46875 l -1.058594 1.0625 l 14 14 l 1.0625 -1.0625 l -0.921875 -0.917969 c 0.847657 -0.535156 1.417969 -1.480469 1.417969 -2.542969 v -5 c 0 -1.648437 -1.355469 -3 -3 -3 h -6 c -0.8125 0 -1.554688 0.328126 -2.097656 0.863282 z m -1.5 3.53125 v 9 h 0.644531 l 3.355469 -3.492188 v 1.5 c 0 1.644532 1.355469 3 3 3 h 3.792969 l -2 -2 h -1.792969 c -0.570312 0 -1 -0.429687 -1 -1 v -1.792968 l -5.210938 -5.214844 z m 7 1.007812 h 6 c 0.570312 0 1 0.425782 1 1 v 5 c 0 0.554688 -0.410156 0.976563 -0.960938 1 l -6.734374 -6.734374 c 0.175781 -0.167969 0.417968 -0.265626 0.695312 -0.265626 z m 0 0" fill="#222222"/>
</svg>
