<?xml version="1.0" encoding="UTF-8"?>
<svg height="16px" viewBox="0 0 16 16" width="16px" xmlns="http://www.w3.org/2000/svg">
    <path d="m 8.070312 0 c -1.199218 -0.0117188 -2.402343 0.285156 -3.488281 0.890625 c -0.480469 0.269531 -0.652343 0.878906 -0.382812 1.359375 c 0.269531 0.484375 0.878906 0.65625 1.359375 0.386719 c 1.550781 -0.867188 3.4375 -0.847657 4.96875 0.050781 c 1.535156 0.898438 2.472656 2.535156 2.472656 4.3125 v 1 c 0 0.550781 0.449219 1 1 1 s 1 -0.449219 1 -1 v -1 c 0 -0.039062 -0.003906 -0.078125 -0.007812 -0.113281 c -0.039063 -2.441407 -1.34375 -4.691407 -3.453126 -5.925781 c -1.070312 -0.628907 -2.265624 -0.9492192 -3.46875 -0.960938 z m -7.074218 0 l -1.058594 1.0625 l 14 14 l 1.0625 -1.0625 l -3 -3 v -4 c 0 -0.066406 -0.007812 -0.132812 -0.019531 -0.199219 c -0.105469 -2.105469 -1.851563 -3.800781 -3.980469 -3.800781 c -1.101562 0 -2.097656 0.453125 -2.816406 1.183594 z m 0.414062 4.65625 c -0.246094 0.707031 -0.386718 1.449219 -0.402344 2.199219 v 0.003906 c -0.003906 0.046875 -0.007812 0.09375 -0.007812 0.140625 v 5.0625 c 0 0.550781 0.449219 1 1 1 s 1 -0.449219 1 -1 v -5.0625 c 0 -0.234375 0.019531 -0.472656 0.050781 -0.703125 z m 6.589844 0.34375 c 1.117188 0 2 0.882812 2 2 v 2 l -1 -1 v -1 c 0 -0.550781 -0.449219 -1 -1 -1 c -0.277344 0 -0.527344 0.113281 -0.710938 0.292969 l -0.707031 -0.710938 c 0.359375 -0.359375 0.859375 -0.582031 1.417969 -0.582031 z m -4 2.246094 v 0.753906 c 0 0.550781 0.449219 1 1 1 c 0.203125 -0.007812 0.394531 -0.074219 0.558594 -0.195312 z m 1 2.753906 c -0.550781 0 -1 0.449219 -1 1 v 3 c 0 0.550781 0.449219 1 1 1 s 1 -0.449219 1 -1 v -3 c 0 -0.550781 -0.449219 -1 -1 -1 z m 9 0 c -0.550781 0 -1 0.449219 -1 1 s 0.449219 1 1 1 s 1 -0.449219 1 -1 s -0.449219 -1 -1 -1 z m -7 0.246094 v 1.753906 s 0 0.59375 0.144531 1.320312 c 0.144531 0.726563 0.414063 1.652344 1.148438 2.386719 c 0.390625 0.390625 1.023437 0.390625 1.414062 0 s 0.390625 -1.023437 0 -1.414062 c -0.265625 -0.265625 -0.496093 -0.839844 -0.601562 -1.363281 c -0.054688 -0.269532 -0.078125 -0.503907 -0.089844 -0.667969 z m 0 0" fill="#222222"/>
</svg>
