<?xml version="1.0" encoding="UTF-8"?>
<svg height="16px" viewBox="0 0 16 16" width="16px" xmlns="http://www.w3.org/2000/svg">
    <path d="m 4.945312 0 c -0.945312 0 -0.945312 1 -0.945312 1 h 8 s 0 -1 -1 -1 z m -3.414062 0.46875 l -1.0625 1.0625 l 14 14 l 1.0625 -1.0625 l -5.527344 -5.53125 v -3.476562 c 1.234375 -0.714844 1.996094 -2.03125 1.996094 -3.460938 h -8 c 0 0.375 0.050781 0.738281 0.152344 1.085938 z m 6.46875 6.03125 c 0.554688 0 1 0.445312 1 1 v 0.4375 l -1.367188 -1.367188 c 0.113282 -0.042968 0.238282 -0.070312 0.367188 -0.070312 z m -2 2.558594 v 5.941406 s -0.023438 1 2 1 c 1.921875 0 2 -1 2 -1 v -1.941406 z m 0 0" fill="#222222"/>
</svg>
