<?xml version="1.0" encoding="UTF-8"?>
<svg height="16px" viewBox="0 0 16 16" width="16px" xmlns="http://www.w3.org/2000/svg">
    <g fill="#222222">
        <path d="m 11.660156 1.945312 c -0.257812 -0.007812 -0.519531 0.015626 -0.785156 0.074219 l -4.082031 0.925781 c -2.15625 0.488282 -3.792969 2.265626 -3.792969 4.480469 v 3.484375 c 0 1.125 1.042969 2.007813 2.148438 1.824219 l 8.027343 -1.582031 c 1.046875 -0.175782 1.824219 -1.09375 1.824219 -2.152344 v -3.484375 c 0 -1.898437 -1.539062 -3.519531 -3.339844 -3.570313 z m -0.105468 2.011719 c 0.796874 0.015625 1.445312 0.707031 1.445312 1.558594 v 1.109375 l -2 0.417969 v -3 l 0.207031 -0.046875 c 0.117188 -0.027344 0.234375 -0.039063 0.347657 -0.039063 z m -1.554688 0.3125 v 2.980469 l -2 0.417969 v -2.949219 z m -3 0.679688 v 2.925781 l -2 0.417969 v -0.867188 c 0 -1.207031 0.84375 -2.164062 2 -2.476562 z m 0 0"/>
        <path d="m 0 14.957031 v 1.042969 h 16 v -4 z m 0 0"/>
    </g>
</svg>
