<?xml version="1.0" encoding="UTF-8"?>
<svg height="16px" viewBox="0 0 16 16" width="16px" xmlns="http://www.w3.org/2000/svg">
    <g fill="#222222">
        <path d="m 2 4 v 8 h 1 v -8 z m 11 0 v 8 h 1 v -8 z m -13 2 v 4 h 1 v -4 z m 15 0 v 4 h 1 v -4 z m 0 0"/>
        <path d="m 8.015625 0.980469 c -0.039063 0 -0.074219 0 -0.113281 0.007812 c -0.226563 0.023438 -0.433594 0.125 -0.597656 0.28125 l -1.285157 1.285157 l -1.257812 -1.238282 c -0.394531 -0.386718 -1.027344 -0.386718 -1.414063 0.007813 c -0.386718 0.394531 -0.386718 1.027343 0.007813 1.414062 l 1.25 1.230469 l -1.25 1.25 c -0.394531 0.386719 -0.394531 1.019531 -0.003907 1.414062 c 0.390626 0.390626 1.023438 0.390626 1.414063 0 l 1.257813 -1.257812 l 0.800781 0.792969 c -0.484375 0.25 -0.824219 0.757812 -0.824219 1.332031 v 2.636719 c -0.152344 -0.089844 -0.324219 -0.136719 -0.5 -0.136719 c -0.316406 0 -0.613281 0.148438 -0.800781 0.398438 l -2.992188 4 c -0.230469 0.304687 -0.265625 0.710937 -0.097656 1.050781 c 0.171875 0.335937 0.519531 0.550781 0.894531 0.550781 h 5.996094 c 0.378906 0 0.726562 -0.214844 0.894531 -0.550781 c 0.167969 -0.339844 0.132813 -0.746094 -0.09375 -1.050781 l -1.800781 -2.398438 h 3 c 0.8125 0 1.5 -0.6875 1.5 -1.5 v -3 c 0 -0.8125 -0.6875 -1.5 -1.5 -1.5 h -1.445312 c 0.007812 -0.265625 -0.089844 -0.53125 -0.292969 -0.730469 l -1.320313 -1.308593 l 1.277344 -1.273438 c 0.390625 -0.390625 0.390625 -1.023438 0 -1.414062 c -0.1875 -0.1875 -0.441406 -0.292969 -0.703125 -0.292969 z m -0.015625 7.019531 h 2 v 2 h -2 z m -2.5 4.667969 l 1 1.332031 h -1.996094 z m 0 0"/>
    </g>
</svg>
