<?xml version="1.0" encoding="UTF-8"?>
<svg height="16px" viewBox="0 0 16 16" width="16px" xmlns="http://www.w3.org/2000/svg">
    <path d="m 5 0 c -2.199219 0 -4 1.800781 -4 4 v 7.304688 c -0.597656 0.367187 -1 1.027343 -1 1.769531 v 0.851562 c 0 1.132813 0.941406 2.074219 2.070312 2.074219 h 5.859376 c 1.128906 0 2.070312 -0.941406 2.070312 -2.074219 v -0.851562 c 0 -0.742188 -0.402344 -1.402344 -1 -1.769531 v -5.304688 h 5 c 1.097656 0 2 -0.902344 2 -2 s -0.902344 -2 -2 -2 h -5.539062 c -0.695313 -1.191406 -1.988282 -2 -3.460938 -2 z m 0 2 c 1.125 0 2 0.875 2 2 v 7 h -4 v -7 c 0 -1.125 0.875 -2 2 -2 z m 0 1 c -0.550781 0 -1 0.449219 -1 1 s 0.449219 1 1 1 s 1 -0.449219 1 -1 s -0.449219 -1 -1 -1 z m 3.871094 0 h 2.085937 l -1.261719 2 h -0.695312 v -1 c 0 -0.34375 -0.042969 -0.679688 -0.128906 -1 z m 3.261718 0 h 0.9375 l -1.320312 2 h -0.871094 z m 2.117188 0.03125 c 0.4375 0.105469 0.75 0.492188 0.75 0.96875 c 0 0.5625 -0.4375 1 -1 1 h -1.050781 z m -12.195312 9.96875 h 0.015624 h 5.859376 c 0.023437 0 0.042968 0.003906 0.050781 0.011719 c 0.003906 0 0.007812 0.003906 0.007812 0.003906 c 0.007813 0.011719 0.011719 0.03125 0.011719 0.058594 v 0.851562 c 0 0.027344 -0.003906 0.050781 -0.011719 0.0625 c -0.003906 0 -0.007812 0 -0.007812 0 c -0.011719 0.011719 -0.027344 0.011719 -0.050781 0.011719 h -5.859376 c -0.023437 0 -0.046874 -0.003906 -0.058593 -0.011719 v -0.003906 c -0.007813 -0.011719 -0.011719 -0.03125 -0.011719 -0.058594 v -0.851562 c 0 -0.027344 0.003906 -0.050781 0.011719 -0.0625 h 0.003906 c 0.007813 -0.007813 0.019531 -0.011719 0.039063 -0.011719 z m 0 0" fill="#222222"/>
</svg>
