<?xml version="1.0" encoding="UTF-8"?>
<svg height="16px" viewBox="0 0 16 16" width="16px" xmlns="http://www.w3.org/2000/svg">
    <path d="m 9.511719 1.492188 c -0.550781 0 -1 0.449218 -1 1 c 0.003906 0.035156 0.007812 0.066406 0.015625 0.097656 c -0.003906 0.003906 -0.011719 0.003906 -0.015625 0.003906 c 0.054687 0.210938 -0.011719 0.433594 -0.175781 0.574219 c -0.058594 0.046875 -0.125 0.085937 -0.195313 0.109375 c -0.285156 0.089844 -0.589844 -0.058594 -0.699219 -0.332032 c 0 0 -0.003906 0 -0.007812 0.003907 c -0.015625 -0.03125 -0.035156 -0.0625 -0.054688 -0.089844 c -0.199218 -0.273437 -0.523437 -0.429687 -0.863281 -0.410156 c -0.191406 0.011719 -0.375 0.078125 -0.53125 0.191406 c -0.445313 0.324219 -0.546875 0.949219 -0.222656 1.394531 c 0.023437 0.027344 0.050781 0.050782 0.074219 0.074219 c 0 0.003906 -0.003907 0.007813 -0.007813 0.011719 c 0.164063 0.136718 0.238281 0.355468 0.1875 0.566406 c -0.015625 0.070312 -0.046875 0.140625 -0.09375 0.199219 c -0.175781 0.242187 -0.507813 0.300781 -0.757813 0.144531 c 0 0 0 0.003906 -0.003906 0.003906 c -0.03125 -0.015625 -0.0625 -0.027344 -0.09375 -0.039062 c -0.089844 -0.03125 -0.1875 -0.046875 -0.28125 -0.046875 c -0.445312 -0.015625 -0.84375 0.265625 -0.980468 0.691406 c -0.171876 0.523437 0.117187 1.085937 0.640624 1.257813 c 0.035157 0.007812 0.066407 0.011718 0.101563 0.015624 c 0 0.003907 0 0.007813 -0.003906 0.015626 c 0.21875 0.011718 0.410156 0.144531 0.492187 0.347656 c 0.027344 0.066406 0.042969 0.140625 0.042969 0.214844 c 0 0.300781 -0.238281 0.542968 -0.535156 0.5625 c 0.003906 0.003906 0.003906 0.007812 0.003906 0.015624 c -0.035156 0.003907 -0.066406 0.007813 -0.101563 0.015626 c -0.523437 0.171874 -0.8125 0.734374 -0.640624 1.261718 c 0.171874 0.523438 0.734374 0.8125 1.261718 0.640625 c 0.03125 -0.011719 0.0625 -0.023437 0.09375 -0.039062 c 0.003906 0.003906 0.003906 0.003906 0.003906 0.007812 c 0.085938 -0.054687 0.179688 -0.085937 0.277344 -0.089843 c 0.113282 -0.007813 0.222656 0.019531 0.320313 0.082031 c 0.0625 0.039062 0.121093 0.089843 0.164062 0.152343 c 0.175781 0.242188 0.125 0.574219 -0.101562 0.761719 l 0.011719 0.011719 c -0.023438 0.023438 -0.050782 0.046875 -0.074219 0.074219 c -0.324219 0.445312 -0.222657 1.070312 0.222656 1.398437 c 0.445313 0.324219 1.070313 0.222656 1.394531 -0.222656 c 0.019532 -0.027344 0.039063 -0.054688 0.054688 -0.085938 c 0.003906 0 0.003906 0 0.007812 0.003907 c 0.078125 -0.203125 0.261719 -0.34375 0.480469 -0.359375 c 0.074219 -0.007813 0.148437 0.003906 0.21875 0.027344 c 0.289063 0.089843 0.449219 0.394531 0.371094 0.679687 c 0.007812 0 0.011719 0 0.015625 0.003906 c -0.007813 0.03125 -0.011719 0.066407 -0.015625 0.097657 c 0 0.550781 0.449219 1 1 1 s 1 -0.449219 1 -1 c 0 -0.035157 -0.003907 -0.066407 -0.007813 -0.101563 h 0.003906 c -0.074218 -0.289063 0.089844 -0.589844 0.375 -0.683594 c 0.074219 -0.023437 0.148438 -0.03125 0.222657 -0.023437 c 0.207031 0.015625 0.394531 0.152344 0.472656 0.359375 c 0.007813 -0.003907 0.011719 -0.007813 0.015625 -0.007813 c 0.015625 0.03125 0.03125 0.058594 0.046875 0.089844 c 0.328125 0.445312 0.953125 0.546875 1.398437 0.222656 c 0.445313 -0.328125 0.546876 -0.953125 0.21875 -1.398437 c -0.023437 -0.027344 -0.046874 -0.050781 -0.074218 -0.074219 c 0.003906 -0.003906 0.007812 -0.003906 0.011718 -0.007812 c -0.226562 -0.191407 -0.273437 -0.527344 -0.097656 -0.769532 c 0.113282 -0.15625 0.296875 -0.238281 0.476563 -0.230468 c 0.097656 0.003906 0.195312 0.03125 0.28125 0.085937 c 0.003906 -0.003906 0.007812 -0.007813 0.011719 -0.011719 c 0.027343 0.015625 0.058593 0.03125 0.089843 0.046875 c 0.527344 0.171875 1.089844 -0.117187 1.261719 -0.640625 c 0.171875 -0.527344 -0.117188 -1.089844 -0.640625 -1.261718 c -0.035156 -0.007813 -0.066406 -0.011719 -0.101563 -0.019532 c 0 -0.003906 0 -0.007812 0.003907 -0.011718 c -0.296875 -0.019532 -0.535157 -0.265626 -0.535157 -0.566407 c 0 -0.296875 0.238282 -0.539062 0.535157 -0.558593 c -0.003907 -0.003907 -0.003907 -0.011719 -0.003907 -0.015626 c 0.035157 -0.003906 0.066407 -0.007812 0.101563 -0.015624 c 0.523437 -0.171876 0.8125 -0.734376 0.640625 -1.261719 c -0.136719 -0.421875 -0.535156 -0.703125 -0.980469 -0.6875 c -0.09375 0 -0.191406 0.015625 -0.28125 0.046875 c -0.03125 0.015625 -0.0625 0.03125 -0.089843 0.046875 c -0.003907 -0.003907 -0.007813 -0.007813 -0.011719 -0.015625 c -0.246094 0.160156 -0.582031 0.101562 -0.757813 -0.144532 c -0.175781 -0.238281 -0.128906 -0.574218 0.097656 -0.765624 c -0.003906 0 -0.007812 -0.003907 -0.011718 -0.007813 c 0.027344 -0.023437 0.050781 -0.046875 0.074218 -0.074219 c 0.328126 -0.445312 0.226563 -1.070312 -0.21875 -1.398437 c -0.15625 -0.109375 -0.339843 -0.175781 -0.53125 -0.1875 c -0.339843 -0.019531 -0.664062 0.136719 -0.867187 0.410156 c -0.015625 0.03125 -0.03125 0.058594 -0.046875 0.089844 c -0.003906 0 -0.007812 -0.003907 -0.011719 -0.003907 c -0.109375 0.273438 -0.414062 0.421876 -0.703125 0.328126 c -0.285156 -0.089844 -0.445312 -0.394532 -0.371094 -0.679688 c 0 0 0 0 -0.003906 0 c 0.003906 -0.035156 0.007813 -0.066406 0.007813 -0.101562 c 0 -0.550782 -0.449219 -1 -1 -1 z m 0 3.5 c 1.378906 0 2.5 1.121093 2.5 2.5 c 0 1.378906 -1.121094 2.5 -2.5 2.5 c -1.378907 0 -2.5 -1.121094 -2.5 -2.5 c 0 -1.378907 1.121093 -2.5 2.5 -2.5 z m -7.011719 6 c -1.367188 0 -2.5 1.132812 -2.5 2.5 c 0 1.367187 1.132812 2.5 2.5 2.5 s 2.5 -1.132813 2.5 -2.5 c 0 -1.367188 -1.132812 -2.5 -2.5 -2.5 z m 0 2 c 0.289062 0 0.5 0.210937 0.5 0.5 c 0 0.289062 -0.210938 0.5 -0.5 0.5 s -0.5 -0.210938 -0.5 -0.5 c 0 -0.289063 0.210938 -0.5 0.5 -0.5 z m 0 0" fill="#222222"/>
</svg>
