<?xml version="1.0" encoding="UTF-8"?>
<svg height="16px" viewBox="0 0 16 16" width="16px" xmlns="http://www.w3.org/2000/svg">
    <path d="m 3 -0.0234375 l -3 3.9999995 h 2 v 10.023438 h 10 v 1.976562 l 4 -3 l -4 -3 v 2.023438 h -8 v -1.058594 c 0.09375 -0.105468 0.164062 -0.226562 0.207031 -0.359375 c 0 0 0.246094 -0.742187 0.644531 -1.523437 c 0.402344 -0.78125 1.0625 -1.472656 1.171876 -1.507813 c 0.097656 -0.03125 0.183593 -0.03125 0.429687 0.078125 c 0.242187 0.113282 0.578125 0.34375 0.949219 0.613282 c 0.375 0.273437 0.789062 0.582031 1.292968 0.820312 c 0.503907 0.242188 1.164063 0.40625 1.84375 0.222656 c 2.386719 -0.648437 3.792969 -2.960937 4.355469 -5.234375 c 0.132813 -0.535156 -0.191406 -1.078125 -0.730469 -1.210937 c -0.535156 -0.132813 -1.078124 0.195312 -1.207031 0.730468 c -0.449219 1.800782 -1.59375 3.417969 -2.9375 3.785157 c -0.105469 0.027343 -0.214843 0.023437 -0.46875 -0.097657 c -0.253906 -0.121093 -0.59375 -0.359374 -0.972656 -0.632812 s -0.792969 -0.582031 -1.300781 -0.8125 c -0.511719 -0.234375 -1.1875 -0.378906 -1.863282 -0.164062 c -0.609374 0.195312 -1.058593 0.554687 -1.414062 0.976562 v -2.648438 h 2 z m 0 0" fill="#222222"/>
</svg>
