<?xml version="1.0" encoding="UTF-8"?>
<svg height="16px" viewBox="0 0 16 16" width="16px" xmlns="http://www.w3.org/2000/svg">
    <g fill="#222222">
        <path d="m 3 12 h 10 c 0.550781 0 1 -0.449219 1 -1 s -0.449219 -1 -1 -1 h -10 c -0.550781 0 -1 0.449219 -1 1 s 0.449219 1 1 1 z m 0 0" fill-opacity="0.329412"/>
        <path d="m 3 15 h 4 c 0.550781 0 1 -0.449219 1 -1 s -0.449219 -1 -1 -1 h -4 c -0.550781 0 -1 0.449219 -1 1 s 0.449219 1 1 1 z m 0 0" fill-opacity="0.329412"/>
        <path d="m 4.53125 0.96875 c -1.386719 0 -2.53125 1.144531 -2.53125 2.53125 v 4.5 c 0 0.550781 0.449219 1 1 1 s 1 -0.449219 1 -1 v -2 h 1 v 2 c 0 0.550781 0.449219 1 1 1 s 1 -0.449219 1 -1 v -4.480469 c 0.027344 -1.367187 -1.082031 -2.519531 -2.449219 -2.550781 c -0.007812 0 -0.011719 0 -0.019531 0 z m -0.011719 2.011719 c 0.277344 0.015625 0.484375 0.21875 0.480469 0.5 v 0.019531 v 0.5 h -1 v -0.5 c 0 -0.296875 0.226562 -0.507812 0.519531 -0.519531 z m 0 0"/>
        <path d="m 9 1 c -0.550781 0 -1 0.449219 -1 1 v 6 c 0 0.042969 0.003906 0.085938 0.007812 0.128906 c 0.007813 0.042969 0.015626 0.082032 0.027344 0.125 c 0.011719 0.042969 0.023438 0.082032 0.042969 0.121094 c 0.015625 0.039062 0.035156 0.078125 0.058594 0.117188 c 0.019531 0.035156 0.042969 0.070312 0.070312 0.105468 c 0.027344 0.035156 0.054688 0.066406 0.085938 0.097656 s 0.0625 0.058594 0.097656 0.085938 s 0.070313 0.050781 0.109375 0.074219 c 0.152344 0.085937 0.324219 0.132812 0.5 0.132812 h 0.054688 h 1.394531 c 1.367187 0.027344 2.519531 -1.078125 2.550781 -2.449219 c 0 -0.007812 0 -0.011718 0 -0.019531 c 0 -0.566406 -0.1875 -1.089843 -0.507812 -1.511719 c 0.308593 -0.40625 0.496093 -0.910156 0.507812 -1.449218 c 0 -0.007813 0 -0.015625 0 -0.019532 c 0 -1.386718 -1.144531 -2.53125 -2.53125 -2.53125 h -1.292969 c -0.058593 -0.011718 -0.117187 -0.015624 -0.175781 -0.015624 z m 1 2.015625 h 0.46875 c 0.296875 0 0.511719 0.226563 0.519531 0.519531 c -0.011719 0.234375 -0.15625 0.417969 -0.371093 0.46875 c -0.050782 0 -0.101563 0 -0.148438 0 h -0.46875 z m 0.597656 3 c 0.230469 0.054687 0.382813 0.253906 0.390625 0.503906 c -0.015625 0.277344 -0.21875 0.484375 -0.5 0.480469 c -0.007812 -0.003906 -0.011719 -0.003906 -0.019531 0 h -0.46875 v -0.984375 h 0.449219 z m 0 0"/>
    </g>
</svg>
