<?xml version="1.0" encoding="UTF-8"?>
<svg height="16px" viewBox="0 0 16 16" width="16px" xmlns="http://www.w3.org/2000/svg">
    <path d="m 8 0 c -2.75 0 -5 2.25 -5 5 c 0 1.121094 0.371094 2.164062 0.996094 3 c 0.003906 0.136719 0.03125 0.269531 0.085937 0.394531 l 3 7 c 0.15625 0.367188 0.515625 0.609375 0.917969 0.609375 s 0.761719 -0.242187 0.917969 -0.609375 l 3 -7 c 0.054687 -0.125 0.082031 -0.257812 0.082031 -0.394531 c 0.628906 -0.835938 1 -1.878906 1 -3 c 0 -0.0625 0 -0.097656 -0.003906 -0.097656 c -0.003906 -0.300782 -0.144532 -0.585938 -0.382813 -0.769532 c -0.238281 -0.1875 -0.546875 -0.253906 -0.839843 -0.183593 c -0.140626 0.03125 -0.28125 0.046875 -0.421876 0.050781 c -1.113281 -0.003906 -1.996093 -0.882812 -1.996093 -2 c 0.003906 -0.21875 0.039062 -0.429688 0.109375 -0.636719 c 0.101562 -0.285156 0.066406 -0.597656 -0.09375 -0.855469 c -0.15625 -0.253906 -0.421875 -0.4257808 -0.722656 -0.4648432 c -0.207032 -0.0273438 -0.421876 -0.0429688 -0.648438 -0.0429688 z m -0.59375 2.242188 c 0.117188 1.84375 1.484375 3.296874 3.265625 3.621093 c -0.128906 0.390625 -0.164063 0.835938 -0.433594 1.136719 h -4.453125 c -0.050781 -0.054688 -0.109375 -0.105469 -0.15625 -0.164062 c -0.394531 -0.507813 -0.628906 -1.140626 -0.628906 -1.835938 c 0 -1.4375 1.070312 -2.453125 2.40625 -2.757812 z m -0.886719 6.757812 h 2.960938 l -0.4375 1.019531 c -0.042969 -0.011719 -0.09375 -0.019531 -0.144531 -0.019531 h -1.863282 c -0.03125 0 -0.058594 0.003906 -0.085937 0.007812 z m 0.855469 2 h 1.25 l -0.625 1.457031 z m 0 0" fill="#222222"/>
</svg>
