<?xml version="1.0" encoding="UTF-8"?>
<svg height="16px" viewBox="0 0 16 16" width="16px" xmlns="http://www.w3.org/2000/svg">
    <g fill="#222222">
        <path d="m 5 1 c -1.65625 0 -3 1.34375 -3 3 v 9 c 0 1.65625 1.34375 3 3 3 h 6 c 1.65625 0 3 -1.34375 3 -3 v -6 c 0 -0.90625 -0.359375 -1.773438 -1 -2.414062 l -2.585938 -2.585938 c -0.640624 -0.640625 -1.507812 -1 -2.414062 -1 z m 0 2 h 3 v 4 h 4 v 4.230469 l -2.472656 -2.421875 l -2.425782 2.390625 l -1.605468 -1.699219 l -1.496094 1.496094 v -6.996094 c 0 -0.5625 0.4375 -1 1 -1 z m 4.527344 7.207031 l 2.472656 2.417969 v 0.375 c 0 0.5625 -0.4375 1 -1 1 h -1.246094 l -1.964844 -2.074219 z m -4.050782 0.726563 l 2.902344 3.066406 h -3.378906 c -0.5625 0 -1 -0.4375 -1 -1 v -0.589844 z m 0 0"/>
        <path d="m 6.96875 6.984375 c 0 0.554687 -0.449219 1 -1 1 c -0.554688 0 -1 -0.445313 -1 -1 c 0 -0.550781 0.445312 -1 1 -1 c 0.550781 0 1 0.449219 1 1 z m 0 0"/>
    </g>
</svg>
