<?xml version="1.0" encoding="UTF-8"?>
<svg height="16px" viewBox="0 0 16 16" width="16px" xmlns="http://www.w3.org/2000/svg">
    <path d="m 12 1 l -4.300781 4.300781 c -0.542969 -0.199219 -1.117188 -0.300781 -1.699219 -0.300781 c -2.761719 0 -5 2.238281 -5 5 s 2.238281 5 5 5 s 5 -2.238281 5 -5 c 0 -0.835938 -0.210938 -1.65625 -0.609375 -2.390625 l 0.609375 -0.609375 h 2 v -2 h 2 v -4 z m -7 9 c 0.550781 0 1 0.449219 1 1 s -0.449219 1 -1 1 s -1 -0.449219 -1 -1 s 0.449219 -1 1 -1 z m 0 0" fill="#222222"/>
</svg>
