<?xml version="1.0" encoding="UTF-8"?>
<svg height="16px" viewBox="0 0 16 16" width="16px" xmlns="http://www.w3.org/2000/svg">
    <path d="m 9.351562 0.0195312 c -0.699218 0 -1.394531 0.2617188 -1.925781 0.7968748 l -2.648437 2.648438 c -0.53125 0.53125 -0.796875 1.226562 -0.796875 1.921875 c 0 0.304687 0.050781 0.613281 0.15625 0.90625 l -3.855469 4 c -0.179688 0.1875 -0.28125 0.433593 -0.28125 0.695312 v 3.304688 c 0 0.433593 0.160156 0.890625 0.488281 1.214843 c 0.324219 0.324219 0.78125 0.488282 1.214844 0.488282 h 3.296875 c 0.550781 -0.003906 1 -0.449219 1 -1 v -0.996094 h 1 c 0.550781 0 1 -0.449219 1 -1 v -1 h 1 c 0.203125 0 0.398438 -0.0625 0.566406 -0.175781 c 0.992188 0.425781 2.1875 0.234375 2.996094 -0.578125 l 2.648438 -2.644532 c 1.0625 -1.066406 1.0625 -2.789062 0 -3.851562 l -3.9375 -3.933594 c -0.53125 -0.535156 -1.226563 -0.7968748 -1.921876 -0.7968748 z m 0 2.0429688 c 0.195313 -0.003906 0.394532 0.054688 0.507813 0.167969 l 3.9375 3.9375 c 0.226563 0.222656 0.226563 0.789062 0 1.015625 l -2.648437 2.648437 c -0.226563 0.226563 -0.792969 0.226563 -1.019532 0 l -3.9375 -3.9375 c -0.226562 -0.222656 -0.226562 -0.792969 0 -1.015625 l 2.648438 -2.648437 c 0.113281 -0.113281 0.3125 -0.167969 0.511718 -0.167969 z m -3.988281 5.832031 l 2.105469 2.105469 h -0.46875 c -0.550781 0 -1 0.449219 -1 1 v 1 h -1 c -0.550781 0 -1 0.449219 -1 1 v 0.996094 h -2 v -2.605469 z m 0 0"/>
    <path d="m 9.5 4 c 0 0.132812 0.050781 0.257812 0.144531 0.351562 l 2 2 c 0.195313 0.195313 0.511719 0.195313 0.707031 0 c 0.195313 -0.195312 0.195313 -0.511718 0 -0.707031 l -2 -2 c -0.195312 -0.191406 -0.511718 -0.191406 -0.707031 0 c -0.09375 0.09375 -0.144531 0.222657 -0.144531 0.355469 z m 0 0"/>
</svg>
