<?xml version="1.0" encoding="UTF-8"?>
<svg height="16px" viewBox="0 0 16 16" width="16px" xmlns="http://www.w3.org/2000/svg">
    <g fill="#222222">
        <path d="m 2.5 2 c -1.367188 0 -2.5 1.132812 -2.5 2.5 v 7 c 0 1.367188 1.132812 2.5 2.5 2.5 h 4.492188 v -2 h -1.492188 c -0.277344 0 -0.5 -0.222656 -0.5 -0.5 v -1 c 0 -0.277344 0.222656 -0.5 0.5 -0.5 h 1.492188 v -1 h -0.492188 c -0.277344 0 -0.5 -0.222656 -0.5 -0.5 v -1 c 0 -0.277344 0.222656 -0.5 0.5 -0.5 h 0.699219 c 0.203125 -0.457031 0.542969 -0.835938 0.960937 -1.132812 c -0.097656 -0.089844 -0.160156 -0.222657 -0.160156 -0.367188 v -1 c 0 -0.277344 0.222656 -0.5 0.5 -0.5 h 0.792969 c 0.363281 -0.597656 1.023437 -1 1.761719 -1 h 1.890624 c 1.125 0 2.058594 0.929688 2.058594 2.054688 v 0.363281 c 0.363282 0.144531 0.703125 0.335937 0.996094 0.574219 v -1.492188 c 0 -1.367188 -1.132812 -2.5 -2.5 -2.5 z m 0 2 h 1 c 0.277344 0 0.5 0.222656 0.5 0.5 v 1 c 0 0.277344 -0.222656 0.5 -0.5 0.5 h -1 c -0.277344 0 -0.5 -0.222656 -0.5 -0.5 v -1 c 0 -0.242188 0.171875 -0.445312 0.398438 -0.488281 c 0.03125 -0.007813 0.066406 -0.011719 0.101562 -0.011719 z m 3 0 h 1 c 0.277344 0 0.5 0.222656 0.5 0.5 v 1 c 0 0.277344 -0.222656 0.5 -0.5 0.5 h -1 c -0.277344 0 -0.5 -0.222656 -0.5 -0.5 v -1 c 0 -0.277344 0.222656 -0.5 0.5 -0.5 z m -2 3 h 1 c 0.277344 0 0.5 0.222656 0.5 0.5 v 1 c 0 0.277344 -0.222656 0.5 -0.5 0.5 h -1 c -0.277344 0 -0.5 -0.222656 -0.5 -0.5 v -1 c 0 -0.277344 0.222656 -0.5 0.5 -0.5 z m -1 3 h 1 c 0.277344 0 0.5 0.222656 0.5 0.5 v 1 c 0 0.277344 -0.222656 0.5 -0.5 0.5 h -1 c -0.277344 0 -0.5 -0.222656 -0.5 -0.5 v -1 c 0 -0.277344 0.222656 -0.5 0.5 -0.5 z m 0 0"/>
        <path d="m 10 5.054688 v 0.945312 h -0.007812 c -1.109376 0 -2 0.890625 -2 2 v 6 c 0 1.109375 0.890624 2 2 2 h 4.007812 c 1.109375 0 2 -0.890625 2 -2 v -6 c 0 -1.109375 -0.890625 -2 -2 -2 v -0.945312 c 0 -0.582032 -0.472656 -1.054688 -1.054688 -1.054688 h -1.890624 c -0.582032 0 -1.054688 0.472656 -1.054688 1.054688 z m 2.019531 1.945312 c 0.542969 0 0.980469 0.4375 0.980469 0.980469 v 2.019531 c 0 0.542969 -0.4375 0.980469 -0.980469 0.980469 c -0.546875 0 -0.984375 -0.4375 -0.984375 -0.980469 v -2.019531 c 0 -0.542969 0.4375 -0.980469 0.984375 -0.980469 z m -0.019531 4.71875 c 0.699219 0 1.265625 0.5625 1.265625 1.261719 c 0 0.703125 -0.566406 1.265625 -1.265625 1.265625 s -1.265625 -0.5625 -1.265625 -1.265625 c 0 -0.699219 0.566406 -1.261719 1.265625 -1.261719 z m 0 0"/>
    </g>
</svg>
