<?xml version="1.0" encoding="UTF-8"?>
<svg height="16px" viewBox="0 0 16 16" width="16px" xmlns="http://www.w3.org/2000/svg">
    <path d="m 12.242188 0 l -8.5 0.00390625 c -0.953126 0.00390625 -1.75 0.80078175 -1.75 1.74999975 v 5.496094 c 0 0.953125 0.796874 1.75 1.75 1.75 h 0.75 s 0.5 0.007812 0.5 0.507812 c 0 0.492188 -0.5 0.492188 -0.5 0.492188 h -0.5 v 1.992188 h 2.984374 l 0.015626 2.007812 h -5.5 c -0.277344 0 -0.5 0.222656 -0.5 0.5 v 1 c 0 0.277344 0.222656 0.5 0.5 0.5 h 13 c 0.277343 0 0.5 -0.222656 0.5 -0.5 v -1 c 0 -0.277344 -0.222657 -0.5 -0.5 -0.5 h -5.5 v -2.007812 h 3 v -2 h -0.5 s -0.5 0.007812 -0.5 -0.492188 s 0.5 -0.507812 0.5 -0.507812 h 0.75 c 0.953124 0 1.75 -0.796876 1.75 -1.75 v -5.492188 c 0 -0.953125 -0.796876 -1.75 -1.75 -1.75 z m -0.25 2 v 4.992188 l -8 0.007812 v -4.996094 z m 0 0" fill="#222222"/>
</svg>
