<?xml version="1.0" encoding="UTF-8"?>
<svg height="16px" viewBox="0 0 16 16" width="16px" xmlns="http://www.w3.org/2000/svg">
    <g fill="#222222">
        <path d="m 0 11 v 2 h 4.179688 c -0.117188 -0.320312 -0.175782 -0.660156 -0.179688 -1 c 0.003906 -0.339844 0.0625 -0.679688 0.179688 -1 z m 0 0" fill-opacity="0.34902"/>
        <path d="m 6 0 v 10.269531 c -0.597656 0.347657 -1 0.996094 -1 1.730469 s 0.402344 1.382812 1 1.730469 v 2.269531 h 2 v -2.269531 c 0.300781 -0.175781 0.554688 -0.429688 0.726562 -0.730469 h 7.273438 v -2 h -7.273438 c -0.171874 -0.300781 -0.425781 -0.554688 -0.726562 -0.730469 v -10.269531 z m 1 11 c 0.558594 0 1 0.441406 1 1 s -0.441406 1 -1 1 s -1 -0.441406 -1 -1 s 0.441406 -1 1 -1 z m 0 0"/>
    </g>
</svg>
