<?xml version="1.0" encoding="UTF-8"?>
<svg height="16px" viewBox="0 0 16 16" width="16px" xmlns="http://www.w3.org/2000/svg">
    <path d="m 3.996094 3.023438 c -1.644532 0 -2.996094 1.367187 -2.996094 3.015624 c 0 0.570313 0.429688 0.960938 0.996094 0.960938 c 0.617187 0 1.003906 -0.421875 1.003906 -0.960938 c 0 -0.585937 0.433594 -1.015624 0.996094 -1.015624 c 0.566406 0 1 0.429687 1 1.015624 v 0.96875 c -0.554688 0.019532 -0.996094 0.464844 -0.996094 1.023438 v 2.96875 c 0 0.542969 0.496094 1 1 1 h 6 c 0.523438 0 1 -0.476562 1 -1 v -2.96875 c 0 -0.558594 -0.445312 -1.007812 -1 -1.023438 h -4.003906 v -0.96875 c 0 -1.648437 -1.351563 -3.015624 -3 -3.015624 z m 0 0" fill="#222222"/>
</svg>
