<?xml version="1.0" encoding="UTF-8"?>
<svg height="16px" viewBox="0 0 16 16" width="16px" xmlns="http://www.w3.org/2000/svg">
    <path d="m 6.574219 0.0625 c -3.578125 0 -6.5000002 2.925781 -6.5000002 6.5 c 0 1.355469 0.4140622 2.613281 1.1289062 3.65625 c 0.269531 -0.644531 0.878906 -1.117188 1.589844 -1.203125 c -0.457031 -0.703125 -0.71875 -1.542969 -0.71875 -2.453125 c 0 -2.496094 2 -4.5 4.5 -4.5 c 1.175781 0 2.246093 0.449219 3.046875 1.183594 c -0.042969 0.105468 -0.0625 0.21875 -0.0625 0.339844 v 0.453124 c -0.472656 0.128907 -0.929688 0.316407 -1.355469 0.566407 l -0.320313 -0.324219 c -0.394531 -0.390625 -1.019531 -0.390625 -1.410156 0 l -0.707031 0.707031 c -0.390625 0.386719 -0.390625 1.015625 0 1.40625 l 0.320313 0.324219 c -0.246094 0.425781 -0.433594 0.878906 -0.558594 1.355469 h -0.453125 c -0.554688 0 -1 0.445312 -1 0.996093 v 0.242188 c 0.523437 0.335938 0.882812 0.910156 0.921875 1.558594 c 0 0 0 0 0.003906 0.003906 v 0.101562 v 0.023438 c 1.089844 0 2 0.910156 2 2 v 0.046875 c 1.265625 -0.082031 2.433594 -0.53125 3.402344 -1.242187 l 2.972656 2.976562 c 0.957031 0.9375 2.363281 -0.5 1.40625 -1.4375 l -2.957031 -2.957031 c 0.785156 -1.074219 1.25 -2.394531 1.25 -3.824219 c 0 -3.574219 -2.925781 -6.5 -6.5 -6.5 z m 4.5 6.5 c 0 1.882812 -1.136719 3.480469 -2.761719 4.15625 c -0.15625 -0.363281 -0.238281 -0.757812 -0.238281 -1.15625 c 0 -1.65625 1.339843 -3 3 -3 z m -8.050781 3.4375 c -0.542969 0 -0.976563 0.433594 -0.976563 0.976562 v 1.023438 h -1.015625 c -0.554688 0 -1 0.445312 -1 1 s 0.445312 1 1 1 h 1.015625 v 1.066406 c 0 0.542969 0.433594 0.976563 0.976563 0.976563 c 0.542968 0 0.976562 -0.433594 0.976562 -0.976563 v -1.066406 h 1 c 0.554688 0 1 -0.445312 1 -1 s -0.445312 -1 -1 -1 h -1 v -1.023438 c 0 -0.542968 -0.433594 -0.976562 -0.976562 -0.976562 z m 0 0" fill="#222222"/>
</svg>
