<?xml version="1.0" encoding="UTF-8"?>
<svg height="16px" viewBox="0 0 16 16" width="16px" xmlns="http://www.w3.org/2000/svg">
    <g fill="#2e3436">
        <path d="m 13.902344 4.152344 c 0.109375 0.507812 0.097656 0.867187 0.097656 0.867187 v 7.980469 c 0 0.5625 -0.4375 1 -1 1 h -10 c -0.5625 0 -1 -0.4375 -1 -1 v -5.398438 l 4.890625 3.261719 c 0.671875 0.445313 1.546875 0.445313 2.21875 0 l 1.792969 -1.195312 c -0.28125 -0.191407 -0.515625 -0.453125 -0.671875 -0.753907 l -1.675781 1.117188 c -0.335938 0.222656 -0.773438 0.222656 -1.109376 0 l -5.167968 -3.445312 c -0.039063 -0.023438 -0.082032 -0.042969 -0.125 -0.050782 c 0.058594 -0.082031 0.132812 -0.152344 0.222656 -0.207031 l 0.078125 -0.046875 l -1.433594 -1.433594 c -0.640625 0.523438 -1.019531 1.3125 -1.019531 2.152344 v 6 c 0 1.644531 1.355469 3 3 3 h 10 c 1.644531 0 3 -1.355469 3 -3 v -6 c 0 -0.96875 -0.503906 -1.867188 -1.328125 -2.375 z m 0 0" fill-opacity="0.501961"/>
        <path d="m 13 8 c 0 0.554688 -0.449219 1 -1 1 s -1 -0.445312 -1 -1 v -3 c 0 -0.5 -0.199219 -0.894531 -1 -1 h -5 v 2 h -1 v -0.003906 c -0.265625 0 -0.519531 -0.101563 -0.707031 -0.289063 l -2 -2 c -0.390625 -0.390625 -0.390625 -1.023437 0 -1.414062 l 2 -2 c 0.1875 -0.183594 0.441406 -0.28906275 0.707031 -0.2851565 v -0.0078125 h 1 v 2 h 5 c 1.332031 0 2.277344 0.8125 2.644531 1.554688 c 0.371094 0.738281 0.355469 1.445312 0.355469 1.445312 z m 0 0"/>
    </g>
</svg>
