<?xml version="1.0" encoding="UTF-8"?>
<svg height="16px" viewBox="0 0 16 16" width="16px" xmlns="http://www.w3.org/2000/svg">
    <path d="m 7.949219 3.007812 c -0.140625 0.007813 -0.273438 0.054688 -0.386719 0.136719 l -4.152344 2.980469 l 0.003906 0.003906 c -0.261718 0.1875 -0.414062 0.488282 -0.414062 0.808594 v 5.042969 c 0 0.550781 0.449219 1 1 1 h 8 c 0.550781 0 1 -0.449219 1 -1 v -5.042969 c 0 -0.320312 -0.15625 -0.625 -0.414062 -0.8125 l -4.148438 -2.980469 c -0.144531 -0.101562 -0.316406 -0.152343 -0.488281 -0.136719 z m 0.050781 1.671876 l 3.003906 2.15625 v 0.039062 l -3.003906 2.160156 l -3 -2.160156 c -0.003906 -0.011719 -0.003906 -0.027344 -0.003906 -0.039062 z m 3 3.425781 v 2.875 h -6 v -2.871094 l 2.707031 1.949219 c 0.175781 0.125 0.410157 0.125 0.585938 0 z m 0 0" fill="#222222"/>
</svg>
