<?xml version="1.0" encoding="UTF-8"?>
<svg height="16px" viewBox="0 0 16 16" width="16px" xmlns="http://www.w3.org/2000/svg">
    <path d="m 1.53125 0.457031 l -1.0625 1.0625 l 2.382812 2.378907 l 1.414063 1.414062 l 1.671875 1.675781 l 4 4 l 1.871094 1.867188 l 2.660156 2.664062 l 1.0625 -1.0625 l -2.390625 -2.394531 c 0.527344 -0.539062 0.855469 -1.269531 0.855469 -2.078125 c 0 -1.644531 -1.351563 -2.996094 -2.996094 -2.996094 h -2 v -2 h 4 v -2 h -4 v -2 h -2 v 2 h -2 c -0.28125 0 -0.558594 0.039063 -0.824219 0.113281 z m 4.53125 4.53125 h 0.9375 v 0.9375 z m -3.96875 0.277344 c -0.183594 0.742187 -0.082031 1.539063 0.308594 2.21875 c 0.535156 0.925781 1.527344 1.496094 2.597656 1.496094 v 0.007812 h 0.820312 z m 7.96875 3.722656 h 0.9375 c 0.5625 0 0.996094 0.433594 0.996094 0.996094 c 0 0.265625 -0.097656 0.5 -0.257813 0.675781 z m -3.0625 1.183594 v 0.816406 h -4 v 2 h 4 v 2 h 2 v -2 h 0.820312 z m 0 0" fill="#222222"/>
</svg>
