<?xml version="1.0" encoding="UTF-8"?>
<svg height="16px" viewBox="0 0 16 16" width="16px" xmlns="http://www.w3.org/2000/svg">
    <g fill="#222222">
        <path d="m 5 0 c -2.753906 0 -5 2.246094 -5 5 v 6 c 0 2.753906 2.246094 5 5 5 h 2 c 0.261719 0 0.519531 -0.019531 0.769531 -0.0625 c -0.472656 -0.414062 -0.769531 -1.019531 -0.769531 -1.703125 v -0.234375 h -2 c -1.679688 0 -3 -1.320312 -3 -3 v -6 c 0 -1.679688 1.320312 -3 3 -3 h 2 c 0.90625 0 1.707031 0.382812 2.25 1 h 2.332031 c -0.777343 -1.761719 -2.539062 -3 -4.582031 -3 z m 1 3 c -0.554688 0 -1 0.445312 -1 1 v 3 c 0 0.554688 0.445312 1 1 1 s 1 -0.445312 1 -1 v -3 c 0 -0.554688 -0.445312 -1 -1 -1 z m 0 0"/>
        <path d="m 10 5.054688 v 0.945312 h -0.007812 c -1.109376 0 -2 0.890625 -2 2 v 6 c 0 1.109375 0.890624 2 2 2 h 4.007812 c 1.109375 0 2 -0.890625 2 -2 v -6 c 0 -1.109375 -0.890625 -2 -2 -2 v -0.945312 c 0 -0.582032 -0.472656 -1.054688 -1.054688 -1.054688 h -1.890624 c -0.582032 0 -1.054688 0.472656 -1.054688 1.054688 z m 2.019531 1.945312 c 0.542969 0 0.980469 0.4375 0.980469 0.980469 v 2.019531 c 0 0.542969 -0.4375 0.980469 -0.980469 0.980469 c -0.546875 0 -0.984375 -0.4375 -0.984375 -0.980469 v -2.019531 c 0 -0.542969 0.4375 -0.980469 0.984375 -0.980469 z m -0.019531 4.71875 c 0.699219 0 1.265625 0.5625 1.265625 1.261719 c 0 0.703125 -0.566406 1.265625 -1.265625 1.265625 s -1.265625 -0.5625 -1.265625 -1.265625 c 0 -0.699219 0.566406 -1.261719 1.265625 -1.261719 z m 0 0"/>
    </g>
</svg>
