<?xml version="1.0" encoding="UTF-8"?>
<svg height="16px" viewBox="0 0 16 16" width="16px" xmlns="http://www.w3.org/2000/svg">
    <path d="m 3.019531 1.003906 c -1.652343 0 -3.0117185 1.359375 -3.0117185 3.011719 s 1.3593755 3.011719 3.0117185 3.011719 h 3.980469 v 0.976562 c 0 1.113282 -0.882812 2 -2 2 h -1.269531 c -0.347657 -0.597656 -0.996094 -1 -1.730469 -1 c -1.097656 0 -2 0.898438 -2 2 c 0 1.097656 0.902344 2 2 2 c 0.734375 0 1.382812 -0.40625 1.730469 -1 h 1.269531 c 0.726562 0 1.410156 -0.199218 2 -0.546875 v 0.6875 c -0.597656 0.347657 -1 0.996094 -1 1.730469 c 0 1.097656 0.902344 2 2 2 s 2 -0.902344 2 -2 c 0 -0.734375 -0.402344 -1.382812 -1 -1.730469 v -0.6875 c 0.589844 0.347657 1.273438 0.546875 2 0.546875 h 1.269531 c 0.347657 0.59375 0.996094 1 1.730469 1 c 1.097656 0 2 -0.902344 2 -2 c 0 -1.101562 -0.902344 -2 -2 -2 c -0.734375 0 -1.382812 0.402344 -1.730469 1 h -1.269531 c -1.117188 0 -2 -0.886718 -2 -2 v -0.976562 h 3.980469 c 1.652343 0 3.011719 -1.359375 3.011719 -3.011719 s -1.359376 -3.011719 -3.011719 -3.011719 z m 0 2 h 0.113281 c 0.488282 0.0625 0.859376 0.476563 0.859376 0.988282 c 0 0.558593 -0.441407 1 -1 1 c -0.410157 0 -0.753907 -0.238282 -0.910157 -0.582032 c -0.046875 -0.121094 -0.074219 -0.253906 -0.074219 -0.394531 c 0 -0.578125 0.433594 -1.011719 1.011719 -1.011719 z m 1.707031 0 h 8.253907 c 0.578125 0 1.011719 0.433594 1.011719 1.011719 s -0.433594 1.011719 -1.011719 1.011719 h -8.28125 c 0.1875 -0.300782 0.292969 -0.65625 0.292969 -1.035156 c 0 -0.359376 -0.097657 -0.699219 -0.265626 -0.988282 z m -2.726562 7 c 0.558594 0 1 0.441406 1 1 c 0 0.554688 -0.441406 1 -1 1 s -1 -0.445312 -1 -1 c 0 -0.558594 0.441406 -1 1 -1 z m 12 0 c 0.558594 0 1 0.441406 1 1 c 0 0.554688 -0.441406 1 -1 1 s -1 -0.445312 -1 -1 c 0 -0.558594 0.441406 -1 1 -1 z m -6 2.871094 c 0.558594 0 1 0.441406 1 1 s -0.441406 1 -1 1 s -1 -0.441406 -1 -1 s 0.441406 -1 1 -1 z m 0 0" fill="#222222"/>
</svg>
