<?xml version="1.0" encoding="UTF-8"?>
<svg height="16px" viewBox="0 0 16 16" width="16px" xmlns="http://www.w3.org/2000/svg">
    <path d="m 11.199219 0 c -0.664063 0 -1.199219 0.535156 -1.199219 1.199219 v 5.601562 c 0 0.066407 0.007812 0.132813 0.019531 0.199219 h -0.019531 v 1 h -0.585938 l -1 -1 h 0.585938 v -1 c 0 -0.554688 -0.445312 -1 -1 -1 h -1.585938 l -3.707031 -3.707031 c -0.1875 -0.1875 -0.441406 -0.292969 -0.707031 -0.292969 s -0.519531 0.105469 -0.707031 0.292969 c -0.390625 0.390625 -0.390625 1.023437 0 1.414062 l 12 12 c 0.390625 0.390625 1.023437 0.390625 1.414062 0 s 0.390625 -1.023437 0 -1.414062 l -3.125 -3.121094 c 0.273438 -0.691406 0.414063 -1.429687 0.417969 -2.171875 h 2.800781 c 0.664063 0 1.199219 -0.535156 1.199219 -1.199219 v -5.601562 c 0 -0.664063 -0.535156 -1.199219 -1.199219 -1.199219 z m -10.417969 5.027344 c -0.445312 0.097656 -0.78125 0.492187 -0.78125 0.972656 c 0 0.554688 0.445312 1 1 1 h 1.757812 z m -0.78125 2.972656 c 0 2.144531 1.144531 4.125 3 5.195312 c 0.910156 0.527344 1.945312 0.804688 3 0.804688 v 1 h -1.5 c -0.277344 0 -0.5 0.222656 -0.5 0.5 s 0.222656 0.5 0.5 0.5 h 7.257812 l -8 -8 z m 0 0" fill="#222222"/>
</svg>
