<?xml version="1.0" encoding="UTF-8"?>
<svg height="16px" viewBox="0 0 16 16" width="16px" xmlns="http://www.w3.org/2000/svg">
    <path d="m 8 0.0507812 c -1.105469 0 -2 0.8945308 -2 1.9999998 s 0.894531 2 2 2 s 2 -0.894531 2 -2 s -0.894531 -1.9999998 -2 -1.9999998 z m -6.46875 0.4062498 l -1.0625 1.0625 l 14 14 l -0.390625 0.394531 c 0.128906 -0.019531 0.257813 -0.0625 0.375 -0.128906 c 0.257813 -0.15625 0.433594 -0.421875 0.476563 -0.722656 l 0.601562 -0.605469 l -1.769531 -1.765625 l -2.257813 -3.765625 h -1.503906 v -0.9375 h 3 c 0.550781 0 1 -0.449219 1 -1 s -0.449219 -1 -1 -1 h -2.585938 l -0.707031 -0.707031 c -0.1875 -0.1875 -0.441406 -0.292969 -0.707031 -0.292969 h -2 s -0.394531 0 -0.6875 0.25 z m 2.578125 6.699219 c -1.230469 0.398438 -2.257813 1.3125 -2.765625 2.546875 c -0.695312 1.679687 -0.308594 3.621094 0.976562 4.90625 c 1.285157 1.285156 3.222657 1.671875 4.902344 0.976563 c 1.234375 -0.511719 2.148438 -1.539063 2.546875 -2.765626 l -0.890625 -0.894531 h -0.933594 c -0.164062 0.804688 -0.707031 1.488281 -1.488281 1.8125 c -0.9375 0.386719 -2.007812 0.171875 -2.722656 -0.542969 c -0.71875 -0.71875 -0.933594 -1.789062 -0.542969 -2.726562 c 0.320313 -0.777344 1.003906 -1.324219 1.808594 -1.484375 v -0.933594 z m 1.894531 1.894531 c 0.035156 1.757813 1.636719 1.921875 1.933594 1.9375 z m 0 0" fill="#222222"/>
</svg>
