<?xml version="1.0" encoding="UTF-8"?>
<svg height="16px" viewBox="0 0 16 16" width="16px" xmlns="http://www.w3.org/2000/svg">
    <path d="m 7 0.992188 v 0.003906 h -2.972656 c -1.453125 0 -2.683594 1.046875 -2.96875 2.421875 c 0 0 0.003906 0 0 0 c -0.019532 0.097656 -0.035156 0.195312 -0.042969 0.296875 c -0.003906 0 0 0.003906 0 0.003906 c -0.011719 0.101562 -0.019531 0.203125 -0.019531 0.304688 v 0.003906 v 7.90625 c 0 1.660156 1.367187 3.027344 3.03125 3.027344 h 7.945312 c 1.660156 0 3.027344 -1.367188 3.027344 -3.027344 v -7.910156 c 0 -0.207032 -0.023438 -0.410157 -0.0625 -0.605469 c -0.285156 -1.375 -1.511719 -2.421875 -2.964844 -2.421875 h -2.972656 v -0.003906 z m -2.972656 2.007812 h 2.972656 v 3 h -2.972656 c -0.589844 0 -1.03125 -0.441406 -1.03125 -1.027344 v -0.949218 c 0.003906 -0.035157 0.003906 -0.070313 0.007812 -0.105469 c 0.003906 -0.035157 0.007813 -0.070313 0.011719 -0.105469 c 0.007813 -0.035156 0.019531 -0.066406 0.027344 -0.097656 c 0.125 -0.421875 0.503906 -0.714844 0.984375 -0.714844 z m 4.972656 0 h 2.972656 c 0.585938 0 1.023438 0.4375 1.027344 1.023438 v 0.949218 c 0 0.585938 -0.441406 1.027344 -1.027344 1.027344 h -2.972656 z m 4 3.71875 v 5.214844 c 0 0.585937 -0.441406 1.027344 -1.027344 1.027344 h -7.945312 c -0.589844 0 -1.03125 -0.441407 -1.03125 -1.027344 v -5.179688 c 0.324218 0.152344 0.671875 0.25 1.03125 0.25 h 2.972656 v 3.035156 l 2 0.988282 v -4.023438 h 2.972656 c 0.34375 0 0.695313 -0.113281 1.027344 -0.285156 z m 0 0" fill="#222222"/>
</svg>
