<?xml version="1.0" encoding="UTF-8"?>
<svg height="16px" viewBox="0 0 16 16" width="16px" xmlns="http://www.w3.org/2000/svg">
    <path d="m 2.996094 2.03125 c -1.644532 0 -3.00000025 1.355469 -3.00000025 3 v 6 c 0 1.644531 1.35546825 3 3.00000025 3 h 9 c 1.644531 0 3 -1.355469 3 -3 v -4.5 c 0 -0.265625 -0.105469 -0.519531 -0.292969 -0.707031 l -3.5 -3.5 c -0.1875 -0.1875 -0.441406 -0.292969 -0.707031 -0.292969 z m 0 2 h 7 v 1.5 c 0 1 0.5 1.5 1.5 1.5 h 1.5 v 3 h -2.035156 c -0.558594 0 -1.097657 -0.195312 -1.523438 -0.550781 l -1.128906 -0.945313 c -0.804688 -0.671875 -1.972656 -0.671875 -2.785156 -0.003906 l -1.089844 0.902344 c -0.449219 0.371094 -1.015625 0.574218 -1.597656 0.574218 h -0.839844 v -4.976562 c 0 -0.570312 0.429687 -1 1 -1 z m 1.5 0.964844 c -0.824219 0 -1.5 0.675781 -1.5 1.5 c 0 0.824218 0.675781 1.5 1.5 1.5 c 0.824218 0 1.5 -0.675782 1.5 -1.5 c 0 -0.824219 -0.675782 -1.5 -1.5 -1.5 z m 0 1 c 0.28125 0 0.5 0.21875 0.5 0.5 s -0.21875 0.5 -0.5 0.5 s -0.5 -0.21875 -0.5 -0.5 s 0.21875 -0.5 0.5 -0.5 z m 2.421875 3.035156 c 0.265625 0 0.53125 0.089844 0.753906 0.273438 l 1.125 0.941406 c 0.605469 0.503906 1.371094 0.785156 2.164063 0.785156 h 2.035156 c 0 0.570312 -0.429688 1 -1 1 h -9 c -0.570313 0 -1 -0.429688 -1 -1 v -0.023438 h 0.839844 c 0.816406 0 1.605468 -0.285156 2.238281 -0.804687 l 1.085937 -0.902344 c 0.222656 -0.183593 0.488282 -0.273437 0.757813 -0.269531 z m 0 0" fill="#222222"/>
</svg>
