<?xml version="1.0" encoding="UTF-8"?>
<svg height="16px" viewBox="0 0 16 16" width="16px" xmlns="http://www.w3.org/2000/svg">
    <path d="m 2.5 0 c -1.378906 0 -2.5 1.121094 -2.5 2.5 v 2.5 c 0 6.058594 4.941406 11 11 11 c 0.003906 0.003906 0.003906 0.003906 0.007812 0 v 0.003906 h 2.5 c 1.378907 0 2.5 -1.121094 2.5 -2.5 v -1.5 h -0.007812 v -0.503906 c 0 -0.828125 -0.667969 -1.5 -1.5 -1.5 h -3 c -0.832031 0 -1.5 0.671875 -1.5 1.5 v 1 c 0 0.046875 0.003906 0.09375 0.007812 0.136719 v 0.304687 c -3.636718 -0.445312 -6.5 -3.304687 -6.945312 -6.941406 h 0.300781 c 0.046875 0.003906 0.089844 0.007812 0.136719 0.007812 h 1 c 0.832031 0 1.5 -0.671874 1.5 -1.5 v -3 c 0 -0.832031 -0.667969 -1.4999995 -1.5 -1.4999995 h -0.5 v -0.0078125 z m 0 0" fill="#222222"/>
</svg>
