<?xml version="1.0" encoding="UTF-8"?>
<svg height="16px" viewBox="0 0 16 16" width="16px" xmlns="http://www.w3.org/2000/svg">
    <g fill="#222222">
        <path d="m 0 3.992188 c 0 -1.644532 1.355469 -3 3 -3 h 8 c 1.644531 0 3 1.355468 3 3 v 3 h -2 v -3 c 0 -0.5625 -0.4375 -1 -1 -1 h -8 c -0.5625 0 -1 0.4375 -1 1 v 5 c 0 0.5625 0.4375 1 1 1 h 3 v 2 h -3 c -1.644531 0 -3 -1.355469 -3 -3 z m 0 0" fill-opacity="0.34902"/>
        <path d="m 10 8.992188 c -1.089844 0 -2 0.910156 -2 2 v 2 c 0 1.089843 0.910156 2 2 2 h 4 c 1.089844 0 2 -0.910157 2 -2 v -2 c 0 -1.089844 -0.910156 -2 -2 -2 z m 0 2 h 4 v 2 h -4 z m 0 0"/>
        <path d="m 3.5 3.992188 c -0.132812 0 -0.257812 0.050781 -0.355469 0.144531 c -0.191406 0.195312 -0.191406 0.515625 0 0.707031 l 3.15625 3.15625 h -1.800781 c -0.277344 0 -0.5 0.222656 -0.5 0.5 s 0.222656 0.5 0.5 0.5 h 3.5 v -3.496094 v -0.003906 c 0 -0.277344 -0.222656 -0.5 -0.5 -0.5 s -0.5 0.222656 -0.5 0.5 v 1.785156 l -3.148438 -3.148437 c -0.09375 -0.09375 -0.21875 -0.144531 -0.351562 -0.144531 z m 0 0"/>
    </g>
</svg>
