<?xml version="1.0" encoding="UTF-8"?>
<svg height="16px" viewBox="0 0 16 16" width="16px" xmlns="http://www.w3.org/2000/svg">
    <path d="m 4.335938 0 c -0.925782 0 -1.671876 0.742188 -1.671876 1.667969 c 0 0.546875 0.265626 1.035156 0.671876 1.339843 c -1.136719 0.070313 -2.066407 0.898438 -2.285157 1.992188 c -0.105469 -0.003906 -0.210937 0.007812 -0.3125 0.035156 c -0.257812 0.070313 -0.476562 0.238282 -0.605469 0.46875 c -0.132812 0.230469 -0.1679682 0.503906 -0.0976558 0.761719 c 0.0703128 0.253906 0.2382818 0.472656 0.4687498 0.601563 l 14 8 c 0.230469 0.132812 0.503906 0.167968 0.761719 0.097656 c 0.253906 -0.070313 0.472656 -0.238282 0.601563 -0.46875 c 0.214843 -0.375 0.164062 -0.847656 -0.125 -1.164063 c 0.167968 -0.246093 0.257812 -0.535156 0.257812 -0.832031 v -1.09375 c 0 -1.109375 -0.714844 -2.042969 -1.710938 -2.375 c 0.429688 -0.300781 0.710938 -0.796875 0.710938 -1.363281 c 0 -0.925781 -0.742188 -1.667969 -1.664062 -1.667969 c -0.925782 0 -1.671876 0.742188 -1.671876 1.667969 c 0 0.617187 0.335938 1.15625 0.835938 1.445312 c -0.652344 0.28125 -1.15625 0.835938 -1.378906 1.519531 l -5.121094 -2.925781 v -2.207031 c 0 -0.957031 -0.53125 -1.78125 -1.316406 -2.203125 c 0.753906 -0.160156 1.316406 -0.828125 1.316406 -1.628906 c 0 -0.925781 -0.742188 -1.667969 -1.664062 -1.667969 z m 3.09375 11.039062 c -0.347657 0.023438 -0.660157 0.214844 -0.835938 0.515626 l -2.59375 4.445312 h 7 l -2.59375 -4.445312 c -0.203125 -0.34375 -0.582031 -0.546876 -0.976562 -0.515626 z m 0 0" fill="#222222"/>
</svg>
