<?xml version="1.0" encoding="UTF-8"?>
<svg height="16px" viewBox="0 0 16 16" width="16px" xmlns="http://www.w3.org/2000/svg">
    <g fill="#222222">
        <path d="m 8.589844 1 c 0.617187 0.007812 1.238281 0.089844 1.851562 0.257812 c 3.273438 0.875 5.558594 3.851563 5.558594 7.242188 s -2.285156 6.367188 -5.558594 7.242188 c -3.273437 0.878906 -6.742187 -0.554688 -8.4375 -3.492188 c -0.277344 -0.476562 -0.109375 -1.089844 0.367188 -1.363281 c 0.476562 -0.277344 1.089844 -0.113281 1.363281 0.363281 c 1.25 2.160156 3.78125 3.207031 6.1875 2.5625 c 2.410156 -0.644531 4.078125 -2.816406 4.078125 -5.3125 s -1.667969 -4.667969 -4.078125 -5.3125 c -2.40625 -0.644531 -4.9375 0.402344 -6.1875 2.5625 c -0.054687 0.085938 -0.121094 0.164062 -0.199219 0.230469 l 0.015625 0.011719 l 0.011719 0.007812 h 0.4375 c 0.550781 0 1 0.449219 1 1 v 1 h -5 v -5 h 1 c 0.550781 0 1 0.449219 1 1 v 0.6875 l 0.011719 0.011719 l 0.015625 0.011719 c 1.273437 -2.179688 3.53125 -3.519532 5.953125 -3.691407 c 0.203125 -0.015625 0.40625 -0.019531 0.609375 -0.015625 z m 0 0"/>
        <path d="m 8.484375 3.976562 c -1.484375 0 -2.484375 0.851563 -2.484375 3.023438 v 1 c -0.476562 0 -1 0.503906 -1 1.011719 v 2.988281 h 7 v -3 c 0 -0.449219 -0.457031 -1 -0.992188 -1 h -3.007812 v -1.5 c 0 -0.261719 0.183594 -0.519531 0.515625 -0.523438 c 0.28125 -0.007812 0.484375 0.195313 0.484375 0.523438 v 0.5 h 2 c 0 -2.082031 -0.726562 -3.023438 -2.515625 -3.023438 z m 0 0"/>
    </g>
</svg>
