<?xml version="1.0" encoding="UTF-8"?>
<svg height="16px" viewBox="0 0 16 16" width="16px" xmlns="http://www.w3.org/2000/svg">
    <path d="m 2 2 v 1.015625 h 0.003906 c 0.007813 0.542969 0.449219 0.984375 0.996094 0.984375 c 0.003906 0 0.011719 0 0.015625 -0.003906 v 0.03125 c 4.972656 0 8.984375 4.011718 8.984375 8.984375 c 0.007812 0.550781 0.453125 0.988281 1 0.988281 c 0.003906 0 0.011719 0 0.015625 -0.003906 v 0.003906 h 0.984375 v -0.984375 c 0 -0.003906 0 -0.007813 0 -0.011719 c -0.003906 -5.96875 -4.800781 -10.839844 -10.742188 -10.972656 c -0.082031 -0.019531 -0.160156 -0.027344 -0.242187 -0.03125 z m 0 4 v 1.015625 h 0.003906 c 0.007813 0.542969 0.449219 0.984375 0.996094 0.984375 c 0.003906 0 0.011719 0 0.015625 -0.003906 v 0.019531 c 2.71875 0 4.910156 2.140625 4.996094 4.839844 v 0.003906 c -0.007813 0.046875 -0.011719 0.09375 -0.011719 0.140625 c 0 0.550781 0.449219 1 1 1 h 0.015625 h 0.984375 v -0.984375 h 0.015625 c 0 -3.796875 -3.050781 -6.898437 -6.820313 -6.996094 c 0 0 -0.003906 0 -0.003906 -0.003906 c -0.058594 -0.007813 -0.117187 -0.011719 -0.175781 -0.015625 z m 2 4 c -1.105469 0 -2 0.894531 -2 2 s 0.894531 2 2 2 s 2 -0.894531 2 -2 s -0.894531 -2 -2 -2 z m 0 0" fill="#2e3436"/>
</svg>
