<?xml version="1.0" encoding="UTF-8"?>
<svg height="16px" viewBox="0 0 16 16" width="16px" xmlns="http://www.w3.org/2000/svg">
    <path d="m 7 1 v 1 h 1 v -1 z m 2 0 v 1 h 1 v -1 z m 2 0 v 1 h 1 v -1 z m 2 0 v 1 h 1 v -1 z m 2 0 v 1 h 1 v -1 z m -11.0625 2 c -0.90625 0.382812 -1.203125 1.21875 -0.679688 1.882812 l 3.789063 5.035157 l -0.902344 0.988281 c -0.542969 -0.558594 -1.304687 -0.90625 -2.144531 -0.90625 c -1.65625 0 -3 1.34375 -3 3 s 1.34375 3 3 3 s 3 -1.34375 3 -3 c 0 -0.09375 -0.003906 -0.1875 -0.011719 -0.28125 c -0.003906 0 0 0 0 0 l 1.152344 -1.4375 l 0.910156 1.15625 c -0.03125 0.183594 -0.050781 0.371094 -0.050781 0.5625 c 0 1.65625 1.34375 3 3 3 s 3 -1.34375 3 -3 s -1.34375 -3 -3 -3 c -0.777344 0 -1.488281 0.296875 -2.023438 0.78125 l -0.738281 -0.863281 l 3.785157 -5.035157 c 0.523437 -0.664062 0.230468 -1.5 -0.679688 -1.882812 l -4.203125 5.535156 z m 3.0625 0 v 1 h 1 v -1 z m 0 2 v 1 h 1 v -1 z m -3 7 c 0.550781 0 1 0.449219 1 1 s -0.449219 1 -1 1 s -1 -0.449219 -1 -1 s 0.449219 -1 1 -1 z m 8 0 c 0.550781 0 1 0.449219 1 1 s -0.449219 1 -1 1 s -1 -0.449219 -1 -1 s 0.449219 -1 1 -1 z m 0 0" fill="#222222"/>
</svg>
