<?xml version="1.0" encoding="UTF-8"?>
<svg height="16px" viewBox="0 0 16 16" width="16px" xmlns="http://www.w3.org/2000/svg">
    <path d="m 2 1 c -1.109375 0 -2 0.890625 -2 2 v 2 c 0 0.75 0.40625 1.398438 1.015625 1.742188 c -0.011719 0.085937 -0.015625 0.171874 -0.015625 0.257812 v 7 c 0 1.109375 0.890625 2 2 2 h 10 c 1.109375 0 2 -0.890625 2 -2 v -7 c 0 -0.085938 -0.003906 -0.171875 -0.015625 -0.257812 c 0.609375 -0.34375 1.015625 -0.992188 1.015625 -1.742188 v -2 c 0 -1.109375 -0.890625 -2 -2 -2 z m 0 2 h 12 v 2 h -12 z m 1 4 h 10 v 7 h -10 z m 0 0" fill="#2e3436"/>
    <path d="m 6 8 h 4 v 1 h -4 z m 0 0" fill="#222222"/>
</svg>
