<?xml version="1.0" encoding="UTF-8"?>
<svg height="16px" viewBox="0 0 16 16" width="16px" xmlns="http://www.w3.org/2000/svg">
    <path d="m 2.070312 0 c -1.128906 0 -2.070312 0.941406 -2.070312 2.074219 v 11.851562 c 0 1.132813 0.941406 2.074219 2.070312 2.074219 h 11.859376 c 1.128906 0 2.070312 -0.941406 2.070312 -2.074219 v -11.851562 c 0 -1.132813 -0.941406 -2.074219 -2.070312 -2.074219 z m -0.015624 2 h 0.015624 h 2.179688 v 1.460938 c 0 0.601562 -0.484375 1.082031 -1.125 1.082031 s -1.125 -0.480469 -1.125 -1.082031 v -1.386719 c 0 -0.007813 0 -0.015625 0 -0.023438 c 0 -0.015625 0.007812 -0.027343 0.011719 -0.039062 h 0.003906 c 0.007813 -0.007813 0.019531 -0.011719 0.039063 -0.011719 z m 3.195312 0 h 2.25 v 1.460938 c 0 0.601562 -0.484375 1.082031 -1.125 1.082031 s -1.125 -0.480469 -1.125 -1.082031 z m 3.25 0 h 2.25 v 1.460938 c 0 0.601562 -0.484375 1.082031 -1.125 1.082031 s -1.125 -0.480469 -1.125 -1.082031 z m 3.25 0 h 2.179688 c 0.023437 0 0.042968 0.003906 0.050781 0.011719 c 0.003906 0 0.007812 0.003906 0.007812 0.003906 c 0.007813 0.011719 0.011719 0.03125 0.011719 0.058594 v 1.386719 c 0 0.601562 -0.484375 1.082031 -1.125 1.082031 s -1.125 -0.480469 -1.125 -1.082031 z m -7 2.800781 c 0.390625 0.453125 0.976562 0.742188 1.625 0.742188 s 1.234375 -0.289063 1.625 -0.742188 c 0.390625 0.453125 0.976562 0.742188 1.625 0.742188 s 1.234375 -0.289063 1.625 -0.742188 c 0.390625 0.453125 0.976562 0.742188 1.625 0.742188 c 0.410156 0 0.796875 -0.117188 1.125 -0.316407 v 8.699219 c 0 0.027344 -0.003906 0.050781 -0.011719 0.0625 c -0.003906 0 -0.007812 0 -0.007812 0 c -0.011719 0.011719 -0.027344 0.011719 -0.050781 0.011719 h -2.9375 v -3.996094 c 0 -1.652344 -1.34375 -2.992187 -2.996094 -2.992187 s -2.996094 1.339843 -2.996094 2.992187 v 3.996094 h -2.929688 c -0.023437 0 -0.046874 -0.003906 -0.058593 -0.011719 v -0.003906 c -0.007813 -0.011719 -0.011719 -0.03125 -0.011719 -0.058594 v -8.699219 c 0.328125 0.199219 0.714844 0.316407 1.125 0.316407 c 0.648438 0 1.234375 -0.289063 1.625 -0.742188 z m 3.246094 3.210938 c 1.113281 0 1.996094 0.878906 1.996094 1.992187 v 3.996094 h -3.992188 v -3.996094 c 0 -1.113281 0.882812 -1.992187 1.996094 -1.992187 z m 0 0" fill="#222222"/>
</svg>
