<?xml version="1.0" encoding="UTF-8"?>
<svg height="16px" viewBox="0 0 16 16" width="16px" xmlns="http://www.w3.org/2000/svg">
    <g fill="#222222">
        <path d="m 5 3 h -1 c -0.550781 0 -1 0.449219 -1 1 s 0.449219 1 1 1 h 1 c 0.550781 0 1 -0.449219 1 -1 s -0.449219 -1 -1 -1 z m 0 0"/>
        <path d="m 9 2 c 1.125 0 2 0.875 2 2 s -0.875 2 -2 2 h -3 l 1 1 v -6 l -1 1 z m -4 5 c 0 0.550781 0.449219 1 1 1 h 3 c 2.214844 0 4 -1.785156 4 -4 s -1.785156 -4 -4 -4 h -3 c -0.550781 0 -1 0.449219 -1 1 z m 0 0"/>
        <path d="m 0 15 h 10 c 3.316406 0 6 -2.683594 6 -6 c 0 -2.441406 -1.457031 -4.546875 -3.5625 -5.484375 l -0.8125 1.828125 c 1.398438 0.621094 2.375 2.015625 2.375 3.65625 c 0 2.222656 -1.777344 4 -4 4 h -10 z m 0 0"/>
        <path d="m 2 4 c 0 0.550781 -0.449219 1 -1 1 s -1 -0.449219 -1 -1 s 0.449219 -1 1 -1 s 1 0.449219 1 1 z m 0 0"/>
    </g>
</svg>
