<?xml version="1.0" encoding="UTF-8"?>
<svg height="16px" viewBox="0 0 16 16" width="16px" xmlns="http://www.w3.org/2000/svg">
    <path d="m 1.53125 0.457031 l -1.0625 1.0625 l 14 14 l 1.0625 -1.0625 l -1.035156 -1.03125 c -0.03125 -0.78125 -0.652344 -1.402343 -1.433594 -1.4375 l -1 -1 h 1.9375 v -9 h -2 v 8.9375 l -1 -1 v -0.9375 h -0.9375 l -1.0625 -1.0625 v -0.9375 h 2 v -2 h -2 v -3 h -2 v 3 h -0.9375 l -1.0625 -1.0625 v -1.9375 h -1.9375 z m -0.53125 4.53125 v 2 h 2 v 2 h -2 v 2 h 2 v 3 h 2 v -3 h 2 v 3 h 2 v -1.878906 l -3.121094 -3.121094 h -0.878906 v -0.878906 l -3.121094 -3.121094 z m 0 0" fill="#222222"/>
</svg>
