<?xml version="1.0" encoding="UTF-8"?>
<svg height="16px" viewBox="0 0 16 16" width="16px" xmlns="http://www.w3.org/2000/svg">
    <path d="m 3 0 c -1.644531 0 -3 1.355469 -3 3 v 10 c 0 1.644531 1.355469 3 3 3 h 10 c 1.644531 0 3 -1.355469 3 -3 v -10 c 0 -1.644531 -1.355469 -3 -3 -3 z m 0 2 h 9.949219 l -0.007813 5.011719 c 0 1.101562 -0.898437 2 -2 2 h -0.011718 v -2.011719 h -1 v 0.007812 c -0.265626 -0.003906 -0.519532 0.101563 -0.707032 0.285157 l -2 2 c -0.390625 0.390625 -0.390625 1.023437 0 1.414062 l 2 2 c 0.1875 0.183594 0.441406 0.289063 0.707032 0.289063 v 0.003906 h 1 v -1.988281 h 0.011718 c 1.230469 0 2.324219 -0.546875 3.058594 -1.417969 v 3.40625 c 0 0.570312 -0.429688 1 -1 1 h -9.964844 v -5 c 0 -1.097656 0.902344 -2 2 -2 h 0.015625 v 2.011719 h 1 v -0.003907 c 0.265625 0.003907 0.519531 -0.101562 0.707031 -0.289062 l 2 -2 c 0.390626 -0.386719 0.390626 -1.023438 0 -1.410156 l -2 -2 c -0.1875 -0.1875 -0.441406 -0.292969 -0.707031 -0.289063 v -0.007812 h -1 v 1.988281 h -0.015625 c -1.214844 0 -2.300781 0.539062 -3.035156 1.394531 v -3.394531 c 0 -0.570312 0.429688 -1 1 -1 z m 0 0" fill="#222222"/>
</svg>
