<?xml version="1.0" encoding="UTF-8"?>
<svg height="16px" viewBox="0 0 16 16" width="16px" xmlns="http://www.w3.org/2000/svg">
    <path d="m 2.996094 1.015625 c -1.65625 0 -3.00000025 1.34375 -3.00000025 3 v 2 c 0 0.550781 0.44921825 1 1.00000025 1 c 0.5625 0 1 0.4375 1 1 s -0.4375 1 -1 1 c -0.550782 0 -1.00000025 0.449219 -1.00000025 1 v 2 c 0 1.65625 1.34375025 3 3.00000025 3 h 10.011718 c 1.65625 0 3 -1.34375 3 -3 v -2 c 0 -0.550781 -0.449218 -1 -1 -1 c -0.566406 0 -1 -0.4375 -1 -1 s 0.433594 -1 1 -1 c 0.550782 0 1 -0.449219 1 -1 v -2 c 0 -1.65625 -1.34375 -3 -3 -3 z m 0 2 h 6.015625 v 3 h 1 v -3 h 2.996093 c 0.570313 0 1 0.429687 1 1 v 1.167969 c -1.167968 0.414062 -2 1.523437 -2 2.832031 s 0.832032 2.417969 2 2.832031 v 1.167969 c 0 0.570313 -0.429687 1 -1 1 h -2.996093 v -2 h -1 v 2 h -6.015625 c -0.570313 0 -1 -0.429687 -1 -1 v -1.167969 c 1.164062 -0.414062 2 -1.523437 2 -2.832031 s -0.835938 -2.417969 -2 -2.832031 v -1.167969 c 0 -0.570313 0.429687 -1 1 -1 z m 6.015625 4 v 3 h 1 v -3 z m 0 0" fill="#222222"/>
</svg>
