<?xml version="1.0" encoding="UTF-8"?>
<svg height="16px" viewBox="0 0 16 16" width="16px" xmlns="http://www.w3.org/2000/svg">
    <g fill="#222222">
        <path d="m 4 1 c -1.660156 0 -3 1.339844 -3 3 v 7 c 0 0.894531 0.390625 1.699219 1.007812 2.25 l -1.871093 1.871094 c -0.1953128 0.195312 -0.1953128 0.511718 0 0.707031 c 0.195312 0.195313 0.511719 0.195313 0.707031 0 l 1.980469 -1.984375 c 0.019531 -0.019531 0.039062 -0.039062 0.050781 -0.0625 c 0.347656 0.140625 0.726562 0.21875 1.125 0.21875 h 7 c 0.386719 0 0.753906 -0.070312 1.089844 -0.203125 c 0.011718 0.015625 0.027344 0.03125 0.042968 0.046875 l 1.980469 1.984375 c 0.195313 0.195313 0.515625 0.195313 0.710938 0 c 0.191406 -0.195313 0.191406 -0.511719 0 -0.707031 l -1.859375 -1.851563 c 0.636718 -0.550781 1.035156 -1.363281 1.035156 -2.269531 v -7 c 0 -1.660156 -1.339844 -3 -3 -3 z m 0 2 h 7 c 0.554688 0 1 0.445312 1 1 h -9 c 0 -0.554688 0.445312 -1 1 -1 z m -1 2 h 4 v 3.003906 h -4 z m 4.980469 0 h 4.019531 v 3.003906 h -4.019531 z m -4.980469 4.003906 h 9 v 1.996094 c 0 0.554688 -0.445312 1 -1 1 h -7 c -0.554688 0 -1 -0.445312 -1 -1 z m 0 0"/>
        <g fill-rule="evenodd">
            <path d="m 4.492188 10.003906 h 1.015624 c 0.273438 0 0.492188 0.21875 0.492188 0.492188 c 0 0.269531 -0.21875 0.488281 -0.492188 0.488281 h -1.015624 c -0.273438 0 -0.492188 -0.21875 -0.492188 -0.488281 c 0 -0.273438 0.21875 -0.492188 0.492188 -0.492188 z m 0 0"/>
            <path d="m 9.492188 10.003906 h 1.03125 c 0.273437 0 0.492187 0.21875 0.492187 0.492188 c 0 0.269531 -0.21875 0.488281 -0.492187 0.488281 h -1.03125 c -0.273438 0 -0.492188 -0.21875 -0.492188 -0.488281 c 0 -0.273438 0.21875 -0.492188 0.492188 -0.492188 z m 0 0"/>
        </g>
    </g>
</svg>
