<?xml version="1.0" encoding="UTF-8"?>
<svg height="16px" viewBox="0 0 16 16" width="16px" xmlns="http://www.w3.org/2000/svg">
    <path d="m 6.5 0 c -1.378906 0 -2.5 1.121094 -2.5 2.5 v 0.5 h -3 c -0.550781 0 -1 0.449219 -1 1 s 0.449219 1 1 1 h 1 v 8 c 0 1.65625 1.34375 3 3 3 h 6 c 1.65625 0 3 -1.34375 3 -3 v -8 h 1 c 0.550781 0 1 -0.449219 1 -1 s -0.449219 -1 -1 -1 h -3.023438 v -0.5 c 0 -1.378906 -1.117187 -2.5 -2.5 -2.5 z m 0 2 h 2.976562 c 0.289063 0 0.5 0.210938 0.5 0.5 v 0.5 h -3.976562 v -0.5 c 0 -0.289062 0.210938 -0.5 0.5 -0.5 z m -2.5 3 h 8 v 8 c 0 0.5625 -0.4375 1 -1 1 h -6 c -0.5625 0 -1 -0.4375 -1 -1 z m 0 0"/>
    <path d="m 8.984375 7 v 5 c 0 0.550781 -0.449219 1 -1 1 s -1 -0.449219 -1 -1 v -5 c 0 -0.550781 0.449219 -1 1 -1 s 1 0.449219 1 1 z m 0 0"/>
    <path d="m 5.292969 8.292969 l 2 -2 c 0.390625 -0.390625 1.023437 -0.390625 1.414062 0 l 2 2 c 0.25 0.253906 0.351563 0.621093 0.257813 0.964843 c -0.089844 0.347657 -0.359375 0.617188 -0.707032 0.710938 c -0.34375 0.089844 -0.714843 -0.007812 -0.964843 -0.261719 l -2 -2 h 1.414062 l -2 2 c -0.253906 0.253907 -0.621093 0.351563 -0.96875 0.261719 c -0.34375 -0.09375 -0.617187 -0.363281 -0.707031 -0.710938 c -0.09375 -0.34375 0.007812 -0.710937 0.261719 -0.964843 z m 0 0"/>
</svg>
