<?xml version="1.0" encoding="UTF-8"?>
<svg height="16px" viewBox="0 0 16 16" width="16px" xmlns="http://www.w3.org/2000/svg">
    <path d="m 8 0 c -3.855469 0 -7 3.144531 -7 7 c 0 3.515625 2.617188 6.441406 6 6.925781 v 1.074219 c 0 0.550781 0.449219 1 1 1 s 1 -0.449219 1 -1 v -1.074219 c 3.382812 -0.484375 6 -3.410156 6 -6.925781 c 0 -3.855469 -3.144531 -7 -7 -7 z m 0 2 c 2.773438 0 5 2.226562 5 5 c 0 2.429688 -1.710938 4.441406 -4 4.902344 v -2.203125 l 1.820312 -1.84375 c 0.195313 -0.195313 0.195313 -0.515625 0 -0.710938 c -0.089843 -0.09375 -0.21875 -0.144531 -0.351562 -0.144531 s -0.261719 0.050781 -0.355469 0.144531 l -1.113281 1.132813 v -2.277344 c 0 -0.550781 -0.449219 -1 -1 -1 s -1 0.449219 -1 1 v 5.902344 c -2.289062 -0.460938 -4 -2.472656 -4 -4.902344 c 0 -2.773438 2.226562 -5 5 -5 z m 0 0" fill="#222222"/>
</svg>
