<?xml version="1.0" encoding="UTF-8"?>
<svg height="16px" viewBox="0 0 16 16" width="16px" xmlns="http://www.w3.org/2000/svg">
    <path d="m 1.53125 0.46875 l -1.0625 1.0625 l 14 14 l 1.0625 -1.0625 l -2.53125 -2.53125 v -2.9375 l 1 3 h 2 v -7 h -2 v 3 l -1 -3 h -2 v 4.9375 l -0.703125 -0.703125 c 0.4375 -0.453125 0.703125 -1.066406 0.703125 -1.734375 c 0 -1.378906 -1.121094 -2.5 -2.5 -2.5 h -2.4375 z m -1.53125 4.53125 l 2 7 h 2 l 1.097656 -3.84375 l -1.554687 -1.554688 l -0.542969 1.898438 l -0.976562 -3.417969 l -0.082032 -0.082031 z m 8 1.75 h 0.5 c 0.414062 0 0.75 0.335938 0.75 0.75 c 0 0.191406 -0.070312 0.367188 -0.191406 0.5 l -1.058594 -1.0625 z m -2 2.308594 v 2.941406 h 2 v -0.941406 z m 0 0" fill="#222222"/>
</svg>
