<?xml version="1.0" encoding="UTF-8"?>
<svg height="16px" viewBox="0 0 16 16" width="16px" xmlns="http://www.w3.org/2000/svg">
    <g fill="#222222">
        <path d="m 4.121094 5.410156 c -1.851563 0.886719 -3.136719 2.78125 -3.136719 4.960938 c 0 3.027344 2.476563 5.5 5.5 5.5 c 1.953125 0 3.675781 -1.027344 4.652344 -2.574219 l -0.539063 -1.425781 h -0.945312 c -0.558594 1.1875 -1.761719 2 -3.167969 2 c -1.945313 0 -3.5 -1.554688 -3.5 -3.5 c 0 -1.347656 0.75 -2.507813 1.855469 -3.09375 z m 0 0" fill-opacity="0.34902"/>
        <path d="m 6 -0.0117188 c -1.066406 0.0039063 -1.945312 0.8437498 -1.992188 1.9062498 c -0.003906 0.019531 -0.003906 0.039063 -0.007812 0.0625 v 0.03125 c 0 0.019531 0.003906 0.035157 0.003906 0.050781 c 0 0.015626 0 0.027344 0.003906 0.039063 c 0.007813 0.191406 0.042969 0.382813 0.105469 0.566406 l 0.007813 0.019531 c 0.007812 0.054688 0.023437 0.105469 0.042968 0.15625 l 2.902344 7.527344 c 0.148438 0.386719 0.519532 0.640625 0.933594 0.640625 h 3.308594 l 1.253906 3.351563 c 0.148438 0.390625 0.519531 0.648437 0.9375 0.648437 h 1.5 c 0.550781 0 1 -0.449219 1 -1 s -0.449219 -1 -1 -1 h -0.804688 l -1.261718 -3.351562 c -0.144532 -0.390625 -0.515625 -0.648438 -0.933594 -0.648438 h -3.316406 l -0.382813 -1 h 2.699219 c 0.550781 0 1 -0.449219 1 -1 s -0.449219 -1 -1 -1 h -3.472656 l -0.820313 -2.128906 c 0.78125 -0.292969 1.292969 -1.039063 1.292969 -1.871094 c 0 -1.105469 -0.894531 -1.9999998 -2 -1.9999998 z m 0 0"/>
    </g>
</svg>
