<?xml version="1.0" encoding="UTF-8"?>
<svg height="16px" viewBox="0 0 16 16" width="16px" xmlns="http://www.w3.org/2000/svg">
    <path d="m 6 -0.0117188 c -1.007812 0 -1.855469 0.7499998 -1.980469 1.7499998 c -0.042969 0.148438 -0.046875 0.308594 -0.019531 0.460938 l 0.03125 0.140625 l 0.019531 0.085937 v 0.019531 l 0.050781 0.226563 c 0.007813 0.054687 0.023438 0.105469 0.042969 0.160156 l 2.902344 7.523438 c 0.148437 0.386719 0.519531 0.640625 0.933594 0.636719 h 3.308593 l 1.257813 3.355468 c 0.144531 0.390625 0.519531 0.648438 0.933594 0.644532 h 1.5 c 0.550781 0 1 -0.445313 1 -1 c 0 -0.550782 -0.449219 -1 -1 -1 h -0.804688 l -1.261719 -3.347657 c -0.144531 -0.390625 -0.515624 -0.648437 -0.933593 -0.652343 h -3.316407 l -0.386718 -1.003907 h 2.722656 c 0.550781 0 1 -0.449219 1 -1 s -0.449219 -1 -1 -1 h -3.492188 l -0.820312 -2.125 c 0.789062 -0.285156 1.3125 -1.035156 1.3125 -1.875 c 0 -1.105469 -0.894531 -1.9999998 -2 -1.9999998 z m -1.882812 5.5429688 c -1.851563 0.886719 -3.136719 2.78125 -3.136719 4.960938 c 0 3.027343 2.472656 5.5 5.5 5.5 c 1.953125 0 3.671875 -1.027344 4.652343 -2.570313 l -0.539062 -1.429687 h -0.945312 c -0.558594 1.1875 -1.761719 2 -3.167969 2 c -1.945313 0 -3.5 -1.554688 -3.5 -3.5 c 0 -1.347657 0.746093 -2.507813 1.855469 -3.09375 z m 0 0" fill="#222222"/>
</svg>
