<?xml version="1.0" encoding="UTF-8"?>
<svg height="16px" viewBox="0 0 16 16" width="16px" xmlns="http://www.w3.org/2000/svg">
    <path d="m 7.917969 1 c -1.617188 0 -2.917969 1.300781 -2.917969 2.917969 v 1.082031 c -0.5625 0.007812 -1.007812 0.46875 -1 1.03125 v 3.9375 c 0 0.570312 0.460938 1.03125 1.03125 1.03125 h 1.96875 v 1.207031 c -0.316406 0.179688 -0.578125 0.449219 -0.757812 0.769531 h -3.246094 c -0.550782 0 -1 0.449219 -1 1 c 0 0.550782 0.449218 1 1 1 h 3.285156 c 0.363281 0.601563 1.011719 0.972657 1.714844 0.972657 s 1.355468 -0.371094 1.71875 -0.972657 h 3.292968 c 0.550782 0 1 -0.449218 1 -1 c 0 -0.550781 -0.449218 -1 -1 -1 h -3.261718 c -0.171875 -0.320312 -0.433594 -0.585937 -0.746094 -0.765624 v -1.210938 h 1.96875 c 0.570312 0 1.03125 -0.460938 1.03125 -1.03125 v -3.9375 c 0.007812 -0.5625 -0.4375 -1.023438 -1 -1.03125 v -1.082031 c 0 -1.617188 -1.300781 -2.917969 -2.917969 -2.917969 z m 0.082031 2 c 0.554688 0 1 0.445312 1 1 v 1 h -2 v -1 c 0 -0.554688 0.445312 -1 1 -1 z m -0.003906 9.9375 c 0.554687 0 1.003906 0.449219 1.003906 1.007812 c 0 0.554688 -0.449219 1.003907 -1.003906 1.003907 c -0.554688 0 -1.007813 -0.449219 -1.007813 -1.003907 c 0 -0.558593 0.453125 -1.007812 1.007813 -1.007812 z m 0 0" fill="#2e3436"/>
</svg>
