<?xml version="1.0" encoding="UTF-8"?>
<svg height="16px" viewBox="0 0 16 16" width="16px" xmlns="http://www.w3.org/2000/svg">
    <path d="m 4.867188 1.011719 c -2.644532 0.074219 -4.7968755 2.210937 -4.8593755 4.890625 c -0.0078125 0.03125 -0.0078125 0.0625 -0.0078125 0.097656 c 0.00390625 0.550781 0.449219 0.992188 1 0.992188 s 0.996094 -0.441407 1 -0.992188 c 0 -1.476562 1.078125 -2.730469 2.535156 -2.957031 c 1.460938 -0.230469 2.871094 0.636719 3.320313 2.046875 c 0.457031 1.398437 -0.175781 2.917968 -1.484375 3.585937 c -1.003906 0.429688 -1.578125 1.238281 -1.867188 1.917969 c -0.292968 0.695312 -0.421875 1.246094 -0.640625 1.59375 c -0.359375 0.558594 -0.863281 0.683594 -1.25 0.609375 c -0.378906 -0.074219 -0.613281 -0.21875 -0.613281 -0.789063 v -1 v -0.011718 c 0 -0.550782 -0.449219 -1 -1 -1 s -1 0.449218 -1 1 v 0.011718 v 1 c 0 1.429688 1.054688 2.527344 2.238281 2.753907 c 1.183594 0.226562 2.53125 -0.289063 3.304688 -1.496094 c 0.476562 -0.742187 0.613281 -1.441406 0.800781 -1.894531 c 0.191406 -0.449219 0.300781 -0.648438 0.835938 -0.863282 l 0.039062 -0.019531 l 0.035156 -0.019531 c 2.195313 -1.109375 3.257813 -3.652344 2.507813 -5.996094 c -0.65625 -2.015625 -2.511719 -3.40625 -4.636719 -3.460937 z m 8.140624 2.765625 c -0.136718 0.003906 -0.269531 0.066406 -0.363281 0.171875 c -1.066406 1.207031 -1.625 2.582031 -1.625 3.984375 s 0.554688 2.808594 1.613281 4.101562 c 0.175782 0.214844 0.488282 0.246094 0.703126 0.070313 c 0.214843 -0.171875 0.246093 -0.488281 0.070312 -0.699219 c -0.945312 -1.152344 -1.386719 -2.332031 -1.386719 -3.472656 s 0.4375 -2.261719 1.375 -3.324219 c 0.183594 -0.207031 0.164063 -0.523437 -0.042969 -0.707031 c -0.082031 -0.070313 -0.179687 -0.113282 -0.285156 -0.121094 c -0.019531 0 -0.039062 -0.003906 -0.058594 0 z m 1.503907 1.21875 c -0.160157 -0.003906 -0.3125 0.066406 -0.410157 0.195312 c -0.679687 0.886719 -1.070312 1.824219 -1.082031 2.789063 c -0.007812 0.96875 0.367188 1.925781 1.085938 2.839843 c 0.171875 0.214844 0.488281 0.25 0.703125 0.082032 c 0.214844 -0.171875 0.253906 -0.488282 0.082031 -0.703125 c -0.617187 -0.777344 -0.875 -1.5 -0.871094 -2.207031 c 0.007813 -0.703126 0.289063 -1.425782 0.875 -2.191407 c 0.167969 -0.21875 0.128907 -0.535156 -0.09375 -0.703125 c -0.082031 -0.0625 -0.183593 -0.101562 -0.289062 -0.101562 z m 0 0" fill="#222222"/>
</svg>
