<?xml version="1.0" encoding="UTF-8"?>
<svg height="16px" viewBox="0 0 16 16" width="16px" xmlns="http://www.w3.org/2000/svg">
    <path d="m 4 0.00390625 v 2.99999975 h -1.023438 c -1.09375 0 -1.976562 0.878906 -1.976562 1.972656 v 2.050782 c 0 0.128906 0.011719 0.253906 0.035156 0.375 c -0.023437 0.195312 -0.035156 0.398437 -0.035156 0.601562 c 0 2.769532 2.230469 5 5 5 c 0 1.640625 1.355469 2.996094 3 2.996094 h 2 c 1.09375 0 2 -0.90625 2 -2 h 1 v 2 h 2 v -2 c 0 -1.09375 -0.90625 -2 -2 -2 h -1 c -1.09375 0 -2 0.90625 -2 2 h -2 c -0.5625 0 -1 -0.433594 -1 -0.996094 c 2.769531 0 5 -2.230468 5 -5 c 0 -0.203125 -0.011719 -0.40625 -0.035156 -0.601562 c 0.023437 -0.121094 0.035156 -0.246094 0.035156 -0.375 v -2.050782 c 0 -1.09375 -0.882812 -1.972656 -1.976562 -1.972656 h -1.023438 v -2.99999975 h -2 v 2.99999975 h -2 v -2.99999975 z m 0 0" fill="#222222"/>
</svg>
